<svg xmlns="http://www.w3.org/2000/svg" width="177" height="177" viewBox="0 0 177 177">
  <g id="Grupo_109229" data-name="Grupo 109229" transform="translate(-402 -867)">
    <circle id="Elipse_4955" data-name="Elipse 4955" cx="83.5" cy="83.5" r="83.5" transform="translate(407 872)" fill="#fff"/>
    <g id="Elipse_4954" data-name="Elipse 4954" transform="translate(414 879)" fill="none" stroke="#ff9500" stroke-linejoin="round" stroke-width="12">
      <circle cx="76.5" cy="76.5" r="76.5" stroke="none"/>
      <circle cx="76.5" cy="76.5" r="82.5" fill="none"/>
    </g>
    <g id="dslr-camera" transform="translate(446 914)">
      <g id="Grupo_108310" data-name="Grupo 108310" transform="translate(7.031 13.625)">
        <path id="Trazado_114295" data-name="Trazado 114295" d="M54,12h7.031v4.219H54Z" transform="translate(14.906 -12)" fill="#727997"/>
        <path id="Trazado_114296" data-name="Trazado 114296" d="M14,12h7.031v4.219H14Z" transform="translate(-1.344 -12)" fill="#727997"/>
        <path id="Trazado_114297" data-name="Trazado 114297" d="M5,12h7.031v4.219H5Z" transform="translate(-5 -12)" fill="#727997"/>
      </g>
      <path id="Trazado_114298" data-name="Trazado 114298" d="M5,47H16.25v5.625H5Z" transform="translate(2.031 15.844)" fill="#ffb854"/>
      <path id="Trazado_114299" data-name="Trazado 114299" d="M5,47H9.219v5.625H5Z" transform="translate(2.031 15.844)" fill="#ff9500"/>
      <path id="Trazado_114300" data-name="Trazado 114300" d="M28,12H39.25v5.625H28Z" transform="translate(11.375 1.625)" fill="#ffb854"/>
      <path id="Trazado_114301" data-name="Trazado 114301" d="M28,12h4.219v5.625H28Z" transform="translate(11.375 1.625)" fill="#ff9500"/>
      <path id="Trazado_114302" data-name="Trazado 114302" d="M22.094,24h.014a1.364,1.364,0,0,0-.014.239v15.23a22.5,22.5,0,0,0,45,0V24.239A1.363,1.363,0,0,0,67.08,24H88.188V61.969a5.625,5.625,0,0,1-5.625,5.625H6.625A5.625,5.625,0,0,1,1,61.969V24ZM17.875,61.969V56.344H6.625v5.625Z" transform="translate(0.406 6.5)" fill="#b0c0d2"/>
      <path id="Trazado_114303" data-name="Trazado 114303" d="M30.025,15l-4.88,5.189a11.177,11.177,0,0,0-3.038,7.467H1V20.625A5.625,5.625,0,0,1,6.625,15Z" transform="translate(0.406 2.844)" fill="#dee4f0"/>
      <path id="Trazado_114304" data-name="Trazado 114304" d="M71.385,20.625v7.031H50.277a11.177,11.177,0,0,0-3.037-7.467L42.36,15h23.4a5.625,5.625,0,0,1,5.625,5.625Z" transform="translate(17.209 2.844)" fill="#dee4f0"/>
      <path id="Trazado_114305" data-name="Trazado 114305" d="M46.579,15H42.36l4.88,5.189a11.177,11.177,0,0,1,3.037,7.467H54.5a11.177,11.177,0,0,0-3.037-7.467Z" transform="translate(17.209 2.844)" fill="#afafaf"/>
      <path id="Trazado_114306" data-name="Trazado 114306" d="M61,45.563a22.5,22.5,0,0,0-45,0V30.333a1.364,1.364,0,0,1,.014-.239,11.177,11.177,0,0,1,3.038-7.467l4.88-5.189,5.738-6.089A2.821,2.821,0,0,1,32.439,9H44.561a2.821,2.821,0,0,1,2.77,2.348l5.738,6.089,4.88,5.189a11.177,11.177,0,0,1,3.037,7.467,1.364,1.364,0,0,1,.014.239ZM32.875,18.844h11.25V13.219H32.875Z" transform="translate(6.5 0.406)" fill="#bec3d2"/>
      <path id="Trazado_114307" data-name="Trazado 114307" d="M20.219,30.333a1.364,1.364,0,0,1,.014-.239,11.177,11.177,0,0,1,3.038-7.467l4.88-5.189,5.738-6.089A2.821,2.821,0,0,1,36.658,9H32.439a2.821,2.821,0,0,0-2.77,2.348l-5.738,6.089-4.88,5.189a11.177,11.177,0,0,0-3.038,7.467,1.364,1.364,0,0,0-.014.239v15.23a22.373,22.373,0,0,1,4.219-13.087Z" transform="translate(6.5 0.406)" fill="#cdd2e1"/>
      <path id="Trazado_114308" data-name="Trazado 114308" d="M38.5,19A22.5,22.5,0,1,1,16,41.5,22.5,22.5,0,0,1,38.5,19Zm0,39.375A16.875,16.875,0,1,0,21.625,41.5,16.875,16.875,0,0,0,38.5,58.375Z" transform="translate(6.5 4.469)" fill="#e8e8e8"/>
      <circle id="Elipse_4961" data-name="Elipse 4961" cx="17" cy="17" r="17" transform="translate(28 28.75)" fill="#61dfff"/>
      <path id="Trazado_114309" data-name="Trazado 114309" d="M24.25,39.877A16.861,16.861,0,0,1,39.015,23.142a16.875,16.875,0,1,0,0,33.458A16.861,16.861,0,0,1,24.25,39.877Z" transform="translate(8.094 6.092)" fill="#0ca4ca"/>
      <path id="Trazado_114310" data-name="Trazado 114310" d="M5.219,61.969V24H1V61.969a5.625,5.625,0,0,0,5.625,5.625h4.219A5.625,5.625,0,0,1,5.219,61.969Z" transform="translate(0.406 6.5)" fill="#727997"/>
      <path id="Trazado_114311" data-name="Trazado 114311" d="M33.5,61.862c.695.065,1.4.107,2.109.107a22.5,22.5,0,0,0,22.5-22.5V24.239A1.364,1.364,0,0,0,58.1,24H53.877a1.364,1.364,0,0,1,.014.239v15.23A22.489,22.489,0,0,1,33.5,61.862Z" transform="translate(13.609 6.5)" fill="#727997"/>
      <path id="Trazado_114312" data-name="Trazado 114312" d="M10.844,15H6.625A5.625,5.625,0,0,0,1,20.625v7.031H5.219V20.625A5.625,5.625,0,0,1,10.844,15Z" transform="translate(0.406 2.844)" fill="#afafaf"/>
      <path id="Trazado_114313" data-name="Trazado 114313" d="M44.656,38.656H41.844A9.855,9.855,0,0,0,32,28.813V26A12.672,12.672,0,0,1,44.656,38.656Z" transform="translate(13 7.313)" fill="#e3fbff"/>
      <path id="Trazado_114314" data-name="Trazado 114314" d="M35.656,47.656A12.672,12.672,0,0,1,23,35h2.813a9.855,9.855,0,0,0,9.844,9.844Z" transform="translate(9.344 10.969)" fill="#e3fbff"/>
      <path id="Trazado_114315" data-name="Trazado 114315" d="M39,37h2.813v2.813H39Z" transform="translate(15.844 11.781)" fill="#e3fbff"/>
      <path id="Trazado_114316" data-name="Trazado 114316" d="M84.375,16.578V13.625a1.406,1.406,0,0,0-1.406-1.406H75.938a1.406,1.406,0,0,0-1.406,1.406v2.813H60.171l-5.054-5.369A4.2,4.2,0,0,0,51.061,8H38.939a4.2,4.2,0,0,0-4.056,3.068l-5.054,5.369h-1.7V13.625a1.406,1.406,0,0,0-1.406-1.406H19.688a1.406,1.406,0,0,0-1.406,1.406v2.813H15.469V13.625a1.406,1.406,0,0,0-1.406-1.406H7.031a1.406,1.406,0,0,0-1.406,1.406v2.953A7.044,7.044,0,0,0,0,23.469v45A7.04,7.04,0,0,0,7.031,75.5H82.969A7.04,7.04,0,0,0,90,68.469v-45a7.044,7.044,0,0,0-5.625-6.891Zm-7.031-1.547h4.219v1.406H77.344Zm5.625,4.219a4.219,4.219,0,0,1,4.219,4.219v5.625h-18.4a12.579,12.579,0,0,0-3.315-7.031L62.819,19.25ZM37.193,12.718a1.406,1.406,0,0,0,.364-.733,1.406,1.406,0,0,1,1.382-1.173H51.061a1.406,1.406,0,0,1,1.382,1.173,1.406,1.406,0,0,0,.364.733L63.422,23.995a9.75,9.75,0,0,1,2.656,6.526,1.607,1.607,0,0,0,.014.218v4a23.885,23.885,0,0,0-42.188,0V30.726a1.688,1.688,0,0,0,.018-.205A9.75,9.75,0,0,1,26.578,24Zm28.9,33.251A21.094,21.094,0,1,1,45,24.875,21.094,21.094,0,0,1,66.094,45.969Zm-45-30.937h4.219v1.406H21.094Zm-8.438,0v1.406H8.437V15.031ZM7.031,19.25h20.15l-2.656,2.821a12.582,12.582,0,0,0-3.313,7.023H2.813V23.469A4.219,4.219,0,0,1,7.031,19.25ZM82.969,72.688H7.031a4.219,4.219,0,0,1-4.219-4.219V31.906H21.094V45.969a23.906,23.906,0,0,0,47.813,0V31.906H87.188V68.469a4.219,4.219,0,0,1-4.219,4.219Z"/>
      <path id="Trazado_114317" data-name="Trazado 114317" d="M37.281,22A18.281,18.281,0,1,0,55.563,40.281,18.281,18.281,0,0,0,37.281,22Zm0,33.75A15.469,15.469,0,1,1,52.75,40.281,15.469,15.469,0,0,1,37.281,55.75Z" transform="translate(7.719 5.688)"/>
      <path id="Trazado_114318" data-name="Trazado 114318" d="M32,26v2.813a9.855,9.855,0,0,1,9.844,9.844h2.813A12.672,12.672,0,0,0,32,26Z" transform="translate(13 7.313)"/>
      <path id="Trazado_114319" data-name="Trazado 114319" d="M25.813,35H23A12.672,12.672,0,0,0,35.656,47.656V44.844A9.855,9.855,0,0,1,25.813,35Z" transform="translate(9.344 10.969)"/>
      <path id="Trazado_114320" data-name="Trazado 114320" d="M28.406,19.438h11.25a1.406,1.406,0,0,0,1.406-1.406V12.406A1.406,1.406,0,0,0,39.656,11H28.406A1.406,1.406,0,0,0,27,12.406v5.625A1.406,1.406,0,0,0,28.406,19.438Zm1.406-5.625H38.25v2.813H29.813Z" transform="translate(10.969 1.219)"/>
      <path id="Trazado_114321" data-name="Trazado 114321" d="M39,37h2.813v2.813H39Z" transform="translate(15.844 11.781)"/>
      <path id="Trazado_114322" data-name="Trazado 114322" d="M16.656,46H5.406A1.406,1.406,0,0,0,4,47.406v5.625a1.406,1.406,0,0,0,1.406,1.406h11.25a1.406,1.406,0,0,0,1.406-1.406V47.406A1.406,1.406,0,0,0,16.656,46ZM15.25,51.625H6.813V48.813H15.25Z" transform="translate(1.625 15.438)"/>
    </g>
  </g>
</svg>
