<svg xmlns="http://www.w3.org/2000/svg" xmlns:xlink="http://www.w3.org/1999/xlink" width="801.937" height="342" viewBox="0 0 801.937 342">
  <defs>
    <linearGradient id="linear-gradient" x1="0.5" x2="0.5" y2="1" gradientUnits="objectBoundingBox">
      <stop offset="0" stop-color="#979797"/>
      <stop offset="0.437" stop-color="#e5e5e5"/>
      <stop offset="0.673" stop-color="#6d6d6d"/>
      <stop offset="1" stop-color="#fff"/>
    </linearGradient>
    <linearGradient id="linear-gradient-2" x1="0.462" y1="0.5" x2="0" y2="1" gradientUnits="objectBoundingBox">
      <stop offset="0" stop-color="red"/>
      <stop offset="1" stop-color="#fff" stop-opacity="0"/>
    </linearGradient>
    <clipPath id="clip-path">
      <path id="Trazado_114813" data-name="Trazado 114813" d="M145.067,185,135,193.948v40.267h43.622l5.593-6.711V185Z" transform="translate(-135 -185)" fill="url(#linear-gradient)"/>
    </clipPath>
  </defs>
  <g id="Grupo_109246" data-name="Grupo 109246" transform="translate(-399 -1930)">
    <g id="Grupo_81358" data-name="Grupo 81358" transform="translate(399 1973)" style="isolation: isolate">
      <rect id="Rectángulo_34187" data-name="Rectángulo 34187" width="107.937" height="107.937" rx="11.5" fill="#edeff0"/>
    </g>
    <g id="Grupo_109101" data-name="Grupo 109101" transform="translate(490 2124)" style="isolation: isolate">
      <rect id="Rectángulo_34187-2" data-name="Rectángulo 34187" width="107.937" height="107.937" rx="11.5" fill="#edeff0"/>
    </g>
    <g id="Grupo_109102" data-name="Grupo 109102" transform="translate(617 2124)" style="isolation: isolate">
      <rect id="Rectángulo_34187-3" data-name="Rectángulo 34187" width="107.937" height="107.937" rx="11.5" fill="#edeff0"/>
    </g>
    <g id="Grupo_109104" data-name="Grupo 109104" transform="translate(746 2124)" style="isolation: isolate">
      <rect id="Rectángulo_34187-4" data-name="Rectángulo 34187" width="107.937" height="107.937" rx="11.5" fill="#edeff0"/>
    </g>
    <g id="Grupo_109106" data-name="Grupo 109106" transform="translate(874 2124)" style="isolation: isolate">
      <rect id="Rectángulo_34187-5" data-name="Rectángulo 34187" width="107.937" height="107.937" rx="11.5" fill="#edeff0"/>
    </g>
    <g id="Grupo_109107" data-name="Grupo 109107" transform="translate(1002 2124)" style="isolation: isolate">
      <rect id="Rectángulo_34187-6" data-name="Rectángulo 34187" width="107.937" height="107.937" rx="11.5" fill="#edeff0"/>
    </g>
    <rect id="Rectángulo_34188" data-name="Rectángulo 34188" width="107.937" height="107.937" rx="11.5" transform="translate(526 1973)" fill="#eceff0" opacity="0.95" style="isolation: isolate"/>
    <rect id="Rectángulo_34190" data-name="Rectángulo 34190" width="107.937" height="107.937" rx="11.5" transform="translate(654 1973)" fill="#edeff0" opacity="0.95" style="isolation: isolate"/>
    <rect id="Rectángulo_34192" data-name="Rectángulo 34192" width="107.937" height="107.937" rx="11.5" transform="translate(782 1973)" fill="#edeff0" opacity="0.95" style="isolation: isolate"/>
    <rect id="Rectángulo_34193" data-name="Rectángulo 34193" width="167.501" height="107.937" rx="11.5" transform="translate(908 1973)" fill="#edeff0" opacity="0.95" style="isolation: isolate"/>
    <rect id="Rectángulo_34194" data-name="Rectángulo 34194" width="107.937" height="107.937" rx="11.5" transform="translate(1093 1973)" fill="#edeff0" opacity="0.95" style="isolation: isolate"/>
    <g id="Grupo_81400" data-name="Grupo 81400" transform="translate(426.727 1930.344)" opacity="0.95">
      <path id="Trazado_114232" data-name="Trazado 114232" d="M25,0A25,25,0,1,1,0,25,25,25,0,0,1,25,0Z" transform="translate(-0.259 -0.343)" fill="#255065"/>
      <text id="_1" data-name="1" transform="translate(24.741 37.656)" fill="#fff" font-size="33" font-family="Roboto-Black, Roboto" font-weight="800"><tspan x="-9.555" y="0">1</tspan></text>
    </g>
    <g id="Grupo_81403" data-name="Grupo 81403" transform="translate(681.727 1930.344)" opacity="0.95">
      <path id="Trazado_114232-2" data-name="Trazado 114232" d="M25,0A25,25,0,1,1,0,25,25,25,0,0,1,25,0Z" transform="translate(-0.259 -0.343)" fill="#255065"/>
      <text id="_3" data-name="3" transform="translate(24.741 37.656)" fill="#fff" font-size="33" font-family="Roboto-Black, Roboto" font-weight="800"><tspan x="-9.555" y="0">3</tspan></text>
    </g>
    <path id="Trazado_114232-3" data-name="Trazado 114232" d="M25,0A25,25,0,1,1,0,25,25,25,0,0,1,25,0Z" transform="translate(967 1930)" fill="#255065"/>
    <text id="_5" data-name="5" transform="translate(992 1968)" fill="#fff" font-size="33" font-family="Roboto-Black, Roboto" font-weight="800"><tspan x="-9.555" y="0">5</tspan></text>
    <g id="Grupo_81401" data-name="Grupo 81401" transform="translate(553.727 1930.344)" opacity="0.95">
      <path id="Trazado_114232-4" data-name="Trazado 114232" d="M25,0A25,25,0,1,1,0,25,25,25,0,0,1,25,0Z" transform="translate(-0.259 -0.343)" fill="#255065"/>
      <text id="_2" data-name="2" transform="translate(24.741 37.656)" fill="#fff" font-size="33" font-family="Roboto-Black, Roboto" font-weight="800"><tspan x="-9.555" y="0">2</tspan></text>
    </g>
    <g id="Grupo_81402" data-name="Grupo 81402" transform="translate(808.727 1930.344)" opacity="0.95">
      <path id="Trazado_114232-5" data-name="Trazado 114232" d="M25,0A25,25,0,1,1,0,25,25,25,0,0,1,25,0Z" transform="translate(-0.259 -0.343)" fill="#30586c"/>
      <text id="_4" data-name="4" transform="translate(24.741 37.656)" fill="#fff" font-size="33" font-family="Roboto-Black, Roboto" font-weight="800"><tspan x="-9.555" y="0">4</tspan></text>
    </g>
    <path id="Trazado_114232-6" data-name="Trazado 114232" d="M25,0A25,25,0,1,1,0,25,25,25,0,0,1,25,0Z" transform="translate(1121.692 1930)" fill="#255065"/>
    <text id="_6" data-name="6" transform="translate(1146.692 1968)" fill="#fff" font-size="33" font-family="Roboto-Black, Roboto" font-weight="800"><tspan x="-9.555" y="0">6</tspan></text>
    <g id="Grupo_109094" data-name="Grupo 109094" transform="translate(-550 -766)">
      <path id="Trazado_114809" data-name="Trazado 114809" d="M296,101.04l35.724,34.295H296Z" transform="translate(679 2684.251)" fill="url(#linear-gradient-2)"/>
      <path id="Trazado_114810" data-name="Trazado 114810" d="M318,106.236,337.236,87l6.87,6.87-19.923,19.923L318,112.86Z" transform="translate(687.228 2679)" fill="#afafaf"/>
      <path id="Trazado_114811" data-name="Trazado 114811" d="M318,106.236,337.236,87l6.87,6.87-19.923,19.923L318,112.86Z" transform="translate(687.228 2679)" fill="none" stroke="#000" stroke-linecap="round" stroke-linejoin="round" stroke-width="2"/>
      <path id="Trazado_114812" data-name="Trazado 114812" d="M329.488,106.244A8.244,8.244,0,1,1,321.244,98a8.243,8.243,0,0,1,8.244,8.244" transform="translate(685.358 2683.114)" fill="red"/>
      <circle id="Elipse_4969" data-name="Elipse 4969" cx="8" cy="8" r="8" transform="translate(998.667 2781.293)" fill="none" stroke="#000" stroke-linecap="round" stroke-linejoin="round" stroke-width="2"/>
    </g>
    <g id="Grupo_109096" data-name="Grupo 109096" transform="translate(-215 -584.696)">
      <path id="Trazado_114802" data-name="Trazado 114802" d="M69.5,14.5H88.1l-9.3,9.3Z" transform="translate(679 2584.315)" fill="red"/>
      <path id="Trazado_114803" data-name="Trazado 114803" d="M78.8,5.5l-9.3,9.3H88.1Z" transform="translate(679 2584.017)" fill="#ff4747"/>
      <g id="Grupo_109095" data-name="Grupo 109095" transform="translate(799.641 2589)">
        <path id="Trazado_114821" data-name="Trazado 114821" d="M129.2,8.1A3.1,3.1,0,1,1,126.1,5a3.1,3.1,0,0,1,3.1,3.1" transform="translate(-123 -5)" fill="#b3b3b3"/>
        <circle id="Elipse_4971" data-name="Elipse 4971" cx="3.099" cy="3.099" r="3.099" fill="none" stroke="#4d4d4d" stroke-linecap="round" stroke-linejoin="round" stroke-width="2"/>
        <path id="Trazado_114822" data-name="Trazado 114822" d="M137.866,8.1a3.1,3.1,0,1,1-3.1-3.1,3.1,3.1,0,0,1,3.1,3.1" transform="translate(-122.713 -5)" fill="#b3b3b3"/>
        <circle id="Elipse_4972" data-name="Elipse 4972" cx="3.099" cy="3.099" r="3.099" transform="translate(8.954)" fill="none" stroke="#4d4d4d" stroke-linecap="round" stroke-linejoin="round" stroke-width="2"/>
        <path id="Trazado_114823" data-name="Trazado 114823" d="M146.532,8.1a3.1,3.1,0,1,1-3.1-3.1,3.1,3.1,0,0,1,3.1,3.1" transform="translate(-122.425 -5)" fill="#b3b3b3"/>
        <circle id="Elipse_4973" data-name="Elipse 4973" cx="3.099" cy="3.099" r="3.099" transform="translate(17.908)" fill="none" stroke="#4d4d4d" stroke-linecap="round" stroke-linejoin="round" stroke-width="2"/>
        <path id="Trazado_114824" data-name="Trazado 114824" d="M155.2,8.1A3.1,3.1,0,1,1,152.1,5a3.1,3.1,0,0,1,3.1,3.1" transform="translate(-122.138 -5)" fill="#b3b3b3"/>
        <circle id="Elipse_4974" data-name="Elipse 4974" cx="3.099" cy="3.099" r="3.099" transform="translate(26.862)" fill="none" stroke="#4d4d4d" stroke-linecap="round" stroke-linejoin="round" stroke-width="2"/>
        <path id="Trazado_114825" data-name="Trazado 114825" d="M129.2,17.1a3.1,3.1,0,1,1-3.1-3.1,3.1,3.1,0,0,1,3.1,3.1" transform="translate(-123 -4.702)" fill="#b3b3b3"/>
        <circle id="Elipse_4975" data-name="Elipse 4975" cx="3.099" cy="3.099" r="3.099" transform="translate(0 9.298)" fill="none" stroke="#4d4d4d" stroke-linecap="round" stroke-linejoin="round" stroke-width="2"/>
        <path id="Trazado_114826" data-name="Trazado 114826" d="M137.866,17.1a3.1,3.1,0,1,1-3.1-3.1,3.1,3.1,0,0,1,3.1,3.1" transform="translate(-122.713 -4.702)" fill="#b3b3b3"/>
        <circle id="Elipse_4976" data-name="Elipse 4976" cx="3.099" cy="3.099" r="3.099" transform="translate(8.954 9.298)" fill="none" stroke="#4d4d4d" stroke-linecap="round" stroke-linejoin="round" stroke-width="2"/>
        <path id="Trazado_114827" data-name="Trazado 114827" d="M146.532,17.1a3.1,3.1,0,1,1-3.1-3.1,3.1,3.1,0,0,1,3.1,3.1" transform="translate(-122.425 -4.702)" fill="#b3b3b3"/>
        <circle id="Elipse_4977" data-name="Elipse 4977" cx="3.099" cy="3.099" r="3.099" transform="translate(17.908 9.298)" fill="none" stroke="#4d4d4d" stroke-linecap="round" stroke-linejoin="round" stroke-width="2"/>
        <path id="Trazado_114828" data-name="Trazado 114828" d="M155.2,17.1a3.1,3.1,0,1,1-3.1-3.1,3.1,3.1,0,0,1,3.1,3.1" transform="translate(-122.138 -4.702)" fill="#b3b3b3"/>
        <circle id="Elipse_4978" data-name="Elipse 4978" cx="3.099" cy="3.099" r="3.099" transform="translate(26.862 9.298)" fill="none" stroke="#4d4d4d" stroke-linecap="round" stroke-linejoin="round" stroke-width="2"/>
        <path id="Trazado_114829" data-name="Trazado 114829" d="M129.2,26.1a3.1,3.1,0,1,1-3.1-3.1,3.1,3.1,0,0,1,3.1,3.1" transform="translate(-123 -4.403)" fill="#b3b3b3"/>
        <circle id="Elipse_4979" data-name="Elipse 4979" cx="3.099" cy="3.099" r="3.099" transform="translate(0 18.597)" fill="none" stroke="#4d4d4d" stroke-linecap="round" stroke-linejoin="round" stroke-width="2"/>
        <path id="Trazado_114830" data-name="Trazado 114830" d="M137.866,26.1a3.1,3.1,0,1,1-3.1-3.1,3.1,3.1,0,0,1,3.1,3.1" transform="translate(-122.713 -4.403)" fill="#b3b3b3"/>
        <circle id="Elipse_4980" data-name="Elipse 4980" cx="3.099" cy="3.099" r="3.099" transform="translate(8.954 18.597)" fill="none" stroke="#4d4d4d" stroke-linecap="round" stroke-linejoin="round" stroke-width="2"/>
        <path id="Trazado_114831" data-name="Trazado 114831" d="M146.532,26.1a3.1,3.1,0,1,1-3.1-3.1,3.1,3.1,0,0,1,3.1,3.1" transform="translate(-122.425 -4.403)" fill="red"/>
        <circle id="Elipse_4981" data-name="Elipse 4981" cx="3.099" cy="3.099" r="3.099" transform="translate(17.908 18.597)" fill="#ff4747" stroke="red" stroke-linecap="round" stroke-linejoin="round" stroke-width="2"/>
        <path id="Trazado_114832" data-name="Trazado 114832" d="M155.2,26.1a3.1,3.1,0,1,1-3.1-3.1,3.1,3.1,0,0,1,3.1,3.1" transform="translate(-122.138 -4.403)" fill="#ff4747"/>
        <circle id="Elipse_4982" data-name="Elipse 4982" cx="3.099" cy="3.099" r="3.099" transform="translate(26.862 18.597)" fill="none" stroke="red" stroke-linecap="round" stroke-linejoin="round" stroke-width="2"/>
        <path id="Trazado_114833" data-name="Trazado 114833" d="M129.2,35.1a3.1,3.1,0,1,1-3.1-3.1,3.1,3.1,0,0,1,3.1,3.1" transform="translate(-123 -4.105)" fill="#b3b3b3"/>
        <circle id="Elipse_4983" data-name="Elipse 4983" cx="3.099" cy="3.099" r="3.099" transform="translate(0 27.895)" fill="none" stroke="#4d4d4d" stroke-linecap="round" stroke-linejoin="round" stroke-width="2"/>
        <path id="Trazado_114834" data-name="Trazado 114834" d="M137.866,35.1a3.1,3.1,0,1,1-3.1-3.1,3.1,3.1,0,0,1,3.1,3.1" transform="translate(-122.713 -4.105)" fill="#b3b3b3"/>
        <circle id="Elipse_4984" data-name="Elipse 4984" cx="3.099" cy="3.099" r="3.099" transform="translate(8.954 27.895)" fill="none" stroke="#4d4d4d" stroke-linecap="round" stroke-linejoin="round" stroke-width="2"/>
        <path id="Trazado_114835" data-name="Trazado 114835" d="M146.532,35.1a3.1,3.1,0,1,1-3.1-3.1,3.1,3.1,0,0,1,3.1,3.1" transform="translate(-122.425 -4.105)" fill="red"/>
        <circle id="Elipse_4985" data-name="Elipse 4985" cx="3.099" cy="3.099" r="3.099" transform="translate(17.908 27.895)" fill="#ff4747" stroke="red" stroke-linecap="round" stroke-linejoin="round" stroke-width="2"/>
        <path id="Trazado_114836" data-name="Trazado 114836" d="M155.2,35.1a3.1,3.1,0,1,1-3.1-3.1,3.1,3.1,0,0,1,3.1,3.1" transform="translate(-122.138 -4.105)" fill="#ff4747"/>
        <circle id="Elipse_4986" data-name="Elipse 4986" cx="3.099" cy="3.099" r="3.099" transform="translate(26.862 27.895)" fill="none" stroke="red" stroke-linecap="round" stroke-linejoin="round" stroke-width="2"/>
        <path id="Trazado_114837" data-name="Trazado 114837" d="M146.532,44.1a3.1,3.1,0,1,1-3.1-3.1,3.1,3.1,0,0,1,3.1,3.1" transform="translate(-122.425 -3.807)" fill="#b3b3b3"/>
        <circle id="Elipse_4987" data-name="Elipse 4987" cx="3.099" cy="3.099" r="3.099" transform="translate(17.908 37.193)" fill="none" stroke="#4d4d4d" stroke-linecap="round" stroke-linejoin="round" stroke-width="2"/>
        <path id="Trazado_114838" data-name="Trazado 114838" d="M155.2,44.1a3.1,3.1,0,1,1-3.1-3.1,3.1,3.1,0,0,1,3.1,3.1" transform="translate(-122.138 -3.807)" fill="#b3b3b3"/>
        <circle id="Elipse_4988" data-name="Elipse 4988" cx="3.099" cy="3.099" r="3.099" transform="translate(26.862 37.193)" fill="none" stroke="#4d4d4d" stroke-linecap="round" stroke-linejoin="round" stroke-width="2"/>
        <path id="Trazado_114839" data-name="Trazado 114839" d="M164.2,26.1a3.1,3.1,0,1,1-3.1-3.1,3.1,3.1,0,0,1,3.1,3.1" transform="translate(-121.84 -4.403)" fill="#b3b3b3"/>
        <circle id="Elipse_4989" data-name="Elipse 4989" cx="3.099" cy="3.099" r="3.099" transform="translate(36.16 18.597)" fill="none" stroke="#4d4d4d" stroke-linecap="round" stroke-linejoin="round" stroke-width="2"/>
        <path id="Trazado_114840" data-name="Trazado 114840" d="M164.2,35.1a3.1,3.1,0,1,1-3.1-3.1,3.1,3.1,0,0,1,3.1,3.1" transform="translate(-121.84 -4.105)" fill="#b3b3b3"/>
        <circle id="Elipse_4990" data-name="Elipse 4990" cx="3.099" cy="3.099" r="3.099" transform="translate(36.16 27.895)" fill="none" stroke="#4d4d4d" stroke-linecap="round" stroke-linejoin="round" stroke-width="2"/>
        <path id="Trazado_114841" data-name="Trazado 114841" d="M164.2,44.1a3.1,3.1,0,1,1-3.1-3.1,3.1,3.1,0,0,1,3.1,3.1" transform="translate(-121.84 -3.807)" fill="#b3b3b3"/>
        <circle id="Elipse_4991" data-name="Elipse 4991" cx="3.099" cy="3.099" r="3.099" transform="translate(36.16 37.193)" fill="none" stroke="#4d4d4d" stroke-linecap="round" stroke-linejoin="round" stroke-width="2"/>
      </g>
      <rect id="Rectángulo_34613" data-name="Rectángulo 34613" width="15.497" height="15.497" transform="translate(772.779 2590.033)" fill="#e6e6e6"/>
      <rect id="Rectángulo_34614" data-name="Rectángulo 34614" width="15.497" height="15.497" transform="translate(772.779 2590.033)" fill="none" stroke="#000" stroke-linecap="round" stroke-linejoin="round" stroke-width="2"/>
      <rect id="Rectángulo_34615" data-name="Rectángulo 34615" width="15.497" height="15.497" transform="translate(750.05 2612.762)" fill="#ff0"/>
      <rect id="Rectángulo_34616" data-name="Rectángulo 34616" width="15.497" height="15.497" transform="translate(750.05 2612.762)" fill="none" stroke="#000" stroke-linecap="round" stroke-linejoin="round" stroke-width="2"/>
      <rect id="Rectángulo_34617" data-name="Rectángulo 34617" width="13.15" height="13.15" transform="translate(748.5 2598.815) rotate(-45)" fill="none" stroke="#000" stroke-linecap="round" stroke-linejoin="round" stroke-width="2"/>
      <path id="Trazado_114842" data-name="Trazado 114842" d="M109.03,35.265A8.265,8.265,0,1,1,100.765,27a8.266,8.266,0,0,1,8.265,8.265" transform="translate(679.762 2584.729)" fill="lime"/>
      <circle id="Elipse_4992" data-name="Elipse 4992" cx="8.5" cy="8.5" r="8.5" transform="translate(772 2611.696)" fill="none" stroke="#000" stroke-linecap="round" stroke-linejoin="round" stroke-width="2"/>
    </g>
    <g id="Grupo_109098" data-name="Grupo 109098" transform="translate(17 -487)">
      <path id="Trazado_114797" data-name="Trazado 114797" d="M76.519,90.312l23.513,11.553L85.068,121.511l-2.713-.336L73,94.743Z" transform="translate(717 2413.681)" fill="#999"/>
      <path id="Trazado_114798" data-name="Trazado 114798" d="M86.5,119.671,100.574,102l3.347,1.557,4.806,18.867Z" transform="translate(719.719 2416.036)" fill="#e6e6e6"/>
      <path id="Trazado_114799" data-name="Trazado 114799" d="M78.314,89.384c.824.831,28.457,15.249,28.457,15.249l1.188-25.873L88.149,77Z" transform="translate(718.07 2411)" fill="#ccc"/>
      <path id="Trazado_114800" data-name="Trazado 114800" d="M105.89,78.723v25.562l14.444,2.4,2.509-3.3L109.626,79.055Z" transform="translate(723.625 2411.347)" fill="gray"/>
      <path id="Trazado_114801" data-name="Trazado 114801" d="M107.939,118.559,104,103.3l14.438,1.438Z" transform="translate(723.245 2416.297)" fill="#999"/>
      <path id="Trazado_114806" data-name="Trazado 114806" d="M89.219,77l27.032,2.4,13.216,24.329L111.446,127.46l-29.091-3.6L73,97.424Z" transform="translate(717 2411)" fill="none" stroke="#000" stroke-linecap="round" stroke-linejoin="round" stroke-width="2"/>
      <path id="Trazado_114807" data-name="Trazado 114807" d="M111.931,100.216A13.216,13.216,0,1,1,98.716,87a13.216,13.216,0,0,1,13.216,13.216" transform="translate(719.518 2413.014)" fill="red"/>
      <path id="Trazado_114845" data-name="Trazado 114845" d="M102.033,107.2l-.922-2.517h-6.36l-.944,2.517H89l6.718-15.753h4.807l6.5,15.753Zm-5.978-5.933h3.821l-1.887-5.146Z" transform="translate(720.223 2413.909)" fill="#fff"/>
    </g>
    <g id="Grupo_109097" data-name="Grupo 109097" transform="translate(2.467 -762)">
      <path id="Trazado_114854" data-name="Trazado 114854" d="M0,119.021c0,3.878,8.288,7.021,18.511,7.021s18.511-3.143,18.511-7.021S28.734,112,18.511,112,0,115.143,0,119.021" transform="translate(679 2685.915)" fill="#ff9500"/>
      <path id="Trazado_114855" data-name="Trazado 114855" d="M31.461,111.814l-4.172-5.745s-6.383-1.277-8.936,1.277-3.83,10.213-8.936,7.66,0,7.66,14.658,7.66c8.321,0,7.386-10.851,7.386-10.851" transform="translate(681.072 2684.186)" fill="#d2e1f1"/>
      <path id="Trazado_114856" data-name="Trazado 114856" d="M31.461,111.814l-4.172-5.745s-6.383-1.277-8.936,1.277-3.83,10.213-8.936,7.66,0,7.66,14.658,7.66C32.4,122.665,31.461,111.814,31.461,111.814Z" transform="translate(681.072 2684.186)" fill="none" stroke="#000" stroke-linecap="round" stroke-linejoin="round" stroke-width="2"/>
      <path id="Trazado_114857" data-name="Trazado 114857" d="M53.638,92.106,48.532,87,23,111.255,27.172,117Z" transform="translate(685.362 2679)" fill="#afafaf"/>
      <path id="Trazado_114858" data-name="Trazado 114858" d="M53.638,92.106,48.532,87,23,111.255,27.172,117Z" transform="translate(685.362 2679)" fill="none" stroke="#000" stroke-linecap="round" stroke-linejoin="round" stroke-width="2"/>
    </g>
    <g id="Grupo_109099" data-name="Grupo 109099" transform="translate(28 -453)">
      <line id="Línea_189" data-name="Línea 189" y2="46.857" transform="translate(974.429 2456)" fill="none" stroke="#000" stroke-linecap="round" stroke-linejoin="round" stroke-width="2"/>
      <line id="Línea_190" data-name="Línea 190" x2="46.857" transform="translate(951 2479.429)" fill="none" stroke="#000" stroke-linecap="round" stroke-linejoin="round" stroke-width="2"/>
      <rect id="Rectángulo_34609" data-name="Rectángulo 34609" width="39" height="39" transform="translate(898.929 2459.929)" fill="#e6e6e6"/>
      <rect id="Rectángulo_34610" data-name="Rectángulo 34610" width="39" height="39" transform="translate(898.929 2459.929)" fill="none" stroke="red" stroke-linecap="round" stroke-linejoin="round" stroke-width="2"/>
      <line id="Línea_191" data-name="Línea 191" y1="1.789" x2="1.746" transform="translate(952.429 2499.211)" fill="none" stroke="red" stroke-linecap="round" stroke-linejoin="round" stroke-width="2"/>
      <line id="Línea_192" data-name="Línea 192" y1="2.693" x2="2.627" transform="translate(954.175 2496.518)" fill="none" stroke="red" stroke-linecap="round" stroke-linejoin="round" stroke-width="2" stroke-dasharray="0 4.762"/>
      <line id="Línea_193" data-name="Línea 193" y1="34.084" x2="33.254" transform="translate(957.5 2461.719)" fill="none" stroke="red" stroke-linecap="round" stroke-linejoin="round" stroke-width="2" stroke-dasharray="4.762 0 0 4.762"/>
      <line id="Línea_194" data-name="Línea 194" y1="1.79" x2="1.746" transform="translate(990.754 2459.928)" fill="none" stroke="red" stroke-linecap="round" stroke-linejoin="round" stroke-width="2"/>
      <line id="Línea_195" data-name="Línea 195" y2="26.857" transform="translate(1019.429 2466)" fill="none" stroke="#000" stroke-linecap="round" stroke-linejoin="round" stroke-width="2"/>
      <line id="Línea_196" data-name="Línea 196" x2="26.857" transform="translate(1006 2479.429)" fill="none" stroke="#000" stroke-linecap="round" stroke-linejoin="round" stroke-width="2"/>
      <path id="Trazado_114815" data-name="Trazado 114815" d="M323,24a7,7,0,1,1-7-7,7,7,0,0,1,7,7" transform="translate(703.429 2455)" fill="#ff4747"/>
      <circle id="Elipse_4970" data-name="Elipse 4970" cx="7" cy="7" r="7" transform="translate(1012.429 2472)" fill="none" stroke="red" stroke-linecap="round" stroke-linejoin="round" stroke-width="2"/>
      <line id="Línea_201" data-name="Línea 201" y2="46.857" transform="translate(918.429 2456)" fill="none" stroke="#000" stroke-linecap="round" stroke-linejoin="round" stroke-width="2"/>
      <line id="Línea_202" data-name="Línea 202" x2="46.857" transform="translate(895 2479.429)" fill="none" stroke="#000" stroke-linecap="round" stroke-linejoin="round" stroke-width="2"/>
    </g>
    <g id="Grupo_109100" data-name="Grupo 109100" transform="translate(-44.242 -110.337)">
      <rect id="Rectángulo_34613-2" data-name="Rectángulo 34613" width="19.402" height="19.402" transform="translate(1195.698 2113.337)" fill="#e6e6e6"/>
      <rect id="Rectángulo_34614-2" data-name="Rectángulo 34614" width="19.402" height="19.402" transform="translate(1195.698 2113.337)" fill="none" stroke="#000" stroke-linecap="round" stroke-linejoin="round" stroke-width="2"/>
      <rect id="Rectángulo_34615-2" data-name="Rectángulo 34615" width="19.402" height="19.402" transform="translate(1167.242 2141.793)" fill="#ff0"/>
      <rect id="Rectángulo_34620" data-name="Rectángulo 34620" width="19.402" height="19.402" transform="translate(1167.242 2113.337)" fill="red"/>
      <rect id="Rectángulo_34616-2" data-name="Rectángulo 34616" width="19.402" height="19.402" transform="translate(1167.242 2141.793)" fill="none" stroke="#000" stroke-linecap="round" stroke-linejoin="round" stroke-width="2"/>
      <rect id="Rectángulo_34619" data-name="Rectángulo 34619" width="19.402" height="19.402" transform="translate(1167.242 2113.337)" fill="none" stroke="#000" stroke-linecap="round" stroke-linejoin="round" stroke-width="2"/>
      <path id="Trazado_114842-2" data-name="Trazado 114842" d="M113.2,37.348A10.348,10.348,0,1,1,102.848,27,10.348,10.348,0,0,1,113.2,37.348" transform="translate(1102.551 2113.5)" fill="lime"/>
      <circle id="Elipse_4992-2" data-name="Elipse 4992" cx="10.642" cy="10.642" r="10.642" transform="translate(1194.722 2140.458)" fill="none" stroke="#000" stroke-linecap="round" stroke-linejoin="round" stroke-width="2"/>
      <rect id="Rectángulo_34621" data-name="Rectángulo 34621" width="14.394" height="14.394" transform="translate(1169.746 2115.841)" fill="#ff4747"/>
    </g>
    <path id="Trazado_114232-7" data-name="Trazado 114232" d="M25,0A25,25,0,1,1,0,25,25,25,0,0,1,25,0Z" transform="translate(518 2222)" fill="#30586c"/>
    <text id="_7" data-name="7" transform="translate(543 2260)" fill="#fff" font-size="33" font-family="Roboto-Black, Roboto" font-weight="800"><tspan x="-9.555" y="0">7</tspan></text>
    <path id="Trazado_114232-8" data-name="Trazado 114232" d="M25,0A25,25,0,1,1,0,25,25,25,0,0,1,25,0Z" transform="translate(645 2222)" fill="#30586c"/>
    <text id="_8" data-name="8" transform="translate(670 2260)" fill="#fff" font-size="33" font-family="Roboto-Black, Roboto" font-weight="800"><tspan x="-9.555" y="0">8</tspan></text>
    <g id="Grupo_109103" data-name="Grupo 109103" transform="translate(46 73.857)">
      <line id="Línea_184" data-name="Línea 184" y2="52.047" transform="translate(611.35 2078.143)" fill="#fff"/>
      <line id="Línea_185" data-name="Línea 185" y2="52.047" transform="translate(611.35 2078.143)" fill="none" stroke="#000" stroke-linecap="round" stroke-linejoin="round" stroke-width="2"/>
      <line id="Línea_186" data-name="Línea 186" x2="50.75" transform="translate(600 2116.732)" fill="#fff"/>
      <line id="Línea_187" data-name="Línea 187" x2="50.75" transform="translate(600 2116.732)" fill="none" stroke="#000" stroke-linecap="round" stroke-linejoin="round" stroke-width="2"/>
      <path id="Trazado_114804" data-name="Trazado 114804" d="M159,88l14.755,31.78,17.514-17.025Z" transform="translate(446.675 2002.627)" fill="#ff4747"/>
      <path id="Trazado_114805" data-name="Trazado 114805" d="M159,88l14.755,31.78,17.514-17.025Z" transform="translate(446.675 2002.627)" fill="none" stroke="red" stroke-linecap="round" stroke-linejoin="round" stroke-width="2"/>
      <path id="Trazado_114808" data-name="Trazado 114808" d="M171,109.375l9.08-3.4,19.295-19.295L193.7,81,174.4,100.295Z" transform="translate(448.295 2001.682)" fill="#e8e8e8" stroke="#000" stroke-linecap="round" stroke-linejoin="round" stroke-width="2"/>
      <path id="Trazado_114819" data-name="Trazado 114819" d="M173,101.311l3.112,3.406L171,106.633Z" transform="translate(448.295 2004.424)" fill="#727997" stroke="#000" stroke-linecap="round" stroke-linejoin="round" stroke-width="2"/>
      <path id="Trazado_114820" data-name="Trazado 114820" d="M175.5,98.592l5.472,5.878,17.8-17.8L193.092,81Z" transform="translate(448.902 2001.682)" fill="#b0c0d2" stroke="#000" stroke-linecap="round" stroke-linejoin="round" stroke-width="2"/>
    </g>
    <path id="Trazado_114232-9" data-name="Trazado 114232" d="M25,0A25,25,0,1,1,0,25,25,25,0,0,1,25,0Z" transform="translate(773 2222)" fill="#255065"/>
    <text id="_9" data-name="9" transform="translate(798 2260)" fill="#fff" font-size="33" font-family="Roboto-Black, Roboto" font-weight="800"><tspan x="-9.555" y="0">9</tspan></text>
    <g id="Grupo_109105" data-name="Grupo 109105" transform="translate(67 -122)">
      <line id="Línea_188" data-name="Línea 188" y2="56.25" transform="translate(733.125 2272)" fill="none" stroke="#000" stroke-linecap="round" stroke-linejoin="round" stroke-width="2"/>
      <path id="Trazado_114816" data-name="Trazado 114816" d="M236,120l-11-7.268L237,80s4.25-7.768,16.125-7.768" transform="translate(480 2204)" fill="none" stroke="#000" stroke-linecap="round" stroke-linejoin="round" stroke-width="2"/>
      <path id="Trazado_114817" data-name="Trazado 114817" d="M258,81v31.25L269.732,120l-9-37Z" transform="translate(480 2204)" fill="none" stroke="#000" stroke-linecap="round" stroke-linejoin="round" stroke-width="2"/>
      <path id="Trazado_114818" data-name="Trazado 114818" d="M269.732,120l11-7.268L268.732,80s-4.25-7.768-16.125-7.768" transform="translate(480 2204)" fill="none" stroke="#000" stroke-linecap="round" stroke-linejoin="round" stroke-width="2"/>
      <line id="Línea_197" data-name="Línea 197" x2="10.268" transform="translate(727.732 2312.071)" fill="none" stroke="#000" stroke-linecap="round" stroke-linejoin="round" stroke-width="2"/>
      <line id="Línea_198" data-name="Línea 198" x2="10.268" transform="translate(727.732 2285)" fill="none" stroke="#000" stroke-linecap="round" stroke-linejoin="round" stroke-width="2"/>
      <path id="Trazado_114852" data-name="Trazado 114852" d="M247.732,81v31.25L236,120l9-37Z" transform="translate(480 2204)" fill="#ff4747"/>
      <path id="Trazado_114853" data-name="Trazado 114853" d="M247.732,81v31.25L236,120l9-37Z" transform="translate(480 2204)" fill="none" stroke="red" stroke-linecap="round" stroke-linejoin="round" stroke-width="2"/>
    </g>
    <path id="Trazado_114232-10" data-name="Trazado 114232" d="M25,0A25,25,0,1,1,0,25,25,25,0,0,1,25,0Z" transform="translate(1031 2222)" fill="#255065"/>
    <text id="_11" data-name="11" transform="translate(1056 2260)" fill="#fff" font-size="33" font-family="Roboto-Black, Roboto" font-weight="800"><tspan x="-19.11" y="0">11</tspan></text>
    <path id="Trazado_114232-11" data-name="Trazado 114232" d="M25,0A25,25,0,1,1,0,25,25,25,0,0,1,25,0Z" transform="translate(901 2222)" fill="#255065"/>
    <text id="_10" data-name="10" transform="translate(926 2260)" fill="#fff" font-size="33" font-family="Roboto-Black, Roboto" font-weight="800"><tspan x="-19.11" y="0">10</tspan></text>
    <g id="Grupo_109109" data-name="Grupo 109109" transform="translate(-125.206 2.908)">
      <g id="Grupo_109108" data-name="Grupo 109108" transform="translate(1028.206 2150.092)">
        <g id="Grupo_109090" data-name="Grupo 109090" transform="translate(0 0)" clip-path="url(#clip-path)">
          <rect id="Rectángulo_34612" data-name="Rectángulo 34612" width="69.206" height="69.206" transform="translate(-24.051 19.405) rotate(-38.897)" fill="url(#linear-gradient)"/>
        </g>
      </g>
      <path id="Trazado_114859" data-name="Trazado 114859" d="M178.622,234.215H135V193.948L145.067,185h39.148v42.5Z" transform="translate(894.324 1965.092)" fill="none" stroke="#000" stroke-linecap="round" stroke-linejoin="round" stroke-width="2"/>
      <path id="Trazado_114860" data-name="Trazado 114860" d="M139,193h37.13v33.52" transform="translate(894.798 1966.04)" fill="none" stroke="#fff" stroke-linecap="round" stroke-linejoin="round" stroke-width="2"/>
    </g>
    <g id="Grupo_109110" data-name="Grupo 109110" transform="translate(199.012 -136)">
      <path id="Trazado_114795" data-name="Trazado 114795" d="M87.232,185.06,75.988,207.9l10.1,22.711,22.809,5.551,16.929-24.3-15.8-22.675Z" transform="translate(756 2103.025)" fill="#ff9500"/>
      <path id="Trazado_114843" data-name="Trazado 114843" d="M107.469,188l-4.982,31.262L82.357,203.6Z" transform="translate(758.696 2104.27)" fill="none" stroke="#f60" stroke-linecap="round" stroke-linejoin="round" stroke-width="2"/>
      <path id="Trazado_114844" data-name="Trazado 114844" d="M108.737,230.329l-3.558-15.708L85.963,224.636l-.915-25.674L76,201.863" transform="translate(756.005 2108.911)" fill="none" stroke="#f60" stroke-linecap="round" stroke-linejoin="round" stroke-width="2"/>
      <line id="Línea_199" data-name="Línea 199" x1="2.339" y2="19.873" transform="translate(841.053 2288)" fill="none" stroke="#f60" stroke-linecap="round" stroke-linejoin="round" stroke-width="2"/>
      <line id="Línea_200" data-name="Línea 200" x1="20.638" y2="8.489" transform="translate(861.183 2315.043)" fill="none" stroke="#f60" stroke-linecap="round" stroke-linejoin="round" stroke-width="2"/>
      <path id="Trazado_114796" data-name="Trazado 114796" d="M87.232,185.06,75.988,207.9l10.1,22.711,22.809,5.551,16.929-24.3-15.8-22.675Z" transform="translate(756 2103.025)" fill="none" stroke="#000" stroke-linecap="round" stroke-linejoin="round" stroke-width="2"/>
    </g>
    <g id="Grupo_109111" data-name="Grupo 109111" transform="translate(-68 -7382)">
      <g id="Elipse_4777" data-name="Elipse 4777" transform="translate(510 9452)" fill="#fff" stroke="#ff9500" stroke-width="2">
        <circle cx="11" cy="11" r="11" stroke="none"/>
        <circle cx="11" cy="11" r="10" fill="none"/>
      </g>
      <g id="Elipse_4778" data-name="Elipse 4778" transform="translate(513 9455)" fill="#ff9500" stroke="#ff9500" stroke-width="1">
        <circle cx="8" cy="8" r="8" stroke="none"/>
        <circle cx="8" cy="8" r="7.5" fill="none"/>
      </g>
    </g>
    <g id="Grupo_109112" data-name="Grupo 109112" transform="translate(59 -7382)">
      <g id="Elipse_4777-2" data-name="Elipse 4777" transform="translate(510 9452)" fill="#fff" stroke="#ff9500" stroke-width="2">
        <circle cx="11" cy="11" r="11" stroke="none"/>
        <circle cx="11" cy="11" r="10" fill="none"/>
      </g>
      <g id="Elipse_4778-2" data-name="Elipse 4778" transform="translate(513 9455)" fill="#ff9500" stroke="#ff9500" stroke-width="1">
        <circle cx="8" cy="8" r="8" stroke="none"/>
        <circle cx="8" cy="8" r="7.5" fill="none"/>
      </g>
    </g>
    <g id="Grupo_109113" data-name="Grupo 109113" transform="translate(187 -7382)">
      <g id="Elipse_4777-3" data-name="Elipse 4777" transform="translate(510 9452)" fill="#fff" stroke="#ff9500" stroke-width="2">
        <circle cx="11" cy="11" r="11" stroke="none"/>
        <circle cx="11" cy="11" r="10" fill="none"/>
      </g>
      <g id="Elipse_4778-3" data-name="Elipse 4778" transform="translate(513 9455)" fill="#ff9500" stroke="#ff9500" stroke-width="1">
        <circle cx="8" cy="8" r="8" stroke="none"/>
        <circle cx="8" cy="8" r="7.5" fill="none"/>
      </g>
    </g>
    <g id="Grupo_109114" data-name="Grupo 109114" transform="translate(315 -7382)">
      <g id="Elipse_4777-4" data-name="Elipse 4777" transform="translate(510 9452)" fill="#fff" stroke="#ff9500" stroke-width="2">
        <circle cx="11" cy="11" r="11" stroke="none"/>
        <circle cx="11" cy="11" r="10" fill="none"/>
      </g>
      <g id="Elipse_4778-4" data-name="Elipse 4778" transform="translate(513 9455)" fill="#ff9500" stroke="#ff9500" stroke-width="1">
        <circle cx="8" cy="8" r="8" stroke="none"/>
        <circle cx="8" cy="8" r="7.5" fill="none"/>
      </g>
    </g>
    <g id="Grupo_109115" data-name="Grupo 109115" transform="translate(471 -7382)">
      <g id="Elipse_4777-5" data-name="Elipse 4777" transform="translate(510 9452)" fill="#fff" stroke="#ff9500" stroke-width="2">
        <circle cx="11" cy="11" r="11" stroke="none"/>
        <circle cx="11" cy="11" r="10" fill="none"/>
      </g>
      <g id="Elipse_4778-5" data-name="Elipse 4778" transform="translate(513 9455)" fill="#ff9500" stroke="#ff9500" stroke-width="1">
        <circle cx="8" cy="8" r="8" stroke="none"/>
        <circle cx="8" cy="8" r="7.5" fill="none"/>
      </g>
    </g>
    <g id="Grupo_109116" data-name="Grupo 109116" transform="translate(626 -7382)">
      <g id="Elipse_4777-6" data-name="Elipse 4777" transform="translate(510 9452)" fill="#fff" stroke="#ff9500" stroke-width="2">
        <circle cx="11" cy="11" r="11" stroke="none"/>
        <circle cx="11" cy="11" r="10" fill="none"/>
      </g>
      <g id="Elipse_4778-6" data-name="Elipse 4778" transform="translate(513 9455)" fill="#ff9500" stroke="#ff9500" stroke-width="1">
        <circle cx="8" cy="8" r="8" stroke="none"/>
        <circle cx="8" cy="8" r="7.5" fill="none"/>
      </g>
    </g>
    <g id="Grupo_109117" data-name="Grupo 109117" transform="translate(535 -7339)">
      <g id="Elipse_4777-7" data-name="Elipse 4777" transform="translate(510 9452)" fill="#fff" stroke="#ff9500" stroke-width="2">
        <circle cx="11" cy="11" r="11" stroke="none"/>
        <circle cx="11" cy="11" r="10" fill="none"/>
      </g>
      <g id="Elipse_4778-7" data-name="Elipse 4778" transform="translate(513 9455)" fill="#ff9500" stroke="#ff9500" stroke-width="1">
        <circle cx="8" cy="8" r="8" stroke="none"/>
        <circle cx="8" cy="8" r="7.5" fill="none"/>
      </g>
    </g>
    <g id="Grupo_109118" data-name="Grupo 109118" transform="translate(407 -7339)">
      <g id="Elipse_4777-8" data-name="Elipse 4777" transform="translate(510 9452)" fill="#fff" stroke="#ff9500" stroke-width="2">
        <circle cx="11" cy="11" r="11" stroke="none"/>
        <circle cx="11" cy="11" r="10" fill="none"/>
      </g>
      <g id="Elipse_4778-8" data-name="Elipse 4778" transform="translate(513 9455)" fill="#ff9500" stroke="#ff9500" stroke-width="1">
        <circle cx="8" cy="8" r="8" stroke="none"/>
        <circle cx="8" cy="8" r="7.5" fill="none"/>
      </g>
    </g>
    <g id="Grupo_109119" data-name="Grupo 109119" transform="translate(279 -7339)">
      <g id="Elipse_4777-9" data-name="Elipse 4777" transform="translate(510 9452)" fill="#fff" stroke="#ff9500" stroke-width="2">
        <circle cx="11" cy="11" r="11" stroke="none"/>
        <circle cx="11" cy="11" r="10" fill="none"/>
      </g>
      <g id="Elipse_4778-9" data-name="Elipse 4778" transform="translate(513 9455)" fill="#ff9500" stroke="#ff9500" stroke-width="1">
        <circle cx="8" cy="8" r="8" stroke="none"/>
        <circle cx="8" cy="8" r="7.5" fill="none"/>
      </g>
    </g>
    <g id="Grupo_109120" data-name="Grupo 109120" transform="translate(150 -7339)">
      <g id="Elipse_4777-10" data-name="Elipse 4777" transform="translate(510 9452)" fill="#fff" stroke="#ff9500" stroke-width="2">
        <circle cx="11" cy="11" r="11" stroke="none"/>
        <circle cx="11" cy="11" r="10" fill="none"/>
      </g>
      <g id="Elipse_4778-10" data-name="Elipse 4778" transform="translate(513 9455)" fill="#ff9500" stroke="#ff9500" stroke-width="1">
        <circle cx="8" cy="8" r="8" stroke="none"/>
        <circle cx="8" cy="8" r="7.5" fill="none"/>
      </g>
    </g>
    <g id="Grupo_109121" data-name="Grupo 109121" transform="translate(23 -7339)">
      <g id="Elipse_4777-11" data-name="Elipse 4777" transform="translate(510 9452)" fill="#fff" stroke="#ff9500" stroke-width="2">
        <circle cx="11" cy="11" r="11" stroke="none"/>
        <circle cx="11" cy="11" r="10" fill="none"/>
      </g>
      <g id="Elipse_4778-11" data-name="Elipse 4778" transform="translate(513 9455)" fill="#ff9500" stroke="#ff9500" stroke-width="1">
        <circle cx="8" cy="8" r="8" stroke="none"/>
        <circle cx="8" cy="8" r="7.5" fill="none"/>
      </g>
    </g>
    <path id="Trazado_114861" data-name="Trazado 114861" d="M-1.725-15.752h3.3v2.8h-3.3v3.787H-4.776v-3.787H-8.089v-2.8h3.313v-3.681h3.051Z" transform="translate(456.422 2095.299)" fill="#12263f"/>
    <path id="Trazado_114862" data-name="Trazado 114862" d="M-1.725-15.752h3.3v2.8h-3.3v3.787H-4.776v-3.787H-8.089v-2.8h3.313v-3.681h3.051Z" transform="translate(583.089 2095.299)" fill="#12263f"/>
    <path id="Trazado_114863" data-name="Trazado 114863" d="M-1.725-15.752h3.3v2.8h-3.3v3.787H-4.776v-3.787H-8.089v-2.8h3.313v-3.681h3.051Z" transform="translate(711.089 2095.299)" fill="#12263f"/>
    <path id="Trazado_114864" data-name="Trazado 114864" d="M-1.725-15.752h3.3v2.8h-3.3v3.787H-4.776v-3.787H-8.089v-2.8h3.313v-3.681h3.051Z" transform="translate(839.089 2095.299)" fill="#12263f"/>
    <path id="Trazado_114865" data-name="Trazado 114865" d="M-1.725-15.752h3.3v2.8h-3.3v3.787H-4.776v-3.787H-8.089v-2.8h3.313v-3.681h3.051Z" transform="translate(995.089 2095.299)" fill="#12263f"/>
    <path id="Trazado_114866" data-name="Trazado 114866" d="M-1.725-15.752h3.3v2.8h-3.3v3.787H-4.776v-3.787H-8.089v-2.8h3.313v-3.681h3.051Z" transform="translate(1150.089 2095.299)" fill="#12263f"/>
    <path id="Trazado_114867" data-name="Trazado 114867" d="M-1.725-15.752h3.3v2.8h-3.3v3.787H-4.776v-3.787H-8.089v-2.8h3.313v-3.681h3.051Z" transform="translate(1059.089 2138.299)" fill="#12263f"/>
    <path id="Trazado_114868" data-name="Trazado 114868" d="M-1.725-15.752h3.3v2.8h-3.3v3.787H-4.776v-3.787H-8.089v-2.8h3.313v-3.681h3.051Z" transform="translate(931.089 2138.299)" fill="#12263f"/>
    <path id="Trazado_114869" data-name="Trazado 114869" d="M-1.725-15.752h3.3v2.8h-3.3v3.787H-4.776v-3.787H-8.089v-2.8h3.313v-3.681h3.051Z" transform="translate(803.089 2138.299)" fill="#12263f"/>
    <path id="Trazado_114870" data-name="Trazado 114870" d="M-1.725-15.752h3.3v2.8h-3.3v3.787H-4.776v-3.787H-8.089v-2.8h3.313v-3.681h3.051Z" transform="translate(674.089 2138.299)" fill="#12263f"/>
    <path id="Trazado_114871" data-name="Trazado 114871" d="M-1.725-15.752h3.3v2.8h-3.3v3.787H-4.776v-3.787H-8.089v-2.8h3.313v-3.681h3.051Z" transform="translate(547.089 2138.299)" fill="#12263f"/>
    <g id="Grupo_109169" data-name="Grupo 109169" transform="translate(-5.764 -3.909)">
      <path id="Trazado_114847" data-name="Trazado 114847" d="M234.07,219.223c0,2.885-5.612,5.223-12.535,5.223S209,222.108,209,219.223,214.611,214,221.535,214s12.535,2.338,12.535,5.223" transform="translate(307 1989.085)" fill="#ff9500"/>
      <path id="Trazado_114848" data-name="Trazado 114848" d="M240.713,219.149c0,1.922-3.742,3.483-8.357,3.483S224,221.071,224,219.149s3.742-3.483,8.357-3.483,8.357,1.561,8.357,3.483" transform="translate(323.337 1990.899)" fill="#ff9500"/>
      <path id="Trazado_114849" data-name="Trazado 114849" d="M219.465,221.9h-2.108l-2.62-2.62,2.62-18.29,2.108,2.108,2.089,16.713Z" transform="translate(313.248 1974.916)" fill="#ff9500"/>
      <path id="Trazado_114850" data-name="Trazado 114850" d="M258.513,198.759H221.021l-4.235,4.235.447,2.536h5.446l21.3,21.3,21.3-21.7Z" transform="translate(315.48 1972.485)" fill="#ff9500"/>
      <path id="Trazado_114851" data-name="Trazado 114851" d="M217.233,215.3h5.446l21.3,21.3,21.3-21.3-25.517-25.517-22.981,22.981Z" transform="translate(315.48 1962.712)" fill="none" stroke="#000" stroke-linecap="round" stroke-linejoin="round" stroke-width="2"/>
    </g>
  </g>
</svg>
