<svg xmlns="http://www.w3.org/2000/svg" width="196" height="202.5" viewBox="0 0 196 202.5">
  <g id="Grupo_109249" data-name="Grupo 109249" transform="translate(-2661 9265)">
    <g id="Grupo_109127" data-name="Grupo 109127" transform="translate(2677 -9249)" opacity="0.95" style="isolation: isolate">
      <rect id="Rectángulo_34187" data-name="Rectángulo 34187" width="164.357" height="164.357" rx="11.5" fill="#dee4f0"/>
    </g>
    <g id="Grupo_109129" data-name="Grupo 109129" transform="translate(2661 -9265)">
      <ellipse id="Elipse_4857" data-name="Elipse 4857" cx="19.5" cy="20" rx="19.5" ry="20" transform="translate(196 40) rotate(180)" fill="#ff9500" opacity="0.8" style="mix-blend-mode: multiply;isolation: isolate"/>
      <circle id="Elipse_4858" data-name="Elipse 4858" cx="32.412" cy="32.412" r="32.412" transform="translate(64.825 202.5) rotate(180)" fill="#0ca4ca" style="mix-blend-mode: multiply;isolation: isolate"/>
    </g>
    <g id="Grupo_109160" data-name="Grupo 109160" transform="translate(1943 -11787.514)">
      <path id="Trazado_114802" data-name="Trazado 114802" d="M69.5,14.5H96.251L82.876,27.876Z" transform="translate(679 2588.619)" fill="red"/>
      <path id="Trazado_114803" data-name="Trazado 114803" d="M82.876,5.5,69.5,18.876H96.251Z" transform="translate(679 2584.243)" fill="#ff4747"/>
      <g id="Grupo_109095" data-name="Grupo 109095" transform="translate(822.066 2589)">
        <path id="Trazado_114821" data-name="Trazado 114821" d="M131.917,9.459A4.459,4.459,0,1,1,127.459,5a4.458,4.458,0,0,1,4.459,4.459" transform="translate(-123 -5)" fill="#b3b3b3"/>
        <circle id="Elipse_4971" data-name="Elipse 4971" cx="4.459" cy="4.459" r="4.459" fill="none" stroke="#4d4d4d" stroke-linecap="round" stroke-linejoin="round" stroke-width="2"/>
        <path id="Trazado_114822" data-name="Trazado 114822" d="M140.584,9.459A4.459,4.459,0,1,1,136.126,5a4.458,4.458,0,0,1,4.459,4.459" transform="translate(-118.786 -5)" fill="#b3b3b3"/>
        <circle id="Elipse_4972" data-name="Elipse 4972" cx="4.459" cy="4.459" r="4.459" transform="translate(12.88)" fill="none" stroke="#4d4d4d" stroke-linecap="round" stroke-linejoin="round" stroke-width="2"/>
        <path id="Trazado_114823" data-name="Trazado 114823" d="M149.25,9.459A4.459,4.459,0,1,1,144.792,5a4.458,4.458,0,0,1,4.459,4.459" transform="translate(-114.573 -5)" fill="#b3b3b3"/>
        <circle id="Elipse_4973" data-name="Elipse 4973" cx="4.459" cy="4.459" r="4.459" transform="translate(25.761)" fill="none" stroke="#4d4d4d" stroke-linecap="round" stroke-linejoin="round" stroke-width="2"/>
        <path id="Trazado_114824" data-name="Trazado 114824" d="M157.917,9.459A4.459,4.459,0,1,1,153.459,5a4.458,4.458,0,0,1,4.459,4.459" transform="translate(-110.359 -5)" fill="#b3b3b3"/>
        <circle id="Elipse_4974" data-name="Elipse 4974" cx="4.459" cy="4.459" r="4.459" transform="translate(38.641)" fill="none" stroke="#4d4d4d" stroke-linecap="round" stroke-linejoin="round" stroke-width="2"/>
        <path id="Trazado_114825" data-name="Trazado 114825" d="M131.917,18.459A4.459,4.459,0,1,1,127.459,14a4.458,4.458,0,0,1,4.459,4.459" transform="translate(-123 -0.624)" fill="#b3b3b3"/>
        <circle id="Elipse_4975" data-name="Elipse 4975" cx="4.459" cy="4.459" r="4.459" transform="translate(0 13.376)" fill="none" stroke="#4d4d4d" stroke-linecap="round" stroke-linejoin="round" stroke-width="2"/>
        <path id="Trazado_114826" data-name="Trazado 114826" d="M140.584,18.459A4.459,4.459,0,1,1,136.126,14a4.458,4.458,0,0,1,4.459,4.459" transform="translate(-118.786 -0.624)" fill="#b3b3b3"/>
        <circle id="Elipse_4976" data-name="Elipse 4976" cx="4.459" cy="4.459" r="4.459" transform="translate(12.88 13.376)" fill="none" stroke="#4d4d4d" stroke-linecap="round" stroke-linejoin="round" stroke-width="2"/>
        <path id="Trazado_114827" data-name="Trazado 114827" d="M149.25,18.459A4.459,4.459,0,1,1,144.792,14a4.458,4.458,0,0,1,4.459,4.459" transform="translate(-114.573 -0.624)" fill="#b3b3b3"/>
        <circle id="Elipse_4977" data-name="Elipse 4977" cx="4.459" cy="4.459" r="4.459" transform="translate(25.761 13.376)" fill="none" stroke="#4d4d4d" stroke-linecap="round" stroke-linejoin="round" stroke-width="2"/>
        <path id="Trazado_114828" data-name="Trazado 114828" d="M157.917,18.459A4.459,4.459,0,1,1,153.459,14a4.458,4.458,0,0,1,4.459,4.459" transform="translate(-110.359 -0.624)" fill="#b3b3b3"/>
        <circle id="Elipse_4978" data-name="Elipse 4978" cx="4.459" cy="4.459" r="4.459" transform="translate(38.641 13.376)" fill="none" stroke="#4d4d4d" stroke-linecap="round" stroke-linejoin="round" stroke-width="2"/>
        <path id="Trazado_114829" data-name="Trazado 114829" d="M131.917,27.459A4.459,4.459,0,1,1,127.459,23a4.458,4.458,0,0,1,4.459,4.459" transform="translate(-123 3.751)" fill="#b3b3b3"/>
        <circle id="Elipse_4979" data-name="Elipse 4979" cx="4.459" cy="4.459" r="4.459" transform="translate(0 26.751)" fill="none" stroke="#4d4d4d" stroke-linecap="round" stroke-linejoin="round" stroke-width="2"/>
        <path id="Trazado_114830" data-name="Trazado 114830" d="M140.584,27.459A4.459,4.459,0,1,1,136.126,23a4.458,4.458,0,0,1,4.459,4.459" transform="translate(-118.786 3.751)" fill="#b3b3b3"/>
        <circle id="Elipse_4980" data-name="Elipse 4980" cx="4.459" cy="4.459" r="4.459" transform="translate(12.88 26.751)" fill="none" stroke="#4d4d4d" stroke-linecap="round" stroke-linejoin="round" stroke-width="2"/>
        <path id="Trazado_114831" data-name="Trazado 114831" d="M149.25,27.459A4.459,4.459,0,1,1,144.792,23a4.458,4.458,0,0,1,4.459,4.459" transform="translate(-114.573 3.751)" fill="red"/>
        <circle id="Elipse_4981" data-name="Elipse 4981" cx="4.459" cy="4.459" r="4.459" transform="translate(25.761 26.751)" fill="#ff4747" stroke="red" stroke-linecap="round" stroke-linejoin="round" stroke-width="2"/>
        <path id="Trazado_114832" data-name="Trazado 114832" d="M157.917,27.459A4.459,4.459,0,1,1,153.459,23a4.458,4.458,0,0,1,4.459,4.459" transform="translate(-110.359 3.751)" fill="#ff4747"/>
        <circle id="Elipse_4982" data-name="Elipse 4982" cx="4.459" cy="4.459" r="4.459" transform="translate(38.641 26.751)" fill="none" stroke="red" stroke-linecap="round" stroke-linejoin="round" stroke-width="2"/>
        <path id="Trazado_114833" data-name="Trazado 114833" d="M131.917,36.459A4.459,4.459,0,1,1,127.459,32a4.458,4.458,0,0,1,4.459,4.459" transform="translate(-123 8.127)" fill="#b3b3b3"/>
        <circle id="Elipse_4983" data-name="Elipse 4983" cx="4.459" cy="4.459" r="4.459" transform="translate(0 40.127)" fill="none" stroke="#4d4d4d" stroke-linecap="round" stroke-linejoin="round" stroke-width="2"/>
        <path id="Trazado_114834" data-name="Trazado 114834" d="M140.584,36.459A4.459,4.459,0,1,1,136.126,32a4.458,4.458,0,0,1,4.459,4.459" transform="translate(-118.786 8.127)" fill="#b3b3b3"/>
        <circle id="Elipse_4984" data-name="Elipse 4984" cx="4.459" cy="4.459" r="4.459" transform="translate(12.88 40.127)" fill="none" stroke="#4d4d4d" stroke-linecap="round" stroke-linejoin="round" stroke-width="2"/>
        <path id="Trazado_114835" data-name="Trazado 114835" d="M149.25,36.459A4.459,4.459,0,1,1,144.792,32a4.458,4.458,0,0,1,4.459,4.459" transform="translate(-114.573 8.127)" fill="red"/>
        <circle id="Elipse_4985" data-name="Elipse 4985" cx="4.459" cy="4.459" r="4.459" transform="translate(25.761 40.127)" fill="#ff4747" stroke="red" stroke-linecap="round" stroke-linejoin="round" stroke-width="2"/>
        <path id="Trazado_114836" data-name="Trazado 114836" d="M157.917,36.459A4.459,4.459,0,1,1,153.459,32a4.458,4.458,0,0,1,4.459,4.459" transform="translate(-110.359 8.127)" fill="#ff4747"/>
        <circle id="Elipse_4986" data-name="Elipse 4986" cx="4.459" cy="4.459" r="4.459" transform="translate(38.641 40.127)" fill="none" stroke="red" stroke-linecap="round" stroke-linejoin="round" stroke-width="2"/>
        <path id="Trazado_114837" data-name="Trazado 114837" d="M149.25,45.459A4.459,4.459,0,1,1,144.792,41a4.458,4.458,0,0,1,4.459,4.459" transform="translate(-114.573 12.503)" fill="#b3b3b3"/>
        <circle id="Elipse_4987" data-name="Elipse 4987" cx="4.459" cy="4.459" r="4.459" transform="translate(25.761 53.503)" fill="none" stroke="#4d4d4d" stroke-linecap="round" stroke-linejoin="round" stroke-width="2"/>
        <path id="Trazado_114838" data-name="Trazado 114838" d="M157.917,45.459A4.459,4.459,0,1,1,153.459,41a4.458,4.458,0,0,1,4.459,4.459" transform="translate(-110.359 12.503)" fill="#b3b3b3"/>
        <circle id="Elipse_4988" data-name="Elipse 4988" cx="4.459" cy="4.459" r="4.459" transform="translate(38.641 53.503)" fill="none" stroke="#4d4d4d" stroke-linecap="round" stroke-linejoin="round" stroke-width="2"/>
        <path id="Trazado_114839" data-name="Trazado 114839" d="M166.917,27.459A4.459,4.459,0,1,1,162.459,23a4.458,4.458,0,0,1,4.459,4.459" transform="translate(-105.983 3.751)" fill="#b3b3b3"/>
        <circle id="Elipse_4989" data-name="Elipse 4989" cx="4.459" cy="4.459" r="4.459" transform="translate(52.017 26.751)" fill="none" stroke="#4d4d4d" stroke-linecap="round" stroke-linejoin="round" stroke-width="2"/>
        <path id="Trazado_114840" data-name="Trazado 114840" d="M166.917,36.459A4.459,4.459,0,1,1,162.459,32a4.458,4.458,0,0,1,4.459,4.459" transform="translate(-105.983 8.127)" fill="#b3b3b3"/>
        <circle id="Elipse_4990" data-name="Elipse 4990" cx="4.459" cy="4.459" r="4.459" transform="translate(52.017 40.127)" fill="none" stroke="#4d4d4d" stroke-linecap="round" stroke-linejoin="round" stroke-width="2"/>
        <path id="Trazado_114841" data-name="Trazado 114841" d="M166.917,45.459A4.459,4.459,0,1,1,162.459,41a4.458,4.458,0,0,1,4.459,4.459" transform="translate(-105.983 12.503)" fill="#b3b3b3"/>
        <circle id="Elipse_4991" data-name="Elipse 4991" cx="4.459" cy="4.459" r="4.459" transform="translate(52.017 53.503)" fill="none" stroke="#4d4d4d" stroke-linecap="round" stroke-linejoin="round" stroke-width="2"/>
      </g>
      <rect id="Rectángulo_34613" data-name="Rectángulo 34613" width="22.293" height="22.293" transform="translate(783.425 2590.486)" fill="#e6e6e6"/>
      <rect id="Rectángulo_34614" data-name="Rectángulo 34614" width="22.293" height="22.293" transform="translate(783.425 2590.486)" fill="none" stroke="#000" stroke-linecap="round" stroke-linejoin="round" stroke-width="2"/>
      <rect id="Rectángulo_34615" data-name="Rectángulo 34615" width="22.293" height="22.293" transform="translate(750.729 2623.182)" fill="#ff0"/>
      <rect id="Rectángulo_34616" data-name="Rectángulo 34616" width="22.293" height="22.293" transform="translate(750.729 2623.182)" fill="none" stroke="#000" stroke-linecap="round" stroke-linejoin="round" stroke-width="2"/>
      <rect id="Rectángulo_34617" data-name="Rectángulo 34617" width="18.916" height="18.916" transform="translate(748.5 2603.119) rotate(-45)" fill="none" stroke="#000" stroke-linecap="round" stroke-linejoin="round" stroke-width="2"/>
      <path id="Trazado_114842" data-name="Trazado 114842" d="M116.279,38.89A11.89,11.89,0,1,1,104.39,27a11.89,11.89,0,0,1,11.89,11.89" transform="translate(690.182 2594.696)" fill="lime"/>
      <circle id="Elipse_4992" data-name="Elipse 4992" cx="12.227" cy="12.227" r="12.227" transform="translate(782.305 2621.648)" fill="none" stroke="#000" stroke-linecap="round" stroke-linejoin="round" stroke-width="2"/>
    </g>
  </g>
</svg>
