<svg xmlns="http://www.w3.org/2000/svg" width="196" height="202.5" viewBox="0 0 196 202.5">
  <g id="Grupo_109255" data-name="Grupo 109255" transform="translate(-2661 7093)">
    <g id="Grupo_109150" data-name="Grupo 109150" transform="translate(2677 -7077)" opacity="0.95" style="isolation: isolate">
      <rect id="Rectángulo_34187" data-name="Rectángulo 34187" width="164.357" height="164.357" rx="11.5" fill="#dee4f0"/>
    </g>
    <g id="Grupo_109149" data-name="Grupo 109149" transform="translate(2661 -7093)">
      <ellipse id="Elipse_4857" data-name="Elipse 4857" cx="19.5" cy="20" rx="19.5" ry="20" transform="translate(196 40) rotate(180)" fill="#ff9500" opacity="0.8" style="mix-blend-mode: multiply;isolation: isolate"/>
      <circle id="Elipse_4858" data-name="Elipse 4858" cx="32.412" cy="32.412" r="32.412" transform="translate(64.825 202.5) rotate(180)" fill="#0ca4ca" style="mix-blend-mode: multiply;isolation: isolate"/>
    </g>
    <g id="Grupo_109168" data-name="Grupo 109168" transform="translate(2114.992 -9118.381)">
      <line id="Línea_184" data-name="Línea 184" y2="90.5" transform="translate(619.735 2078.143)" fill="#fff"/>
      <line id="Línea_185" data-name="Línea 185" y2="90.5" transform="translate(619.735 2078.143)" fill="none" stroke="#000" stroke-linecap="round" stroke-linejoin="round" stroke-width="2"/>
      <line id="Línea_186" data-name="Línea 186" x2="88.244" transform="translate(600 2145.242)" fill="#fff"/>
      <line id="Línea_187" data-name="Línea 187" x2="88.244" transform="translate(600 2145.242)" fill="none" stroke="#000" stroke-linecap="round" stroke-linejoin="round" stroke-width="2"/>
      <path id="Trazado_114804" data-name="Trazado 114804" d="M159,88l25.656,55.259,30.454-29.6Z" transform="translate(450.868 2011.851)" fill="#ff4747"/>
      <path id="Trazado_114805" data-name="Trazado 114805" d="M159,88l25.656,55.259,30.454-29.6Z" transform="translate(450.868 2011.851)" fill="none" stroke="red" stroke-linecap="round" stroke-linejoin="round" stroke-width="2"/>
      <path id="Trazado_114808" data-name="Trazado 114808" d="M171,130.338l15.788-5.921,33.55-33.55L210.471,81l-33.55,33.55Z" transform="translate(462.55 2005.037)" fill="#e8e8e8" stroke="#000" stroke-linecap="round" stroke-linejoin="round" stroke-width="2"/>
      <path id="Trazado_114819" data-name="Trazado 114819" d="M174.47,101.311l5.411,5.923L171,110.565Z" transform="translate(462.55 2024.81)" fill="#727997" stroke="#000" stroke-linecap="round" stroke-linejoin="round" stroke-width="2"/>
      <path id="Trazado_114820" data-name="Trazado 114820" d="M175.5,111.59l9.514,10.221,30.943-30.943L206.09,81Z" transform="translate(466.931 2005.037)" fill="#b0c0d2" stroke="#000" stroke-linecap="round" stroke-linejoin="round" stroke-width="2"/>
    </g>
  </g>
</svg>
