<svg xmlns="http://www.w3.org/2000/svg" width="196" height="202.5" viewBox="0 0 196 202.5">
  <g id="Grupo_109256" data-name="Grupo 109256" transform="translate(-2661 6731)">
    <g id="Grupo_109153" data-name="Grupo 109153" transform="translate(2677 -6715)" opacity="0.95" style="isolation: isolate">
      <rect id="Rectángulo_34187" data-name="Rectángulo 34187" width="164.357" height="164.357" rx="11.5" fill="#dee4f0"/>
    </g>
    <g id="Grupo_109152" data-name="Grupo 109152" transform="translate(2661 -6731)">
      <ellipse id="Elipse_4857" data-name="Elipse 4857" cx="19.5" cy="20" rx="19.5" ry="20" transform="translate(196 40) rotate(180)" fill="#ff9500" opacity="0.8" style="mix-blend-mode: multiply;isolation: isolate"/>
      <circle id="Elipse_4858" data-name="Elipse 4858" cx="32.412" cy="32.412" r="32.412" transform="translate(64.825 202.5) rotate(180)" fill="#0ca4ca" style="mix-blend-mode: multiply;isolation: isolate"/>
    </g>
    <g id="Grupo_109167" data-name="Grupo 109167" transform="translate(2011 -8948.14)">
      <line id="Línea_188" data-name="Línea 188" y2="86.529" transform="translate(748.265 2272)" fill="none" stroke="#000" stroke-linecap="round" stroke-linejoin="round" stroke-width="2"/>
      <path id="Trazado_114816" data-name="Trazado 114816" d="M241.921,145.713,225,134.533l18.46-50.351s6.538-11.949,24.8-11.949" transform="translate(480 2206.278)" fill="none" stroke="#000" stroke-linecap="round" stroke-linejoin="round" stroke-width="2"/>
      <path id="Trazado_114817" data-name="Trazado 114817" d="M258,81v48.072l18.047,11.922L262.2,84.077Z" transform="translate(497.764 2210.998)" fill="none" stroke="#000" stroke-linecap="round" stroke-linejoin="round" stroke-width="2"/>
      <path id="Trazado_114818" data-name="Trazado 114818" d="M278.95,145.713l16.921-11.18-18.46-50.351s-6.538-11.949-24.805-11.949" transform="translate(494.861 2206.278)" fill="none" stroke="#000" stroke-linecap="round" stroke-linejoin="round" stroke-width="2"/>
      <line id="Línea_197" data-name="Línea 197" x2="15.795" transform="translate(739.969 2333.641)" fill="none" stroke="#000" stroke-linecap="round" stroke-linejoin="round" stroke-width="2"/>
      <line id="Línea_198" data-name="Línea 198" x2="15.795" transform="translate(739.969 2291.998)" fill="none" stroke="#000" stroke-linecap="round" stroke-linejoin="round" stroke-width="2"/>
      <path id="Trazado_114852" data-name="Trazado 114852" d="M254.047,81v48.072L236,140.993l13.845-56.917Z" transform="translate(485.921 2210.998)" fill="#ff4747"/>
      <path id="Trazado_114853" data-name="Trazado 114853" d="M254.047,81v48.072L236,140.993l13.845-56.917Z" transform="translate(485.921 2210.998)" fill="none" stroke="red" stroke-linecap="round" stroke-linejoin="round" stroke-width="2"/>
    </g>
  </g>
</svg>
