<svg xmlns="http://www.w3.org/2000/svg" width="160.687" height="109.999" viewBox="0 0 160.687 109.999">
  <g id="Grupo_109218" data-name="Grupo 109218" transform="translate(11547.403 12732.483)">
    <path id="Trazado_114894" data-name="Trazado 114894" d="M322.137,998.778h47.536v81.42a11.178,11.178,0,0,1-11.179,11.178H220.569A11.179,11.179,0,0,1,209.39,1080.2v-81.42Z" transform="translate(-11756.39 -13713.861)" fill="#e8e8e8"/>
    <path id="Trazado_114945" data-name="Trazado 114945" d="M209.39,856.239a6.469,6.469,0,0,1,6.27-6.651H363.4a6.469,6.469,0,0,1,6.27,6.651v10.7H209.39Z" transform="translate(-11756.793 -13582.071)" fill="#ff9500"/>
    <g id="Grupo_109214" data-name="Grupo 109214" transform="translate(-14846 -355.098)">
      <g id="Grupo_108319" data-name="Grupo 108319" transform="translate(3312 -12332.984)">
        <g id="_4d4d4dff" data-name="#4d4d4dff" transform="translate(20.376)">
          <path id="Trazado_114250" data-name="Trazado 114250" d="M148.919,189.919c.332-.09.726-.345,1.026-.044q4.143,3.107,8.247,6.263a18.316,18.316,0,0,1,6.632,10.948c.576,3.087,1.054,6.192,1.617,9.28a2.972,2.972,0,0,1-.189,2.08,1.577,1.577,0,0,1-2,.55c-3.992-1.782-7.972-3.594-11.962-5.383a5.93,5.93,0,0,1-2.245-1.452,4.6,4.6,0,0,1-1.006-3.138c-.038-1.785.061-3.576-.11-5.356-.04-3.714-.035-7.427-.123-11.141a6.889,6.889,0,0,1,.114-2.608m5.567,8.622c-.038,1.479.225,2.946.273,4.423.185,1.961.277,3.932.478,5.891.139.748.957.993,1.531,1.331,1.6.8,3.114,1.763,4.769,2.443a18.3,18.3,0,0,0-.269-2.755,19.594,19.594,0,0,0-1.871-6.865,12.123,12.123,0,0,0-4.254-4.188A3.089,3.089,0,0,0,154.485,198.542Z" transform="translate(-148.736 -189.733)" fill="#4d4d4d"/>
        </g>
        <path id="Trazado_114251" data-name="Trazado 114251" d="M54.181,190.394a.818.818,0,0,1,1.276.7c-.147,3.67-.1,7.35-.17,11.024a26.811,26.811,0,0,1-.07,2.924c-.082,1.657.005,3.318-.07,4.973a4.388,4.388,0,0,1-2.434,3.675Q47.1,216.2,41.495,218.741a6.76,6.76,0,0,1-2.585.874,2.037,2.037,0,0,1-1.285-2.359c.161-.654.165-1.518.847-1.871,2.152-1.14,4.3-2.291,6.458-3.426,1.206-.7,2.515-1.228,3.671-2.016.486-.306.423-.926.484-1.421a5.665,5.665,0,0,0,.035-1.419c-.053-.28-.372-.18-.546-.092-2.2,1.272-4.41,2.52-6.6,3.8a2.952,2.952,0,0,1-1.532.609,9.49,9.49,0,0,1,.218-2.335,2.571,2.571,0,0,1,1.034-2.031c2.37-1.536,4.764-3.039,7.127-4.586a1.715,1.715,0,0,0,.794-1.646c-.046-.6.253-1.287-.031-1.835a2.1,2.1,0,0,0-.86.438c-2.238,1.556-4.5,3.083-6.749,4.619a13.182,13.182,0,0,1-1.554,1.028c-.335.139-.614-.293-.6-.585a8.612,8.612,0,0,1,3.01-5.482Q48.5,194.7,54.181,190.394Z" transform="translate(-37.572 -190.139)" fill="gray"/>
        <path id="Trazado_114265" data-name="Trazado 114265" d="M66.764,329.559a10.087,10.087,0,0,1,8.188.018c3.512,1.435,7.031,2.852,10.543,4.289.29.147.788.3.643.728a5.914,5.914,0,0,1-1.6.515,7.593,7.593,0,0,1-4.348.332c-3.07-1.03-6.1-2.185-9.183-3.175a2.926,2.926,0,0,0-2.484.346c.037.062.11.185.148.246,2.225.812,4.509,1.47,6.733,2.295.779.346,1.743.766,1.97,1.677.174.779-.592,1.305-1.256,1.457a29.855,29.855,0,0,1-4.559.957,14.977,14.977,0,0,1-4.592-.68c-3.668-.929-7.328-1.888-11-2.8a2.82,2.82,0,0,1-.905-.4,2.4,2.4,0,0,1,1.457-.905,5.628,5.628,0,0,1,3.1-.209c3.195.863,6.36,1.833,9.563,2.663a3.271,3.271,0,0,0,2.359-.264,2.762,2.762,0,0,0-.717-.376c-2.533-.77-5.077-1.5-7.607-2.277a1.792,1.792,0,0,1-1.307-1.235c-.125-.662.447-1.171.942-1.5A38.672,38.672,0,0,1,66.764,329.559Z" transform="translate(-51.855 -303.227)" fill="#1a1a1a"/>
      </g>
      <g id="Grupo_108320" data-name="Grupo 108320" transform="translate(3359.871 -12332.732)">
        <path id="Trazado_114269" data-name="Trazado 114269" d="M285.881,281.479c1.059-.01,2.118,0,3.176-.005a2.214,2.214,0,0,1,2.163,1.561,4.456,4.456,0,0,1,.092,1.312,1.583,1.583,0,0,1-1.059,1.527,1.345,1.345,0,0,1,.876.758,4.123,4.123,0,0,1,.184,1.743,2.228,2.228,0,0,1-2.059,2.187c-1.172.013-2.343,0-3.515.006,0-.453,0-.906,0-1.359,1.04,0,2.08,0,3.12,0a.931.931,0,0,0,.872-.966,2.6,2.6,0,0,0-.121-1.137,1.143,1.143,0,0,0-1.012-.61c-.714,0-1.428,0-2.142,0,0-.4,0-.806,0-1.209.713.007,1.426,0,2.139,0a1.137,1.137,0,0,0,1.047-.693,2.064,2.064,0,0,0,.085-.844.912.912,0,0,0-.863-.909c-.995-.006-1.989,0-2.984,0C285.882,282.384,285.884,281.931,285.881,281.479Z" transform="translate(-285.74 -281.467)" fill="#3a3a3c"/>
        <path id="Trazado_114270" data-name="Trazado 114270" d="M393.69,281.514c1.086,0,2.172,0,3.259,0a3.225,3.225,0,0,1,2.327.952,3.191,3.191,0,0,1,.75,2.119c0,.99,0,1.98,0,2.97a3.262,3.262,0,0,1-.7,2.053,2.894,2.894,0,0,1-1.646.915,7.337,7.337,0,0,1-1.528.083h-2.459q0-4.545,0-9.09m1.609,1.345c0,2.153-.009,4.305,0,6.457.526-.013,1.053,0,1.579-.007a1.532,1.532,0,0,0,1.118-.435,1.925,1.925,0,0,0,.419-1.249q0-1.521,0-3.041a1.929,1.929,0,0,0-.432-1.306,1.513,1.513,0,0,0-1.11-.419Q396.089,282.858,395.3,282.86Z" transform="translate(-386.56 -281.505)" fill="#3a3a3c"/>
        <path id="Trazado_114271" data-name="Trazado 114271" d="M550.609,282.01a3.254,3.254,0,0,1,1.886-.591c.868-.009,1.736.01,2.6-.009.034.473,0,.948.018,1.423-.875.034-1.75,0-2.626.018a1.571,1.571,0,0,0-1.106.462.973.973,0,0,0-.073,1.234,2.109,2.109,0,0,0,1.318.625,4.3,4.3,0,0,1,2.219.851,2.215,2.215,0,0,1,.766,1.437,2.805,2.805,0,0,1-.517,2.085,2.939,2.939,0,0,1-2.278.96c-.972,0-1.944,0-2.917,0,0-.475,0-.949,0-1.423.931,0,1.861,0,2.791,0a1.673,1.673,0,0,0,1.19-.429,1.105,1.105,0,0,0,.268-1.138,1.32,1.32,0,0,0-.71-.676c-.537-.261-1.152-.252-1.706-.46a2.924,2.924,0,0,1-1.92-1.668A2.5,2.5,0,0,1,550.609,282.01Z" transform="translate(-532.263 -281.409)" fill="#3a3a3c"/>
        <path id="Trazado_114272" data-name="Trazado 114272" d="M648.21,281.49c.526,0,1.053,0,1.579,0q.935,1.719,1.862,3.442c.039.051.057.18.15.141q.968-1.79,1.937-3.581c.527,0,1.055,0,1.583,0-.832,1.674-1.7,3.33-2.545,5a1.329,1.329,0,0,0-.223.578c.009,1.173,0,2.345,0,3.518-.531,0-1.061,0-1.592,0-.008-1.235.02-2.473-.013-3.705C650.05,285.078,649.106,283.3,648.21,281.49Z" transform="translate(-624.269 -281.484)" fill="#3a3a3c"/>
        <path id="Trazado_114273" data-name="Trazado 114273" d="M764.224,281.982a3.467,3.467,0,0,1,1.813-.472q1.255,0,2.51,0c0,.476,0,.952,0,1.429H766.1a1.783,1.783,0,0,0-1.155.352,1.006,1.006,0,0,0-.257,1.25,1.5,1.5,0,0,0,.812.583c.431.16.9.163,1.339.291a3.075,3.075,0,0,1,1.871,1.174,2.724,2.724,0,0,1,.314,1.97,2.331,2.331,0,0,1-.905,1.483,3.376,3.376,0,0,1-2.018.561c-.921-.006-1.843.01-2.765-.008,0-.47.007-.941,0-1.41.945-.017,1.89,0,2.834-.008a1.7,1.7,0,0,0,1.11-.382,1.093,1.093,0,0,0,.265-1.291,1.538,1.538,0,0,0-.826-.639c-.441-.174-.923-.19-1.372-.336a3.389,3.389,0,0,1-1.806-1.178A2.442,2.442,0,0,1,764.224,281.982Z" transform="translate(-731.605 -281.503)" fill="#3a3a3c"/>
        <path id="Trazado_114274" data-name="Trazado 114274" d="M867.22,282.769c.016-.456-.016-.913.017-1.369,1.948.02,3.9,0,5.844.011,0,.455,0,.911,0,1.366-.705,0-1.41,0-2.115,0-.014,2.572-.007,5.145,0,7.717-.532.015-1.063,0-1.594.007q0-3.861,0-7.721C868.65,282.772,867.935,282.79,867.22,282.769Z" transform="translate(-828.813 -281.4)" fill="#3a3a3c"/>
        <path id="Trazado_114275" data-name="Trazado 114275" d="M978.186,282.483a1.016,1.016,0,0,1,.98-1.018c1.4,0,2.8,0,4.193,0,.018.45,0,.9.013,1.35-1.135.044-2.275,0-3.411.022a.221.221,0,0,0-.192.248c-.005.73,0,1.461,0,2.192q1.388,0,2.776,0c.008.4,0,.8,0,1.207-.923,0-1.847.011-2.769-.007-.023.808,0,1.616-.011,2.424a.247.247,0,0,0,.247.3c1.168.007,2.338,0,3.506,0,0,.452,0,.9,0,1.356H979.23a1.032,1.032,0,0,1-.984-.682,1.791,1.791,0,0,1-.061-.652Q978.187,285.853,978.186,282.483Z" transform="translate(-932.449 -281.456)" fill="#3a3a3c"/>
        <path id="Trazado_114276" data-name="Trazado 114276" d="M1082.31,290.531c.02-3.026-.006-6.053.013-9.079.476.006.952,0,1.428,0,.885,1.82,1.732,3.66,2.63,5.475.888-1.82,1.739-3.659,2.631-5.478.475.011.95,0,1.426.006q0,4.546,0,9.091c-.476,0-.952,0-1.428,0,0-2.028.005-4.057,0-6.086-.723,1.512-1.438,3.029-2.173,4.536-.311-.013-.623.014-.933-.017q-1.052-2.249-2.141-4.482c-.015,2.016,0,4.032-.007,6.047C1083.27,290.538,1082.788,290.566,1082.31,290.531Z" transform="translate(-1029.697 -281.447)" fill="#3a3a3c"/>
        <path id="Trazado_114277" data-name="Trazado 114277" d="M1227.8,282.113a3.308,3.308,0,0,1,2.011-.6c.836,0,1.672-.006,2.509.006-.009.474,0,.948,0,1.422-.833.005-1.667,0-2.5,0a1.66,1.66,0,0,0-1.2.441.977.977,0,0,0-.07,1.292,2.135,2.135,0,0,0,1.265.59,4.788,4.788,0,0,1,1.979.653,2.249,2.249,0,0,1,.907,1.116,3.528,3.528,0,0,1,.091,1.179,2.128,2.128,0,0,1-.608,1.574,3.051,3.051,0,0,1-2.167.817c-.967,0-1.933,0-2.9,0,0-.474,0-.947,0-1.42.948-.01,1.9,0,2.845-.005a1.661,1.661,0,0,0,1.131-.421,1.074,1.074,0,0,0,.148-1.369,2.169,2.169,0,0,0-1.351-.685,5.225,5.225,0,0,1-1.348-.386,2.709,2.709,0,0,1-1.516-1.517A2.492,2.492,0,0,1,1227.8,282.113Z" transform="translate(-1164.741 -281.503)" fill="#3a3a3c"/>
      </g>
      <g id="Grupo_108318" data-name="Grupo 108318" transform="translate(3361.772 -12314.608)">
        <path id="Trazado_114252" data-name="Trazado 114252" d="M970.744,227.746a.974.974,0,0,1,1.082.2,1.521,1.521,0,0,1,.181,1.211.921.921,0,0,1-1.445.433c-.367-.323-.3-.849-.263-1.283a.727.727,0,0,1,.446-.56m-.2.391a2.413,2.413,0,0,0-.033,1.028c.094.393.538.4.863.422q.192-.181.388-.361a6.48,6.48,0,0,0,0-1.065c-.09-.089-.177-.177-.263-.265C971.166,227.873,970.732,227.792,970.539,228.138Z" transform="translate(-889.434 -227.504)" fill="gray"/>
        <path id="Trazado_114253" data-name="Trazado 114253" d="M973.68,231.186c.319-.035.728-.128.949.183.044.2-.1.346-.2.5.039.141.118.423.157.565-.31-.029-.368-.359-.515-.567-.06.21-.012.5-.26.6a3.523,3.523,0,0,1-.129-1.274m.334.193c0,.082,0,.248,0,.329l.273-.044c0-.06,0-.182,0-.243Z" transform="translate(-892.428 -230.554)" fill="gray"/>
        <path id="Trazado_114256" data-name="Trazado 114256" d="M308.785,227.907A5.4,5.4,0,0,1,313,226.3a5.222,5.222,0,0,1,3.921,1.522A3.959,3.959,0,0,1,318,229.784c-.65.218-1.282.488-1.94.679a2.942,2.942,0,0,0-2.1-1.89,3.43,3.43,0,0,0-2.889.633,3.716,3.716,0,0,0-.933,2.672c-.007,1.662,0,3.325,0,4.987a3.273,3.273,0,0,0,1,2.614,3.623,3.623,0,0,0,2.834.5,2.8,2.8,0,0,0,1.774-1.261c-.017-.889.006-1.778-.012-2.666-.66-.085-1.323.044-1.979-.05v-1.774c1.449,0,2.9,0,4.344,0,0,2.628,0,5.258,0,7.886-.733,0-1.465,0-2.2,0a10.958,10.958,0,0,0-.028-1.184,4.915,4.915,0,0,1-4.071,1.345,4.446,4.446,0,0,1-3.482-1.939,6.954,6.954,0,0,1-.878-3.937c.016-1.551-.024-3.1.022-4.651A5.841,5.841,0,0,1,308.785,227.907Z" transform="translate(-307.44 -226.297)" fill="#1a1a1a"/>
        <path id="Trazado_114257" data-name="Trazado 114257" d="M883.537,227.749c.738,0,1.477-.012,2.216.011-.011.845,0,1.69,0,2.535-.74-.007-1.479.012-2.218-.013C883.543,229.438,883.534,228.593,883.537,227.749Z" transform="translate(-813.272 -227.571)" fill="#1a1a1a"/>
        <path id="Trazado_114258" data-name="Trazado 114258" d="M800.872,257.07c.387.118.754.287,1.131.435a3.424,3.424,0,0,1-.846,1.87c-.091.132-.3.259-.21.445a5.021,5.021,0,0,1,.292,2.611,2.931,2.931,0,0,1-1.648,2.492,6.484,6.484,0,0,1-3.855.271c-.579-.232-1.254.588-.852,1.1a.989.989,0,0,0,.657.309,26.426,26.426,0,0,1,4.472.248,2.433,2.433,0,0,1,1.74,1.441,3.289,3.289,0,0,1-1.109,3.748,6.991,6.991,0,0,1-4.49.817,3.557,3.557,0,0,1-2.67-1.279,2.677,2.677,0,0,1,.467-3.317,2.047,2.047,0,0,1-1.085-2.032,2.407,2.407,0,0,1,1.349-1.729,4.537,4.537,0,0,1-.84-4.026,2.814,2.814,0,0,1,1.9-2.2,6.683,6.683,0,0,1,4.3.14,2.939,2.939,0,0,0,1.3-1.338m-4.151,2.656a1.264,1.264,0,0,0-1.029.652,3.89,3.89,0,0,0-.2,1.8,1.44,1.44,0,0,0,.694,1.346,3.451,3.451,0,0,0,1.917.046,1.334,1.334,0,0,0,.822-1.39,2.927,2.927,0,0,0-.411-2.109,2.362,2.362,0,0,0-1.789-.349m-1.554,10.753a1.717,1.717,0,0,0,1.593.794,3.931,3.931,0,0,0,2.639-.477c.471-.359.417-1.01.349-1.531a.953.953,0,0,0-.9-.609c-1.056-.109-2.121-.033-3.179-.06A1.709,1.709,0,0,0,795.167,270.479Z" transform="translate(-733.648 -253.318)" fill="#1a1a1a"/>
        <path id="Trazado_114259" data-name="Trazado 114259" d="M411.657,266.927a3.661,3.661,0,0,1,2.822-1.976,4.783,4.783,0,0,1,3.307.549,3.725,3.725,0,0,1,1.677,2.815c.111.826.038,1.66.071,2.49-1.957.038-3.915,0-5.872.02a5.673,5.673,0,0,0,.3,2.623,2.181,2.181,0,0,0,2.782.649,2.381,2.381,0,0,0,1.048-1.362,15.548,15.548,0,0,1,1.759.656,4,4,0,0,1-1.818,2.293,5.373,5.373,0,0,1-3.923.226,3.572,3.572,0,0,1-2.3-2.173,9.6,9.6,0,0,1-.281-3.238,8.017,8.017,0,0,1,.424-3.571m2.778-.03c-.838.509-.8,1.606-.771,2.462q1.857,0,3.716,0a3.54,3.54,0,0,0-.289-1.955A2.061,2.061,0,0,0,414.435,266.9Z" transform="translate(-398.571 -260.169)" fill="#1a1a1a"/>
        <path id="Trazado_114260" data-name="Trazado 114260" d="M496.109,264.7a5.031,5.031,0,0,1,3.711.933,3.732,3.732,0,0,1,1.279,2.729c.035.854,0,1.71.016,2.563a7.222,7.222,0,0,1-.251,2.543,3.584,3.584,0,0,1-2.131,2.139,5.771,5.771,0,0,1-4,0,3.556,3.556,0,0,1-2.028-1.92,7.472,7.472,0,0,1-.339-3c.013-.811-.033-1.623.032-2.432a3.742,3.742,0,0,1,1.189-2.522,4.264,4.264,0,0,1,2.524-1.029m-.207,1.915a1.929,1.929,0,0,0-1.1,1.868c-.018,1.181-.01,2.361,0,3.542a2.028,2.028,0,0,0,.979,1.912,2.121,2.121,0,0,0,2.64-.593,4.3,4.3,0,0,0,.334-2.165c-.018-.974.034-1.95-.033-2.922a1.829,1.829,0,0,0-1.018-1.611A2.7,2.7,0,0,0,495.9,266.612Z" transform="translate(-469.808 -259.984)" fill="#1a1a1a"/>
        <path id="Trazado_114261" data-name="Trazado 114261" d="M583.526,265.762a3.34,3.34,0,0,1,4.515-.85,3.626,3.626,0,0,1,.837.973,6.343,6.343,0,0,1,1.143-1.01,3.86,3.86,0,0,1,3.394-.206,3.147,3.147,0,0,1,1.668,2.4,29.394,29.394,0,0,1,.149,4.21c-.015,1.406.03,2.812-.023,4.217-.8-.017-1.59,0-2.384-.009,0-2.3,0-4.59,0-6.886a2.9,2.9,0,0,0-.427-1.72,1.636,1.636,0,0,0-2.043-.335,2.039,2.039,0,0,0-.849,1.8c-.022,2.39.01,4.781-.016,7.17-.794-.013-1.589.02-2.382-.02.032-2.016,0-4.032.013-6.048a7.6,7.6,0,0,0-.15-2.029,1.4,1.4,0,0,0-1.049-1.021,2,2,0,0,0-2.066,1.078,1.019,1.019,0,0,0-.081.51c.009,2.4,0,4.8.006,7.2-.013.078-.039.234-.051.311-.793.038-1.587,0-2.378.015q0-5.457,0-10.914c.71,0,1.418,0,2.128,0A7.287,7.287,0,0,0,583.526,265.762Z" transform="translate(-547.945 -259.726)" fill="#1a1a1a"/>
        <path id="Trazado_114262" data-name="Trazado 114262" d="M712.519,264.609a4.9,4.9,0,0,1,3.009.05,2.931,2.931,0,0,1,1.644,1.5,4.553,4.553,0,0,1,.4,1.974c.009,1.662,0,3.326,0,4.989a.951.951,0,0,0,.372.894,3.729,3.729,0,0,0,.692.1q0,.675,0,1.351a2.733,2.733,0,0,1-3.09-.789,4.281,4.281,0,0,1-3.792.9,2.635,2.635,0,0,1-1.817-1.476,3.71,3.71,0,0,1,.1-3.079,3.3,3.3,0,0,1,1.989-1.535,9.88,9.88,0,0,1,3.107-.318,5.394,5.394,0,0,0-.189-2.238,1.59,1.59,0,0,0-1.857-.656,2.94,2.94,0,0,0-1.629,1.45c-.455-.268-.916-.524-1.389-.757a4.138,4.138,0,0,1,2.456-2.36M712.5,271.3a1.826,1.826,0,0,0-.457,1.7,1.106,1.106,0,0,0,.756,1.013,2.36,2.36,0,0,0,2.073-.461c.162-.135.371-.289.332-.532,0-.743,0-1.485,0-2.227A4.442,4.442,0,0,0,712.5,271.3Z" transform="translate(-660.595 -259.75)" fill="#1a1a1a"/>
        <path id="Trazado_114263" data-name="Trazado 114263" d="M924.83,264.7a4.713,4.713,0,0,1,2.446.174,3.842,3.842,0,0,1,2.282,2.382c-.565.2-1.121.42-1.68.629a2.057,2.057,0,0,0-1.146-1.243,2.345,2.345,0,0,0-1.955.163,1.988,1.988,0,0,0-.77,1.754c0,1.222-.021,2.444.012,3.665a1.811,1.811,0,0,0,1.171,1.739,3.769,3.769,0,0,0,1.46.007,2.152,2.152,0,0,0,1.243-1.373c.576.181,1.128.429,1.7.613a3.715,3.715,0,0,1-2.3,2.453,4.933,4.933,0,0,1-3.476-.123,3.573,3.573,0,0,1-2.023-2.338,14.509,14.509,0,0,1-.184-3.3,6.8,6.8,0,0,1,.483-3.311A3.606,3.606,0,0,1,924.83,264.7Z" transform="translate(-846.703 -259.944)" fill="#1a1a1a"/>
        <path id="Trazado_114264" data-name="Trazado 114264" d="M882.6,266.233c.81-.023,1.62-.01,2.431-.009.006,3.632-.013,7.264.01,10.9-.816.023-1.634.034-2.449-.006C882.616,273.487,882.6,269.86,882.6,266.233Z" transform="translate(-812.447 -261.351)" fill="#1a1a1a"/>
      </g>
    </g>
  </g>
</svg>
