<svg xmlns="http://www.w3.org/2000/svg" xmlns:xlink="http://www.w3.org/1999/xlink" width="962" height="637" viewBox="0 0 962 637">
  <defs>
    <clipPath id="clip-path">
      <rect id="Rectángulo_34634" data-name="Rectángulo 34634" width="23.53" height="80.193" fill="#727997"/>
    </clipPath>
    <clipPath id="clip-path-2">
      <rect id="Rectángulo_34635" data-name="Rectángulo 34635" width="0.318" height="0.007" fill="none"/>
    </clipPath>
    <clipPath id="clip-path-3">
      <rect id="Rectángulo_34637" data-name="Rectángulo 34637" width="110.117" height="75.503" fill="none"/>
    </clipPath>
    <clipPath id="clip-path-4">
      <rect id="Rectángulo_34638" data-name="Rectángulo 34638" width="50.85" height="21.852" fill="none"/>
    </clipPath>
    <clipPath id="clip-path-5">
      <rect id="Rectángulo_34639" data-name="Rectángulo 34639" width="9.77" height="25.848" fill="none"/>
    </clipPath>
    <clipPath id="clip-path-6">
      <rect id="Rectángulo_34640" data-name="Rectángulo 34640" width="25.049" height="18.046" fill="none"/>
    </clipPath>
    <clipPath id="clip-path-7">
      <rect id="Rectángulo_34641" data-name="Rectángulo 34641" width="16.492" height="19.211" fill="none"/>
    </clipPath>
    <clipPath id="clip-path-8">
      <rect id="Rectángulo_34642" data-name="Rectángulo 34642" width="13.74" height="10.207" fill="none"/>
    </clipPath>
    <clipPath id="clip-path-9">
      <rect id="Rectángulo_34643" data-name="Rectángulo 34643" width="2.734" height="13.117" fill="none"/>
    </clipPath>
    <clipPath id="clip-path-10">
      <rect id="Rectángulo_34644" data-name="Rectángulo 34644" width="5.533" height="12.088" fill="none"/>
    </clipPath>
    <clipPath id="clip-path-11">
      <rect id="Rectángulo_34645" data-name="Rectángulo 34645" width="24.034" height="6.007" fill="none"/>
    </clipPath>
    <clipPath id="clip-path-12">
      <rect id="Rectángulo_34646" data-name="Rectángulo 34646" width="10.648" height="3.803" fill="none"/>
    </clipPath>
  </defs>
  <g id="Grupo_109228" data-name="Grupo 109228" transform="translate(15209.628 11214)">
    <g id="Grupo_109227" data-name="Grupo 109227" transform="translate(-15008.094 -11187.774)">
      <ellipse id="Elipse_5001" data-name="Elipse 5001" cx="297.336" cy="297.335" rx="297.336" ry="297.335" transform="translate(70.734)" fill="#0ca4ca"/>
      <g id="Grupo_109212" data-name="Grupo 109212" transform="translate(0 89.982)">
        <path id="Trazado_114900" data-name="Trazado 114900" d="M1308.161,1699.76l-2.448,38.884s120.347,1.255,134.433,0,43.176.853,38.287-31.354c-2.254-14.89-29.44-136.725-42.247-156.791-9.08-14.24-45.856-27.209-70.586-33.546-.791-.2-1.573-.4-2.34-.588-9.033-2.231-16.161-3.494-19.252-3.494-11.52,0-51.869-11.412-67.232-8.9-1.285.209-2.951.534-4.919.969-.883.186-1.828.4-2.827.627-23.335,5.4-76.869,21.221-82.494,31.136-6.4,11.288-48.654,156.791-48.654,156.791Z" transform="translate(-941.364 -1321.906)" fill="#f3f9ff"/>
        <rect id="Rectángulo_34633" data-name="Rectángulo 34633" width="145.772" height="2.168" transform="matrix(-1, -0.001, 0.001, -1, 444.165, 301.842)" fill="#ff9500"/>
        <path id="Trazado_114901" data-name="Trazado 114901" d="M1628.155,2235.907v2.17h146.967l-.333-2.17Z" transform="translate(-1326.505 -1921.273)" fill="#ff9500"/>
        <path id="Trazado_114902" data-name="Trazado 114902" d="M1615.436,2319.471v2.169h146.03l-.333-2.169Z" transform="translate(-1310.54 -1989.666)" fill="#ff9500"/>
        <g id="Grupo_109172" data-name="Grupo 109172" transform="translate(430.527 272.313)" opacity="0.88">
          <g id="Grupo_109171" data-name="Grupo 109171">
            <g id="Grupo_109170" data-name="Grupo 109170" clip-path="url(#clip-path)">
              <path id="Trazado_114903" data-name="Trazado 114903" d="M1598.194,2082.949h23.529l-3.13-20.53-.334-2.169-1.976-13-.333-2.17-6.453-42.323c1.867,17.741,2.394,31.562,2.061,42.323-.023.737-.046,1.457-.078,2.17a128.09,128.09,0,0,1-1.162,13c-.108.751-.216,1.471-.341,2.169-3.246,18.965-10.227,20.445-11.783,20.53" transform="translate(-1598.194 -2002.757)" fill="#727997"/>
            </g>
          </g>
        </g>
        <g id="Grupo_109175" data-name="Grupo 109175" transform="translate(430.209 352.505)" opacity="0.88">
          <g id="Grupo_109174" data-name="Grupo 109174">
            <g id="Grupo_109173" data-name="Grupo 109173" clip-path="url(#clip-path-2)">
              <path id="Trazado_114904" data-name="Trazado 114904" d="M1727.809,2444.519a1.534,1.534,0,0,0,.317,0Z" transform="translate(-1727.809 -2444.519)" fill="#182051"/>
            </g>
          </g>
        </g>
        <path id="Trazado_114905" data-name="Trazado 114905" d="M1765.778,1540.34c6.237,11.148,19.183,18.9,33.779,20.221,1.635.147,3.3.224,4.981.224,10.536,0,21.987-2.9,34.12-8.646,5.865-2.774,13.217-6.8,18.066-13.317a22.941,22.941,0,0,0,4.7-15.875c-.791-.2-1.573-.4-2.34-.588.836,5.423-1.208,11.171-4.153,15.131-4.548,6.12-11.6,9.97-17.23,12.635-13.7,6.484-26.465,9.25-37.939,8.212-13.876-1.255-26.147-8.568-32.035-19.089a29.51,29.51,0,0,1-.046-28.316c-.884.186-1.829.4-2.828.627a31.967,31.967,0,0,0,.93,28.782" transform="translate(-1437.184 -1327.9)" fill="#fff"/>
        <path id="Trazado_114906" data-name="Trazado 114906" d="M1487.444,2451.735l.947-.6a28.089,28.089,0,0,0-25.273-12.747l.084,1.116a26.975,26.975,0,0,1,24.242,12.226" transform="translate(-1009.816 -2086.942)" fill="#636363"/>
        <rect id="Rectángulo_34636" data-name="Rectángulo 34636" width="22.66" height="1.118" transform="translate(483.888 347.198) rotate(-179.534)" fill="#636363"/>
        <path id="Trazado_114907" data-name="Trazado 114907" d="M1544.394,1803.31a33.319,33.319,0,0,1,22.251-27.388l-.345-1.064a34.469,34.469,0,0,0-23.018,28.333Z" transform="translate(-1102.62 -1543.915)" fill="#636363"/>
        <path id="Trazado_114908" data-name="Trazado 114908" d="M2613.745,1741.54l1.114-.089a29.5,29.5,0,0,0-16.92-23.937l-.457,1.022a28.347,28.347,0,0,1,16.264,23" transform="translate(-2342.203 -1496.982)" fill="#636363"/>
        <path id="Trazado_114909" data-name="Trazado 114909" d="M1721.272,543.456a16.174,16.174,0,0,0,9.206,15.272c-.958-.431-3.361,6.247-3.52,6.953a18.132,18.132,0,0,0,.047,8.483c1.361,5.471,6.035,10.76,11.936,11.158,7.044.482,9.757-6.036,14.807-9.612a40.472,40.472,0,0,1,45.6-.935c5.05,3.3,9.306,7.673,14.083,11.366,3.408,2.632,12.825,9.257,17.238,6.335,2.359-1.565,4.235-6.063,5.416-8.538a41.62,41.62,0,0,0,2.255-5.778c.375-1.19.691-2.388.948-3.606a41.649,41.649,0,0,0,.856-11.265,15.486,15.486,0,0,0-2.206-7.831c-1.537-2.274-4.378-3.845-7.043-3.2a27.079,27.079,0,0,0-41.109-23.562c.194-7.676-4.279-15-10.531-19.46s-14.068-6.315-21.736-6.558c-7.6-.233-15.658,1.218-21.4,6.2a18.089,18.089,0,0,0-6.015,11.589,13.147,13.147,0,0,0,2.086,8.877,16.2,16.2,0,0,0-10.914,14.112" transform="translate(-1408.501 -502.656)" fill="#12263f"/>
        <g id="Grupo_109178" data-name="Grupo 109178" transform="translate(321.6 0.001)" opacity="0.1">
          <g id="Grupo_109177" data-name="Grupo 109177">
            <g id="Grupo_109176" data-name="Grupo 109176" clip-path="url(#clip-path-3)">
              <path id="Trazado_114910" data-name="Trazado 114910" d="M1721.248,520.466a8.861,8.861,0,0,1,2.561-2.152,23.769,23.769,0,0,1,10.708-3.052,67.429,67.429,0,0,1,23.067,3.629c7.4,2.565,14.206,8.06,16.345,15.6,9.338-2.116,19.443-2.756,28.238,1.046s15.774,12.974,14.559,22.48c7.944,3.074,13.2,11.717,12.757,20.146.375-1.19.691-2.388.949-3.606a41.667,41.667,0,0,0,.856-11.265,15.49,15.49,0,0,0-2.206-7.831c-1.537-2.274-4.378-3.845-7.042-3.2a27.079,27.079,0,0,0-41.109-23.562c.194-7.676-4.279-15-10.531-19.46s-14.068-6.315-21.736-6.558c-7.6-.233-15.658,1.218-21.4,6.2a18.089,18.089,0,0,0-6.016,11.589" transform="translate(-1721.247 -502.657)" fill="#fff"/>
            </g>
          </g>
        </g>
        <path id="Trazado_114911" data-name="Trazado 114911" d="M1842.224,765.187a.251.251,0,0,0,.092-.492,14.686,14.686,0,0,1-11.179-12.351c-.016-.14-.03-.285-.039-.435a7.125,7.125,0,0,0,2.174-.151,2.87,2.87,0,0,0,2.359-2.52,1.434,1.434,0,0,0-.853-1.473,2.846,2.846,0,0,0-2.989.282,4.294,4.294,0,0,0-1.212,3.328,23.322,23.322,0,0,1-11.7-5.413,7.351,7.351,0,0,0,1.8-.949,5.1,5.1,0,0,0,2.309-3.819,3.154,3.154,0,0,0-2.757-3.312,3.429,3.429,0,0,0-3.16,2.6c-.463,1.537-.779,3.116.04,4.262a9.4,9.4,0,0,0,.82.984,7.291,7.291,0,0,1-8.927-8.907.25.25,0,0,0-.179-.3.256.256,0,0,0-.305.179,7.8,7.8,0,0,0,9.819,9.441,23.969,23.969,0,0,0,12.251,5.728c.01.175.025.354.046.536a15.2,15.2,0,0,0,11.57,12.783l.015,0M1833.879,748a2.15,2.15,0,0,1,.666.209.947.947,0,0,1,.587.967,2.373,2.373,0,0,1-1.986,2.1,6.776,6.776,0,0,1-2.069.146,3.906,3.906,0,0,1,1.046-3,2.2,2.2,0,0,1,1.755-.42m-13.451-9.6a2.735,2.735,0,0,1,2.062,2.773,4.609,4.609,0,0,1-2.1,3.431,6.967,6.967,0,0,1-1.913.966,9.436,9.436,0,0,1-.955-1.12c-.692-.969-.394-2.41.032-3.825a2.968,2.968,0,0,1,2.661-2.245,1.861,1.861,0,0,1,.214.021" transform="translate(-1426.595 -694.057)"/>
        <path id="Trazado_114912" data-name="Trazado 114912" d="M2095.312,694.019a12.014,12.014,0,0,0,2.329.139,8.187,8.187,0,0,0,6.1-2.878,14.084,14.084,0,0,0,11.485-7.191.251.251,0,0,0-.1-.339.247.247,0,0,0-.339.1,13.584,13.584,0,0,1-10.677,6.9,5.313,5.313,0,0,0-1.016-6.909,4.141,4.141,0,0,0-3.955-.4,3.45,3.45,0,0,0-2.253,2.538,4.282,4.282,0,0,0,1.945,4.158,7.524,7.524,0,0,0,4.248,1.15,7.827,7.827,0,0,1-5.453,2.366,16.65,16.65,0,0,1-6.984-1.581,13.042,13.042,0,0,1-3.414-1.928,7.723,7.723,0,0,0,1.6-1.044,5.259,5.259,0,0,0,1.868-3.462A2.677,2.677,0,0,0,2090,683.6a2.626,2.626,0,0,0-2.295-.754,3.339,3.339,0,0,0-2.507,1.647,4.753,4.753,0,0,0,.81,5.142q.153.183.315.353a8.787,8.787,0,0,1-4.227.467,8.28,8.28,0,0,1-3.091-15.264.25.25,0,1,0-.249-.434,8.657,8.657,0,0,0,3.275,16.2,9.237,9.237,0,0,0,4.687-.581,12.946,12.946,0,0,0,3.723,2.164,20.911,20.911,0,0,0,4.87,1.481m-6.835-10.666a1.967,1.967,0,0,1,1.158.591,2.163,2.163,0,0,1,.556,1.668,4.738,4.738,0,0,1-1.691,3.108,7.336,7.336,0,0,1-1.677,1.062,6.035,6.035,0,0,1-.427-.464,4.308,4.308,0,0,1-.755-4.584,2.868,2.868,0,0,1,2.128-1.388,2.533,2.533,0,0,1,.708.006m15,7.434-.159,0a7.2,7.2,0,0,1-4.213-1.063,3.777,3.777,0,0,1-1.736-3.652,2.962,2.962,0,0,1,1.944-2.163,3.685,3.685,0,0,1,3.473.337,4.8,4.8,0,0,1,.875,6.263c-.059.094-.12.185-.184.274" transform="translate(-1747.655 -643.49)"/>
        <path id="Trazado_114913" data-name="Trazado 114913" d="M1716.649,807.524a26.546,26.546,0,0,0,7.046,11.24s.017.946.122,2.574c.487,8.2,2.912,33.7,14.3,42.222l-.972,39.393s-3.342,21.793,22.109,27.725,40.747-4.285,53.434-19.382l-.981-78.018s12.878,1.975,18.815-10.295.827-25.221-8.848-21.635l.349-2.278c.515-3.358,1.018-6.637,1.018-6.637s-11.382-1.218-18.437-7.309a14.869,14.869,0,0,1-5.344-9.519s-20.954-2.2-22.637-17.666c0,0-28.563,20.966-47.926,1.774a45.883,45.883,0,0,0-3.421,15.7c-.3,7.082-.6,17.144-.6,17.144s-6.631-3.045-8.381,1.756c-1.03,2.813-1.343,7.834.356,13.215" transform="translate(-1400.289 -711.596)" fill="#ff9e79"/>
        <g id="Grupo_109181" data-name="Grupo 109181" transform="translate(337.492 146.531)" opacity="0.6">
          <g id="Grupo_109180" data-name="Grupo 109180">
            <g id="Grupo_109179" data-name="Grupo 109179" clip-path="url(#clip-path-4)">
              <path id="Trazado_114914" data-name="Trazado 114914" d="M2011.039,1309.858s-28.181,25.081-50.515,5.433l-.336,13.623s25.569,13.566,50.851-19.057" transform="translate(-1960.188 -1309.859)" fill="#602929"/>
            </g>
          </g>
        </g>
        <path id="Trazado_114915" data-name="Trazado 114915" d="M1770.15,931.636c1.406.55,3.731,1.12,5.14,1.66a120.5,120.5,0,0,1,11.577-9.377l1.519-9.906s-11.533-.228-18.589-6.319c2.763,7.835,3.585,15.829.353,23.942" transform="translate(-1365.482 -834.168)" fill="#4d5060"/>
        <path id="Trazado_114916" data-name="Trazado 114916" d="M1966.841,910.043s-16.922-10.459-26.187-6.512c-4.61,1.964-2.331,5.979-.119,6.337s9.506.178,12.973,1.193,11.36,2.748,12.316,2.449,2.571-1.854,1.016-3.468" transform="translate(-1575.113 -830.031)" fill="#1c1e33"/>
        <path id="Trazado_114917" data-name="Trazado 114917" d="M2175.1,897.505c1.137.059,2.515-.007,3.073-1,.646-1.144-.352-2.528-1.417-3.3a13.9,13.9,0,0,0-8.856-2.323,28.77,28.77,0,0,0-9.015,2.253c-1.172.466-2.555,1.356-2.311,2.594s1.866,1.537,3.133,1.555c5.163.073,10.231-.08,15.393.217" transform="translate(-1825.683 -820.392)" fill="#1c1e33"/>
        <g id="Grupo_109184" data-name="Grupo 109184" transform="translate(347.867 83.427)" opacity="0.6">
          <g id="Grupo_109183" data-name="Grupo 109183">
            <g id="Grupo_109182" data-name="Grupo 109182" clip-path="url(#clip-path-5)">
              <path id="Trazado_114918" data-name="Trazado 114918" d="M2138.536,988.074a.5.5,0,0,0,.2-.98,17.884,17.884,0,0,1-8.276-4.863.452.452,0,0,1-.074-.5,77.164,77.164,0,0,0,5.775-18.923.5.5,0,0,0-.41-.577.487.487,0,0,0-.578.41,76.178,76.178,0,0,1-5.7,18.677,1.441,1.441,0,0,0,.266,1.6,18.888,18.888,0,0,0,8.74,5.135c.017,0,.036.008.053.011" transform="translate(-2129.343 -962.231)" fill="#602929"/>
            </g>
          </g>
        </g>
        <g id="Grupo_109187" data-name="Grupo 109187" transform="translate(372.181 98.423)" opacity="0.32">
          <g id="Grupo_109186" data-name="Grupo 109186">
            <g id="Grupo_109185" data-name="Grupo 109185" clip-path="url(#clip-path-6)">
              <path id="Trazado_114919" data-name="Trazado 114919" d="M1911.229,1053.526c-.134,4.98,5.365,9.167,12.282,9.352s12.63-3.7,12.764-8.681-5.365-9.166-12.281-9.352-12.631,3.7-12.764,8.681" transform="translate(-1911.227 -1044.839)" fill="#cc4c46"/>
            </g>
          </g>
        </g>
        <g id="Grupo_109190" data-name="Grupo 109190" transform="translate(323.401 92.085)" opacity="0.32">
          <g id="Grupo_109189" data-name="Grupo 109189">
            <g id="Grupo_109188" data-name="Grupo 109188" clip-path="url(#clip-path-7)">
              <path id="Trazado_114920" data-name="Trazado 114920" d="M2227.1,1025.011a23.928,23.928,0,0,0,.122,2.574c.246.119.5.229.761.33,6.527,2.593,13.3.935,15.135-3.691s-1.952-10.479-8.479-13.072a16.845,16.845,0,0,0-6.092-1.224s-1.3,11.3-1.448,15.083" transform="translate(-2227.089 -1009.929)" fill="#cc4c46"/>
            </g>
          </g>
        </g>
        <g id="Grupo_109193" data-name="Grupo 109193" transform="translate(416.794 95.111)" opacity="0.6">
          <g id="Grupo_109192" data-name="Grupo 109192">
            <g id="Grupo_109191" data-name="Grupo 109191" clip-path="url(#clip-path-8)">
              <path id="Trazado_114921" data-name="Trazado 114921" d="M1728.195,1036.8a.5.5,0,0,0,.535-.3,21.039,21.039,0,0,1,5.512-7.485c1.25-1.079,2.265-1.524,3.19-1.4l.039.005a3.072,3.072,0,0,1,2.016,1.458,9.338,9.338,0,0,1,1.038,2.671.5.5,0,1,0,.967-.26,10.175,10.175,0,0,0-1.164-2.956,3.984,3.984,0,0,0-2.761-1.912c-1.617-.218-3.045.828-3.979,1.633a22.051,22.051,0,0,0-5.776,7.843.5.5,0,0,0,.259.66.475.475,0,0,0,.125.036" transform="translate(-1727.768 -1026.603)" fill="#602929"/>
            </g>
          </g>
        </g>
        <g id="Grupo_109196" data-name="Grupo 109196" transform="translate(424.297 96.418)" opacity="0.6">
          <g id="Grupo_109195" data-name="Grupo 109195">
            <g id="Grupo_109194" data-name="Grupo 109194" clip-path="url(#clip-path-9)">
              <path id="Trazado_114922" data-name="Trazado 114922" d="M1747.508,1046.909a.5.5,0,0,0,.5-.225,12.009,12.009,0,0,0-.019-12.658.5.5,0,1,0-.84.544,10.984,10.984,0,0,1,.016,11.573.5.5,0,0,0,.15.693.507.507,0,0,0,.195.073" transform="translate(-1747.065 -1033.797)" fill="#602929"/>
            </g>
          </g>
        </g>
        <path id="Trazado_114923" data-name="Trazado 114923" d="M2022.12,991.337c-.262,3.588,1.09,6.612,3.022,6.753s3.711-2.652,3.975-6.24-1.089-6.611-3.021-6.753-3.712,2.652-3.976,6.24" transform="translate(-1652.043 -897.515)" fill="#1c1e33"/>
        <path id="Trazado_114924" data-name="Trazado 114924" d="M2048.366,1006.493c-.084.547.069,1.025.343,1.067s.564-.367.647-.914-.07-1.025-.343-1.066-.564.367-.647.914" transform="translate(-1677.039 -914.281)" fill="#fff"/>
        <path id="Trazado_114925" data-name="Trazado 114925" d="M2034.811,1020.38c-.21,1.368.286,2.578,1.106,2.7s1.656-.881,1.865-2.248-.285-2.578-1.106-2.7-1.656.881-1.865,2.249" transform="translate(-1663.026 -924.548)"/>
        <path id="Trazado_114926" data-name="Trazado 114926" d="M2196.742,964.554c-.264,3.588,1.089,6.612,3.021,6.754s3.712-2.652,3.975-6.24-1.089-6.611-3.021-6.753-3.712,2.652-3.975,6.24" transform="translate(-1858.363 -875.594)" fill="#1c1e33"/>
        <path id="Trazado_114927" data-name="Trazado 114927" d="M2223.826,985.167c-.084.547.069,1.024.343,1.067s.563-.368.647-.915-.07-1.024-.343-1.067-.564.368-.647.915" transform="translate(-1884.35 -896.825)" fill="#fff"/>
        <path id="Trazado_114928" data-name="Trazado 114928" d="M2209.433,993.6c-.209,1.368.286,2.579,1.106,2.7s1.656-.881,1.866-2.249-.286-2.579-1.106-2.7-1.656.881-1.866,2.248" transform="translate(-1869.347 -902.627)"/>
        <g id="Grupo_109199" data-name="Grupo 109199" transform="translate(317.446 84.267)" opacity="0.6">
          <g id="Grupo_109198" data-name="Grupo 109198">
            <g id="Grupo_109197" data-name="Grupo 109197" clip-path="url(#clip-path-10)">
              <path id="Trazado_114929" data-name="Trazado 114929" d="M2320.765,966.863a5.187,5.187,0,0,1,5.029,5.017.5.5,0,0,1-.5.5.548.548,0,0,1-.08-.006.5.5,0,0,1-.424-.492,4.09,4.09,0,0,0-1.479-3,9.99,9.99,0,0,0-.988,9.369.5.5,0,0,1-.925.387,11.026,11.026,0,0,1,1.085-10.321,3.772,3.772,0,0,0-1.724-.457.494.494,0,0,1-.5-.5.5.5,0,0,1,.5-.5" transform="translate(-2320.261 -966.863)" fill="#602929"/>
            </g>
          </g>
        </g>
        <path id="Trazado_114930" data-name="Trazado 114930" d="M1797.09,957.175c7.829,1.2,13.714,5.043,14.5,9.164a7.692,7.692,0,0,1,9.329,1.919c1.689-3.992,8.882-6.074,17.284-4.785,5.932.91,10.778,3.244,13.27,6.055l30.213-6.452.2.951-29.746,6.351a5.519,5.519,0,0,1,1.1,4c-.722,4.713-8.462,7.305-17.619,5.9-9.132-1.4-15.724-6.171-15.042-10.872a6.9,6.9,0,0,0-4.228-2.786,6.985,6.985,0,0,0-4.686.771,4.735,4.735,0,0,1-.037.6c-.722,4.709-8.239,7.332-17.115,5.97s-15.262-6.116-14.54-10.825,8.24-7.332,17.115-5.97m38.68,22.147c8.475,1.3,15.882-.982,16.511-5.087s-5.752-8.5-14.227-9.8-15.882.983-16.511,5.087,5.753,8.5,14.228,9.8m-41.111-6.3c8.206,1.258,15.394-1.06,16.024-5.169a3.882,3.882,0,0,0,.008-1l0,0h0c-.4-3.794-6.2-7.574-13.744-8.73-8.206-1.259-15.393,1.06-16.024,5.169s5.533,8.476,13.739,9.734" transform="translate(-1460.819 -874.373)" fill="#fff"/>
        <g id="Grupo_109202" data-name="Grupo 109202" transform="translate(341.902 119.111)" opacity="0.6">
          <g id="Grupo_109201" data-name="Grupo 109201">
            <g id="Grupo_109200" data-name="Grupo 109200" clip-path="url(#clip-path-11)">
              <path id="Trazado_114931" data-name="Trazado 114931" d="M2096.87,1164.818a18.722,18.722,0,0,0,10.512-3.106.628.628,0,0,0-.705-1.039,18.284,18.284,0,0,1-22-1.693.627.627,0,1,0-.855.916,19.211,19.211,0,0,0,13.048,4.922" transform="translate(-2083.623 -1158.811)" fill="#602929"/>
            </g>
          </g>
        </g>
        <g id="Grupo_109205" data-name="Grupo 109205" transform="translate(346.326 126.603)" opacity="0.6">
          <g id="Grupo_109204" data-name="Grupo 109204">
            <g id="Grupo_109203" data-name="Grupo 109203" clip-path="url(#clip-path-12)">
              <path id="Trazado_114932" data-name="Trazado 114932" d="M2139.584,1203.879a8.478,8.478,0,0,0,3.7-.835.628.628,0,1,0-.548-1.13,7.638,7.638,0,0,1-8.66-1.636.627.627,0,0,0-.922.85,8.781,8.781,0,0,0,6.428,2.751" transform="translate(-2132.99 -1200.076)" fill="#602929"/>
            </g>
          </g>
        </g>
        <path id="Trazado_114933" data-name="Trazado 114933" d="M1816.219,2050.282h219.82a16.743,16.743,0,0,0,16.609-18.861l-16.972-133.113a16.743,16.743,0,0,0-16.608-14.625h-219.82a16.742,16.742,0,0,0-16.608,18.86l16.971,133.113a16.743,16.743,0,0,0,16.608,14.625" transform="translate(-1632.187 -1632.986)" fill="#b0c0d2"/>
        <path id="Trazado_114934" data-name="Trazado 114934" d="M2495.037,2274.511a15.108,15.108,0,1,0,15.107-15.107,15.107,15.107,0,0,0-15.107,15.107" transform="translate(-2234 -1940.504)" fill="#12263f"/>
        <path id="Trazado_114935" data-name="Trazado 114935" d="M1507.818,2742.015h-72.06V2752.8h82.37a.239.239,0,0,0,.238-.239,10.548,10.548,0,0,0-10.548-10.548" transform="translate(-1034.823 -2335.506)" fill="#b0c0d2"/>
        <path id="Trazado_114936" data-name="Trazado 114936" d="M3470.139,2151.592c0,16.924,12.139,16.395,21.641,16.395,12.966,0,21.64-2.832,21.64-16.395,0-20.407-6.952-36.951-21.64-36.951-11.952,0-21.641,16.544-21.641,36.951" transform="translate(-3399.177 -1822.018)" fill="#ff9500"/>
        <rect id="Rectángulo_34647" data-name="Rectángulo 34647" width="1.312" height="5.72" transform="translate(101.523 310.177) rotate(-134.923)" fill="#40592f"/>
        <rect id="Rectángulo_34648" data-name="Rectángulo 34648" width="5.145" height="1.311" transform="translate(79.478 317.687) rotate(-167.951)" fill="#40592f"/>
        <rect id="Rectángulo_34649" data-name="Rectángulo 34649" width="1.312" height="4.453" transform="matrix(-0.994, -0.111, 0.111, -0.994, 90.4, 333.738)" fill="#40592f"/>
        <rect id="Rectángulo_34650" data-name="Rectángulo 34650" width="1.311" height="4.534" transform="matrix(-0.651, -0.759, 0.759, -0.651, 105.997, 326.303)" fill="#40592f"/>
        <rect id="Rectángulo_34651" data-name="Rectángulo 34651" width="3.581" height="1.311" transform="translate(88.708 298.444) rotate(-105.933)" fill="#40592f"/>
        <path id="Trazado_114937" data-name="Trazado 114937" d="M3543.033,2112.254,3545,2109.3l-1.092-.727-1.966,2.95Z" transform="translate(-3443.792 -1817.055)" fill="#40592f"/>
        <rect id="Rectángulo_34652" data-name="Rectángulo 34652" width="4.2" height="1.311" transform="translate(71.968 328.738) rotate(-161.592)" fill="#40592f"/>
        <rect id="Rectángulo_34653" data-name="Rectángulo 34653" width="3.633" height="1.312" transform="matrix(-0.6, -0.8, 0.8, -0.6, 77.502, 305.051)" fill="#40592f"/>
        <rect id="Rectángulo_34654" data-name="Rectángulo 34654" width="1.311" height="4.918" transform="matrix(-0.59, -0.807, 0.807, -0.59, 111.43, 313.143)" fill="#40592f"/>
        <rect id="Rectángulo_34655" data-name="Rectángulo 34655" width="1.312" height="4.339" transform="matrix(-0.275, -0.961, 0.961, -0.275, 100.352, 342.215)" fill="#40592f"/>
        <rect id="Rectángulo_34656" data-name="Rectángulo 34656" width="2.903" height="1.311" transform="matrix(-0.243, -0.97, 0.97, -0.243, 91.164, 318.096)" fill="#40592f"/>
        <rect id="Rectángulo_34657" data-name="Rectángulo 34657" width="2.956" height="1.31" transform="translate(79.145 341.753) rotate(-146.337)" fill="#40592f"/>
        <path id="Trazado_114938" data-name="Trazado 114938" d="M3419.857,2059.468c0,5.5,4.9,9.967,10.951,9.967s9.334-5.077,9.334-10.582-3.08-12.373-9.127-12.373-11.158,7.483-11.158,12.989" transform="translate(-3316.773 -1766.231)" fill="#ff9500"/>
        <rect id="Rectángulo_34658" data-name="Rectángulo 34658" width="1.311" height="2.535" transform="matrix(-0.64, -0.768, 0.768, -0.64, 121.331, 288.59)" fill="#40592f"/>
        <rect id="Rectángulo_34659" data-name="Rectángulo 34659" width="1.313" height="2.459" transform="translate(113.862 279.726)" fill="#40592f"/>
        <path id="Trazado_114939" data-name="Trazado 114939" d="M3509.729,2080.989l.7-1.113-2.382-1.489-.694,1.113Z" transform="translate(-3402.938 -1792.346)" fill="#40592f"/>
        <rect id="Rectángulo_34660" data-name="Rectángulo 34660" width="1.312" height="2.334" transform="translate(113.239 294.591) rotate(-170.781)" fill="#40592f"/>
        <rect id="Rectángulo_34661" data-name="Rectángulo 34661" width="1.312" height="2.683" transform="matrix(-0.319, -0.948, 0.948, -0.319, 117.95, 300.588)" fill="#40592f"/>
        <path id="Trazado_114940" data-name="Trazado 114940" d="M3386.62,2405.224v50.7a21.852,21.852,0,0,0,21.848,21.849h31.914a22.221,22.221,0,0,0,6.583-1,21.87,21.87,0,0,0,15.266-20.848v-50.7Z" transform="translate(-3332.828 -2059.853)" fill="#d2e1f1"/>
        <rect id="Rectángulo_34662" data-name="Rectángulo 34662" width="75.609" height="3.891" transform="translate(53.798 362.067)" fill="#fff"/>
        <path id="Trazado_114941" data-name="Trazado 114941" d="M610.237,2373.083l7.106,77.219a1.271,1.271,0,0,0,1.334,1.1h48.911a1.288,1.288,0,0,0,1.334-1.081l.966-9.8,6.646-66.963a1.253,1.253,0,0,0-1.311-1.31l-51.326-.391-12.3-.092a1.267,1.267,0,0,0-1.357,1.31" transform="translate(-43.143 -2032.474)" fill="#d2e1f1"/>
        <path id="Trazado_114942" data-name="Trazado 114942" d="M646.9,2373.083,654,2450.3a1.272,1.272,0,0,0,1.334,1.1h48.911a1.289,1.289,0,0,0,1.334-1.081l.966-9.8c-4.392-2.507-9.221-4.23-13.751-6.508a59.257,59.257,0,0,1-22.375-20.19c-4.921-7.4-9.241-15.791-9.7-24.7a171.821,171.821,0,0,1-.161-17.269l-12.3-.092a1.267,1.267,0,0,0-1.357,1.31" transform="translate(-79.802 -2032.474)" fill="#b0c0d2"/>
        <path id="Trazado_114943" data-name="Trazado 114943" d="M914.735,2498.544a2.445,2.445,0,0,0,.618-4.811,20.243,20.243,0,0,1-2.218-38.44,2.445,2.445,0,0,0-1.776-4.555,25.132,25.132,0,0,0,2.754,47.724,2.488,2.488,0,0,0,.621.082" transform="translate(-335.539 -2096.968)" fill="#d2e1f1"/>
        <path id="Trazado_114944" data-name="Trazado 114944" d="M320.5,2811.06h674a6.6,6.6,0,1,0,0-13.193h-674a6.6,6.6,0,0,0,0,13.193" transform="translate(-313.904 -2381.219)" fill="#3e3e45"/>
      </g>
    </g>
    <rect id="Rectángulo_34665" data-name="Rectángulo 34665" width="962" height="637" transform="translate(-15209.628 -11214)" fill="none"/>
  </g>
</svg>
