<svg xmlns="http://www.w3.org/2000/svg" xmlns:xlink="http://www.w3.org/1999/xlink" width="181.279" height="140.397" viewBox="0 0 181.279 140.397">
  <defs>
    <clipPath id="clip-path">
      <rect id="Rectángulo_34663" data-name="Rectángulo 34663" width="129.851" height="108.905" fill="#dee4f0"/>
    </clipPath>
  </defs>
  <g id="Grupo_109217" data-name="Grupo 109217" transform="translate(0.334)">
    <path id="Trazado_114895" data-name="Trazado 114895" d="M2648.054,379.088a6.966,6.966,0,0,1,7.078-6.85h166.79a6.967,6.967,0,0,1,7.078,6.85v11.019H2648.054Z" transform="translate(-2648.054 -372.238)" fill="#61616b"/>
    <path id="Trazado_114896" data-name="Trazado 114896" d="M2648.058,525.886V638.98a9.639,9.639,0,0,0,9.87,9.388h161.2a9.638,9.638,0,0,0,9.87-9.388V525.886Z" transform="translate(-2648.392 -507.971)" fill="#546e7a"/>
    <path id="Trazado_114897" data-name="Trazado 114897" d="M2751.933,415.861a2.259,2.259,0,1,0-2.259-2.259,2.262,2.262,0,0,0,2.259,2.259m0-3.647a1.388,1.388,0,1,1-1.388,1.388,1.389,1.389,0,0,1,1.388-1.388" transform="translate(-2585.064 -406.795)" fill="#fff"/>
    <path id="Trazado_114898" data-name="Trazado 114898" d="M2810.248,415.861a2.259,2.259,0,1,0-2.26-2.259,2.261,2.261,0,0,0,2.26,2.259m0-3.647a1.388,1.388,0,1,1-1.388,1.388,1.39,1.39,0,0,1,1.388-1.388" transform="translate(-2650.161 -406.795)" fill="#fff"/>
    <path id="Trazado_114899" data-name="Trazado 114899" d="M2868.567,415.861a2.259,2.259,0,1,0-2.259-2.259,2.261,2.261,0,0,0,2.259,2.259m0-3.647a1.388,1.388,0,1,1-1.388,1.388,1.389,1.389,0,0,1,1.388-1.388" transform="translate(-2715.263 -406.795)" fill="#fff"/>
    <g id="Grupo_109216" data-name="Grupo 109216" transform="translate(25.713 24.276)">
      <g id="Grupo_109215" data-name="Grupo 109215" clip-path="url(#clip-path)">
        <path id="Trazado_114946" data-name="Trazado 114946" d="M26.645,66.872l-1.971-1.189-.176-.1a2.306,2.306,0,0,0-2.155.261,6.688,6.688,0,0,0-3.022,5.234,2.364,2.364,0,0,0,.786,1.948,1.426,1.426,0,0,0,.321.187l1.9,1.161a.352.352,0,0,0,.486-.118l.529-.874a6.716,6.716,0,0,0,2.934-4.848l.426-.7.122-.532a.4.4,0,0,0-.181-.428m-.287.788-.433.714-.027.087a6.374,6.374,0,0,1-2.792,4.616l-.6.954-.7-.425-.161-1.24.192-1.447L19.895,69.8a6.326,6.326,0,0,1,2.64-3.627,2.485,2.485,0,0,1,1.213-.375,1.325,1.325,0,0,1,.576.124l2.131,1.281Z" transform="translate(-9.299 -31.485)" fill="#dee4f0"/>
        <path id="Trazado_114947" data-name="Trazado 114947" d="M25.239,75.841a1.691,1.691,0,0,1-.858-.222,2.235,2.235,0,0,1-.953-2.06,6.689,6.689,0,0,1,3.022-5.235,2.238,2.238,0,0,1,2.262-.2,2.236,2.236,0,0,1,.953,2.061,6.689,6.689,0,0,1-3.022,5.234,2.848,2.848,0,0,1-1.4.427m2.613-7.559a2.471,2.471,0,0,0-1.21.375,6.265,6.265,0,0,0-2.83,4.9,1.877,1.877,0,0,0,.761,1.728,1.877,1.877,0,0,0,1.877-.2,6.264,6.264,0,0,0,2.83-4.9,1.877,1.877,0,0,0-.761-1.728,1.314,1.314,0,0,0-.667-.17" transform="translate(-11.276 -32.678)" fill="#dee4f0"/>
        <path id="Trazado_114948" data-name="Trazado 114948" d="M26.478,75.757a1.233,1.233,0,0,1-.622-.161,1.6,1.6,0,0,1-.689-1.478,4.7,4.7,0,0,1,2.121-3.673A1.421,1.421,0,0,1,29.6,71.781a4.7,4.7,0,0,1-2.121,3.674,2.028,2.028,0,0,1-1,.3m1.808-5.231a1.658,1.658,0,0,0-.808.252,4.271,4.271,0,0,0-1.928,3.341,1.048,1.048,0,0,0,1.736,1,4.268,4.268,0,0,0,1.929-3.341,1.246,1.246,0,0,0-.5-1.144.853.853,0,0,0-.432-.11" transform="translate(-12.112 -33.759)" fill="#dee4f0"/>
        <path id="Trazado_114949" data-name="Trazado 114949" d="M38.95,78.446l-8.61-5a1.009,1.009,0,0,0-.092-.052.816.816,0,0,0-.755.086,2.1,2.1,0,0,0-.965,1.671.8.8,0,0,0,.347.727l8.7,5.05a.249.249,0,0,0,.341-.093l1.133-2.015a.278.278,0,0,0-.1-.377m-1.3,2.083-.3-.172.078-.735-8.452-4.868a1.744,1.744,0,0,1,.7-.938.6.6,0,0,1,.289-.092.271.271,0,0,1,.114.023l.047.027,8.533,4.952Z" transform="translate(-13.73 -35.297)" fill="#dee4f0"/>
        <path id="Trazado_114950" data-name="Trazado 114950" d="M46,85.719a.633.633,0,0,1-.322-.085.792.792,0,0,1-.351-.729,2.1,2.1,0,0,1,.965-1.671.717.717,0,0,1,1.157.668,2.105,2.105,0,0,1-.965,1.671.978.978,0,0,1-.484.145m.777-2.244a.606.606,0,0,0-.292.092,1.738,1.738,0,0,0-.772,1.339.345.345,0,0,0,.58.335,1.737,1.737,0,0,0,.773-1.338.439.439,0,0,0-.159-.4.255.255,0,0,0-.13-.032" transform="translate(-21.815 -39.989)" fill="#dee4f0"/>
        <path id="Trazado_114951" data-name="Trazado 114951" d="M56.422,112.607c-1.221-.129-3.189-.35-3.53-.422l-.044-.017c-.074-.028-.117-.044-.222.129l-.029-.01-.03.09.007.011c-.158.294-.437.929-1.02,2.257l-.067.154,3.476,2.123.886-2.027.817-2.262Z" transform="translate(-24.78 -53.976)" fill="#dee4f0"/>
        <path id="Trazado_114952" data-name="Trazado 114952" d="M76.732,76.37l-2.087-3.324,2.443-1.1,2.551,1.672a.262.262,0,0,1,.02.424Zm-1.527-3.155L76.83,75.8l2.457-1.955-2.233-1.464Z" transform="translate(-35.926 -34.627)" fill="#dee4f0"/>
        <path id="Trazado_114953" data-name="Trazado 114953" d="M35.877,89.105a.785.785,0,0,1-.4-.1L33.392,87.8a1,1,0,0,1-.436-.918,2.558,2.558,0,0,1,.365-1.24L34.6,83.42a6.164,6.164,0,0,1-.548-1.124l-1.667.963a.895.895,0,0,1-1.448-.837v-3.41A2.741,2.741,0,0,1,32.2,76.837l1.695-.978a19.1,19.1,0,0,1,.591-2.083l-1.09-.629c-.553-.32-.584-1.267-.071-2.157l2.088-3.617a2.559,2.559,0,0,1,.891-.936.994.994,0,0,1,1.013-.081l1.031.6a19.108,19.108,0,0,1,1.568-1.668V63.473A2.739,2.739,0,0,1,41.168,61.3l2.953-1.705a.895.895,0,0,1,1.449.836v1.643A6.288,6.288,0,0,1,47,61.951l1.1-1.9a2.546,2.546,0,0,1,.891-.936A1,1,0,0,1,50,59.029l2.088,1.205c.542.313.583,1.227.1,2.1l.336,2.764.565-.326a.894.894,0,0,1,1.448.836v3.41a2.739,2.739,0,0,1-1.256,2.176L51.526,72.21a19.219,19.219,0,0,1-.612,2l1.176.679c.553.32.584,1.267.071,2.157l-2.088,3.617a2.549,2.549,0,0,1-.891.936,1,1,0,0,1-1.013.081l-1.235-.713a18.861,18.861,0,0,1-1.364,1.421v2.173a2.74,2.74,0,0,1-1.257,2.177L41.36,88.439a.895.895,0,0,1-1.448-.837v-.545a.388.388,0,0,1-.047.057.345.345,0,0,1-.217.1l-2.3.832a1.945,1.945,0,0,1-1.471,1.06m-1.61-7.375.075.222a5.89,5.89,0,0,0,.647,1.357l.065.1-1.4,2.423a2.165,2.165,0,0,0-.314,1.048.667.667,0,0,0,.244.584l2.088,1.206c.316.185.945-.127,1.377-.877l.036-.061,2.493-.9h.035a2.353,2.353,0,0,0,.034-.576c0-.476,0-1.015.414-1.109l.234-.052V87.6a.522.522,0,0,0,.872.5L44.121,86.4a2.389,2.389,0,0,0,1.064-1.843v-2.34l.061-.057a18.575,18.575,0,0,0,1.5-1.567l.1-.121,1.512.872a.671.671,0,0,0,.628-.081,2.16,2.16,0,0,0,.75-.8l2.088-3.617c.434-.75.386-1.449.071-1.632l-1.458-.841.057-.153a18.927,18.927,0,0,0,.675-2.184l.019-.08,1.9-1.1a2.394,2.394,0,0,0,1.064-1.843v-3.41a.522.522,0,0,0-.872-.5l-.785.453a.439.439,0,0,1-.19.11l-.971.56-.067-.237a.428.428,0,0,1,.04-.364.883.883,0,0,1,.646-.28c.061-.009.141-.022.2-.036l.012-.007-.009-.036-.367-3.014.032-.055c.434-.75.386-1.45.071-1.632l-2.088-1.205a.669.669,0,0,0-.628.081,2.16,2.16,0,0,0-.75.8l-1.218,2.109-.118-.007a6,6,0,0,0-1.674.155l-.235.054V60.428a.522.522,0,0,0-.872-.5L41.36,61.63A2.391,2.391,0,0,0,40.3,63.473v1.976l-.061.057a18.816,18.816,0,0,0-1.7,1.813l-.1.126-1.313-.758a.664.664,0,0,0-.628.081,2.162,2.162,0,0,0-.75.8l-2.088,3.618c-.434.75-.386,1.45-.071,1.632l1.366.788-.053.151a18.569,18.569,0,0,0-.649,2.27l-.018.083L32.388,77.17a2.393,2.393,0,0,0-1.064,1.842v3.41a.522.522,0,0,0,.872.5Z" transform="translate(-14.891 -28.36)" fill="#dee4f0"/>
        <path id="Trazado_114954" data-name="Trazado 114954" d="M40.077,113.054a.444.444,0,0,1-.223-.057L35.2,110.274a1,1,0,0,1-.435-.917,2.56,2.56,0,0,1,.365-1.24l1.437-2.489,6.49,3.827-.744,1.619c-.335.579-1.517,1.979-2.235,1.979m-3.372-6.9-1.243,2.152a2.165,2.165,0,0,0-.314,1.048.666.666,0,0,0,.244.584l4.655,2.723c.238.131,1.408-.88,1.928-1.775l.587-1.279Z" transform="translate(-16.731 -50.838)" fill="#dee4f0"/>
        <path id="Trazado_114955" data-name="Trazado 114955" d="M67.128,65.469l-5.485-3.251L62.9,60.047c.514-.89,1.349-1.338,1.9-1.018l4.981,2.942c.442.409-.044,1.221-.515,2.006-.069.114-.135.225-.2.329l-.025.045Zm-4.963-3.388,4.965,2.942,1.634-.952c.054-.093.113-.19.172-.29.259-.432.8-1.331.615-1.5l-4.946-2.916c-.314-.182-.944.128-1.376.878Z" transform="translate(-29.668 -28.36)" fill="#dee4f0"/>
        <path id="Trazado_114956" data-name="Trazado 114956" d="M52.946,68.7l-4.71-2.775v-2a2.787,2.787,0,0,1,1.256-2.176l2.954-1.706a1,1,0,0,1,1.012-.081l0,0L58,62.641a.309.309,0,0,1,.114.414l-3.024,5.571ZM48.62,65.7l4.426,2.607,1.809-.061,2.885-5.314-4.475-2.644a.642.642,0,0,0-.628.081l-2.953,1.705a2.392,2.392,0,0,0-1.064,1.844Z" transform="translate(-23.215 -28.807)" fill="#dee4f0"/>
        <path id="Trazado_114957" data-name="Trazado 114957" d="M36.345,101.377a.311.311,0,0,1-.451.167l-4.518-2.65a1,1,0,0,1-.437-.918v-3.41A2.788,2.788,0,0,1,32.2,92.39l1.7-.981.045-.168.221.113,4.7,2.788Zm-2.27-9.628-1.687.975a2.392,2.392,0,0,0-1.064,1.842v3.41a.639.639,0,0,0,.243.584l4.445,2.606,2.383-6.854Z" transform="translate(-14.891 -43.913)" fill="#dee4f0"/>
        <path id="Trazado_114958" data-name="Trazado 114958" d="M39.973,82.718l-4.713-2.776c-.551-.318-.583-1.266-.069-2.156l2.088-3.617.167.1-.167-.1a2.559,2.559,0,0,1,.891-.936.994.994,0,0,1,1.013-.081l1.172.676L44.9,76.507Zm-1.188-9.286a.9.9,0,0,0-.422.133,2.166,2.166,0,0,0-.75.8l-2.088,3.618c-.434.75-.386,1.449-.071,1.632l4.425,2.607,4.443-5.6-5.332-3.13a.409.409,0,0,0-.206-.052" transform="translate(-16.761 -35.157)" fill="#dee4f0"/>
        <path id="Trazado_114959" data-name="Trazado 114959" d="M44.683,94.293a.786.786,0,0,1-.4-.1L42.2,92.985c-.553-.32-.584-1.268-.071-2.157l1.282-2.22a6.145,6.145,0,0,1-.548-1.124l-1.668.963a.895.895,0,0,1-1.448-.836V84.2A2.741,2.741,0,0,1,41,82.024l1.695-.978a19.1,19.1,0,0,1,.591-2.083l-1.09-.629c-.553-.32-.584-1.267-.071-2.157l2.088-3.617c.514-.89,1.349-1.338,1.9-1.018l1.032.6a19.214,19.214,0,0,1,1.567-1.668V68.661a2.741,2.741,0,0,1,1.256-2.176l2.954-1.705a.895.895,0,0,1,1.448.836v1.643a6.221,6.221,0,0,1,1.429-.12l1.1-1.905A2.557,2.557,0,0,1,57.8,64.3a.994.994,0,0,1,1.013-.081L60.9,65.422a1,1,0,0,1,.436.918,2.553,2.553,0,0,1-.365,1.239l-1.148,1.988a6.481,6.481,0,0,1,.558,1.272L61.9,69.96a.894.894,0,0,1,1.448.836v3.41a2.738,2.738,0,0,1-1.256,2.176L60.332,77.4a19.14,19.14,0,0,1-.612,2l1.176.679a1,1,0,0,1,.436.918,2.556,2.556,0,0,1-.365,1.24l-2.088,3.617c-.515.89-1.35,1.336-1.9,1.018l-1.235-.713a18.965,18.965,0,0,1-1.364,1.42v2.173a2.741,2.741,0,0,1-1.256,2.177l-2.954,1.705a.9.9,0,0,1-1.449-.837V90.757a8.265,8.265,0,0,1-1.2.114l-1.329,2.3a1.981,1.981,0,0,1-1.506,1.12m-1.61-7.375.075.223A5.893,5.893,0,0,0,43.8,88.5l.065.1-1.4,2.423c-.434.751-.386,1.45-.071,1.632l2.088,1.205c.316.185.945-.127,1.378-.877l1.443-2.5.114,0a5.951,5.951,0,0,0,1.456-.151l.234-.052V92.79a.522.522,0,0,0,.872.5l2.954-1.705a2.39,2.39,0,0,0,1.064-1.843V87.4l.061-.057a18.658,18.658,0,0,0,1.5-1.566l.1-.122,1.512.872c.315.184.945-.126,1.378-.877l2.088-3.617a2.162,2.162,0,0,0,.314-1.047.666.666,0,0,0-.244-.585l-1.458-.842.058-.153a18.961,18.961,0,0,0,.675-2.184l.019-.08,1.9-1.1a2.392,2.392,0,0,0,1.063-1.844V70.8a.521.521,0,0,0-.871-.5l-1.946,1.123-.067-.237a6.215,6.215,0,0,0-.647-1.512l-.059-.1,1.26-2.183a2.162,2.162,0,0,0,.314-1.047.666.666,0,0,0-.244-.585l-2.088-1.205a.671.671,0,0,0-.628.081,2.164,2.164,0,0,0-.75.8L56.02,67.535l-.118-.006a6.048,6.048,0,0,0-1.675.155l-.235.054V65.616a.521.521,0,0,0-.871-.5l-2.954,1.705A2.392,2.392,0,0,0,49.1,68.661v1.976l-.061.057a18.839,18.839,0,0,0-1.7,1.813l-.1.126-1.313-.758c-.314-.181-.944.126-1.378.877l-2.088,3.617c-.434.75-.386,1.449-.071,1.632l1.366.788-.053.151a18.571,18.571,0,0,0-.649,2.27l-.018.083-1.842,1.064A2.393,2.393,0,0,0,40.13,84.2v3.411a.521.521,0,0,0,.872.5Z" transform="translate(-19.129 -30.856)" fill="#dee4f0"/>
        <path id="Trazado_114960" data-name="Trazado 114960" d="M52.7,93.491a3.8,3.8,0,0,1-1.925-.5c-1.389-.8-2.153-2.475-2.153-4.713a15.756,15.756,0,0,1,7.118-12.329c1.938-1.118,3.77-1.293,5.158-.492s2.153,2.475,2.153,4.713A15.757,15.757,0,0,1,55.934,92.5a6.574,6.574,0,0,1-3.233.988m6.272-18.14a6.194,6.194,0,0,0-3.039.936,15.333,15.333,0,0,0-6.926,12c0,2.095.7,3.65,1.961,4.38s2.959.555,4.773-.492a15.328,15.328,0,0,0,6.926-12c0-2.094-.7-3.65-1.961-4.38a3.421,3.421,0,0,0-1.734-.444" transform="translate(-23.402 -36.08)" fill="#dee4f0"/>
        <path id="Trazado_114961" data-name="Trazado 114961" d="M54.812,93.347a3.007,3.007,0,0,1-1.525-.394,4.034,4.034,0,0,1-1.7-3.718,12.356,12.356,0,0,1,5.582-9.669,4.036,4.036,0,0,1,4.072-.384,4.035,4.035,0,0,1,1.7,3.718,12.358,12.358,0,0,1-5.582,9.669,5.176,5.176,0,0,1-2.547.778m4.9-14.173a4.793,4.793,0,0,0-2.353.726,11.93,11.93,0,0,0-5.39,9.336,3.675,3.675,0,0,0,1.511,3.385,3.673,3.673,0,0,0,3.687-.384,11.931,11.931,0,0,0,5.39-9.336,3.676,3.676,0,0,0-1.51-3.385,2.637,2.637,0,0,0-1.334-.341" transform="translate(-24.827 -37.92)" fill="#dee4f0"/>
        <path id="Trazado_114962" data-name="Trazado 114962" d="M71.423,92.362l-7.994-4.579c-.06-.04-.193-.11-.2-.114-.817-.373-1.976.077-2.986,1.287a5.466,5.466,0,0,0-1.118,2.18c-.322,1.311-.061,2.327.648,2.747l8.156,4.669a.3.3,0,0,0,.405-.112l3.2-5.686a.288.288,0,0,0-.108-.391m-3.382,5.811-.475-.272-.207-1.994L59.78,91.568a.35.35,0,0,1-.163-.411,5.783,5.783,0,0,1,2.039-2.935,1.973,1.973,0,0,1,.965-.3,1.042,1.042,0,0,1,.438.09s.106.054.165.094l7.924,4.539Z" transform="translate(-28.39 -42.132)" fill="#dee4f0"/>
        <path id="Trazado_114963" data-name="Trazado 114963" d="M76.182,103.066a1.417,1.417,0,0,1-.716-.185,1.855,1.855,0,0,1-.794-1.708,5.485,5.485,0,0,1,2.477-4.291,1.639,1.639,0,0,1,2.669,1.542,5.483,5.483,0,0,1-2.477,4.291,2.356,2.356,0,0,1-1.16.352m2.127-6.151a1.975,1.975,0,0,0-.966.3,5.058,5.058,0,0,0-2.285,3.958,1.265,1.265,0,0,0,2.093,1.208,5.057,5.057,0,0,0,2.285-3.958,1.494,1.494,0,0,0-.6-1.375,1.037,1.037,0,0,0-.525-.134" transform="translate(-35.939 -46.459)" fill="#dee4f0"/>
        <path id="Trazado_114964" data-name="Trazado 114964" d="M37.611,87.387l-.655,2.294,4.568,2.691.655-2.294Z" transform="translate(-17.787 -42.058)" fill="#dee4f0"/>
        <path id="Trazado_114965" data-name="Trazado 114965" d="M44.2,109.147l1.468.835-.556-1.356Z" transform="translate(-21.271 -52.28)" fill="#dee4f0"/>
        <path id="Trazado_114966" data-name="Trazado 114966" d="M48.721,66.306l4.585,2.714-.2,2.54-4.5-2.642Z" transform="translate(-23.394 -31.912)" fill="#dee4f0"/>
        <path id="Trazado_114967" data-name="Trazado 114967" d="M31.31,97.272l4.568,2.646-.116,4.122-4.341-2.649Z" transform="translate(-15.069 -46.816)" fill="#dee4f0"/>
        <path id="Trazado_114968" data-name="Trazado 114968" d="M65.553,97.049a.282.282,0,0,1-.426.2l-2.972-1.826-.3.455L57.348,93.1a.376.376,0,0,1-.162-.107l-4.122-4.4a1.117,1.117,0,0,1,.136-1.337l.308-.428-1.363-1.454c-.771-.824-.543-2.626.521-4.1.024-.034,2.506-3.71.121-6.391L35.9,55.91l.09-.125,5.576-7.742,4.718,2.9V52.75L59.051,65.67a3.082,3.082,0,0,1,.281.252,2.654,2.654,0,0,0,2.1.906,5.024,5.024,0,0,0,3.011-1.9l.239-.332c.9-1.243,2.117-1.843,2.969-1.457a1.231,1.231,0,0,1,.266.163l1.767,1.08a1.054,1.054,0,0,1,.7-.428.514.514,0,0,1,.409.157l.023.024,4.379,2.709-.8,1.1.525.56a1.119,1.119,0,0,1-.137,1.338l-.308.427,2.163,2.308a.768.768,0,0,1-.079.927l-.882,1.226-1.907.5a3.386,3.386,0,0,0-1.656,1.228,18.33,18.33,0,0,1-3.179,7.31A14.322,14.322,0,0,1,63.4,88.561a4.747,4.747,0,0,0-.772,2.136l-.17,2.376-.715.994,4.386-.705ZM62.038,94.9,65.2,96.837l.472-3.012-4.436.714-.106-.313.077-.084.136.036-.006-.037-.076-.054.827-1.149.162-2.267a5.1,5.1,0,0,1,.866-2.368l.032-.048.052-.022a13.879,13.879,0,0,0,5.422-4.688,17.934,17.934,0,0,0,3.121-7.2l.037-.085a3.8,3.8,0,0,1,1.892-1.4l1.772-.462.8-1.112a.483.483,0,0,0,.111-.441L73.973,70.3l.493-.684c.24-.333.287-.723.169-.85l-.742-.792.747-1.027-4.128-2.58a.116.116,0,0,0-.1-.035.734.734,0,0,0-.47.343l-.154.213-2.09-1.28a.967.967,0,0,0-.2-.126c-.675-.305-1.724.256-2.5,1.332l-.241.335a5.326,5.326,0,0,1-3.294,2.058,3.024,3.024,0,0,1-2.4-1.02,2.938,2.938,0,0,0-.265-.237L45.9,52.908V51.157l-4.23-2.6L36.4,55.884,53.074,74.628c2.587,2.908-.067,6.829-.094,6.868-.931,1.292-1.183,2.948-.555,3.618L54,86.8l-.493.684c-.24.333-.286.724-.168.85l4.123,4.4a.1.1,0,0,0,.045.025l4.231,2.595Z" transform="translate(-17.28 -23.122)" fill="#dee4f0"/>
        <path id="Trazado_114969" data-name="Trazado 114969" d="M40.834,65.935,36.852,63.16l17.12,19.7,4.573,2.959-2.106-2.927L41.552,66.452Z" transform="translate(-17.736 -30.398)" fill="#dee4f0"/>
        <path id="Trazado_114970" data-name="Trazado 114970" d="M70.251,126.669l3.957,2.387,3.625,3.978-3.976-2.33Z" transform="translate(-33.811 -60.964)" fill="#dee4f0"/>
        <path id="Trazado_114971" data-name="Trazado 114971" d="M87.636,86.284l-5.873-3.927.166-2.15.263.148c2.187,1.237,4.331-1.556,4.353-1.585l.239-.331c.9-1.243,2.117-1.842,2.969-1.458h0a1.264,1.264,0,0,1,.266.162l1.918,1.172,2.494,1.568Zm-5.472-4.121,5.431,3.632,6.211-5.847-2.071-1.3L89.8,77.459a.955.955,0,0,0-.2-.126c-.674-.3-1.724.255-2.5,1.332L86.855,79c-.025.033-2.207,2.88-4.588,1.824Z" transform="translate(-39.351 -36.995)" fill="#dee4f0"/>
        <path id="Trazado_114972" data-name="Trazado 114972" d="M73.478,127.2l-4.648-2.865A1.117,1.117,0,0,1,68.966,123l.505-.7,4.6,2.824,1.141.2ZM69.1,124.053,73.41,126.7l1.039-1.128-.552-.111-4.322-2.656-.3.411a.867.867,0,0,0-.181.834" transform="translate(-33.047 -58.858)" fill="#dee4f0"/>
        <path id="Trazado_114973" data-name="Trazado 114973" d="M87.463,138.813l2.242,1.341-1.819-2.109Z" transform="translate(-42.095 -66.44)" fill="#dee4f0"/>
        <path id="Trazado_114974" data-name="Trazado 114974" d="M69.639,99.92a.381.381,0,0,1-.285-.122l-2.112-2.252-.264.366a1.1,1.1,0,0,1-.757.5.5.5,0,0,1-.41-.157l-4.122-4.4a1.117,1.117,0,0,1,.136-1.337l.309-.428-1.364-1.455c-.772-.824-.543-2.626.521-4.1.024-.034,2.506-3.71.121-6.391L44.529,61.173l.09-.124,5.6-7.781L67.675,70.934a2.94,2.94,0,0,1,.282.252,2.636,2.636,0,0,0,2.1.906,5.024,5.024,0,0,0,3.011-1.9l.239-.332a3.415,3.415,0,0,1,2.31-1.572,1.3,1.3,0,0,1,1.06.4l1.312,1.4.264-.366a1.106,1.106,0,0,1,.758-.5.513.513,0,0,1,.41.157l4.122,4.4a1.119,1.119,0,0,1-.136,1.338l-.308.427,2.163,2.308a.769.769,0,0,1-.079.929L84.3,80l-1.907.5A3.5,3.5,0,0,0,80.6,81.9L72.174,93.593a4.8,4.8,0,0,0-.919,2.369l-.17,2.376-.89,1.237a.75.75,0,0,1-.528.345h-.029M67.2,96.942l2.431,2.594c.028.016.14-.034.249-.185L70.71,98.2l.162-2.268a5.2,5.2,0,0,1,.99-2.566l8.423-11.693a3.887,3.887,0,0,1,2.008-1.554l1.772-.463.8-1.112a.482.482,0,0,0,.111-.44l-2.38-2.54.493-.685c.24-.332.287-.723.168-.849l-4.122-4.4a.129.129,0,0,0-.1-.036.737.737,0,0,0-.47.344l-.537.745-1.632-1.741a.9.9,0,0,0-.755-.279,3.087,3.087,0,0,0-2.021,1.413l-.242.335a5.327,5.327,0,0,1-3.294,2.058,3.039,3.039,0,0,1-2.4-1.02,2.77,2.77,0,0,0-.264-.237L50.27,53.861l-5.249,7.287L61.7,79.892c2.587,2.907-.067,6.829-.094,6.868-.931,1.292-1.184,2.947-.555,3.618l1.58,1.686-.493.684c-.24.333-.286.724-.168.85L66.091,98a.122.122,0,0,0,.1.036.737.737,0,0,0,.47-.343Z" transform="translate(-21.431 -25.637)" fill="#dee4f0"/>
        <path id="Trazado_114975" data-name="Trazado 114975" d="M88.133,113.424a4.074,4.074,0,0,1-3.062-1.284c-2.56-2.731-1.7-9.031,1.906-14.044,2.322-3.224,5.271-5.25,7.887-5.418a4.133,4.133,0,0,1,3.4,1.273c2.559,2.731,1.7,9.031-1.906,14.044-2.323,3.225-5.271,5.25-7.888,5.419-.114.008-.226.011-.337.011M95.2,93.05c-.1,0-.2,0-.309.01-2.465.159-5.378,2.174-7.6,5.26-3.509,4.872-4.378,10.954-1.938,13.557a3.771,3.771,0,0,0,3.094,1.153c2.466-.159,5.378-2.175,7.6-5.26,3.509-4.872,4.378-10.953,1.938-13.556A3.7,3.7,0,0,0,95.2,93.05" transform="translate(-40.233 -44.599)" fill="#dee4f0"/>
        <path id="Trazado_114976" data-name="Trazado 114976" d="M90.894,113.237a3.084,3.084,0,0,1-2.319-.973c-1.924-2.053-1.288-6.778,1.417-10.533,1.74-2.416,3.952-3.934,5.918-4.06a3.133,3.133,0,0,1,2.573.965c1.923,2.052,1.288,6.778-1.417,10.533-1.741,2.416-3.953,3.934-5.917,4.06-.086.006-.171.008-.255.008m5.268-15.191c-.075,0-.15,0-.227.007-1.824.118-3.982,1.613-5.63,3.9-2.6,3.614-3.254,8.12-1.449,10.045a2.746,2.746,0,0,0,2.268.844c1.825-.117,3.982-1.612,5.631-3.9,2.6-3.614,3.253-8.121,1.449-10.046a2.715,2.715,0,0,0-2.041-.852" transform="translate(-42.095 -47.003)" fill="#dee4f0"/>
        <path id="Trazado_114977" data-name="Trazado 114977" d="M70.056,81.944l-.033.045c-.458.635-1.09.873-1.411.53L53.184,66.061c-.321-.343-.211-1.136.247-1.772l.033-.045c.458-.636,1.09-.873,1.411-.53L70.3,80.172c.322.343.211,1.137-.247,1.772" transform="translate(-25.509 -30.589)" fill="#dee4f0"/>
        <path id="Trazado_114978" data-name="Trazado 114978" d="M68.809,82.691a.683.683,0,0,1-.515-.218L52.867,66.015A1.723,1.723,0,0,1,53.1,64l.033-.045a1.673,1.673,0,0,1,1.138-.765.7.7,0,0,1,.57.216L70.265,79.862a1.723,1.723,0,0,1-.231,2.016L70,81.924a1.668,1.668,0,0,1-1.138.765l-.054,0M54.323,63.572h-.031a1.318,1.318,0,0,0-.85.606l-.033.045c-.434.6-.487,1.289-.262,1.528L68.575,82.21a.3.3,0,0,0,.264.1,1.317,1.317,0,0,0,.851-.606l.032-.045c.435-.6.487-1.29.263-1.529L54.558,63.668a.3.3,0,0,0-.234-.1" transform="translate(-25.331 -30.411)" fill="#dee4f0"/>
        <path id="Trazado_114979" data-name="Trazado 114979" d="M66.752,118.269l4.573,2.82.933,1.682L68.6,120.614l-1.472-1.57Z" transform="translate(-32.127 -56.921)" fill="#dee4f0"/>
        <path id="Trazado_114980" data-name="Trazado 114980" d="M21.039,48.747a8.992,8.992,0,0,1-6.611-2.594l-4.5-4.729,1.413-.442c-.9-4.214,1-9.293,4.9-12.993,4.08-3.876,9.421-5.487,13.685-4.149l.08-1.413,4.4,4.638A8.786,8.786,0,0,1,36.761,33.5,15.492,15.492,0,0,1,31.7,44.087a15.842,15.842,0,0,1-10.659,4.66m-10.4-7.14,4.07,4.28c3.864,3.995,11.369,3.064,16.727-2.077a15.106,15.106,0,0,0,4.945-10.315,8.411,8.411,0,0,0-2.244-6.162h0l-3.789-3.993-.058,1.027-.24-.082c-4.1-1.409-9.545.193-13.535,3.986-3.851,3.66-5.716,8.684-4.75,12.8l.041.174Z" transform="translate(-4.78 -10.794)" fill="#dee4f0"/>
        <path id="Trazado_114981" data-name="Trazado 114981" d="M15.081,42.3a9.014,9.014,0,0,1-6.626-2.6,8.779,8.779,0,0,1-2.36-6.465,15.5,15.5,0,0,1,5.135-10.616c5.515-5.231,13.248-6.122,17.236-1.987a8.781,8.781,0,0,1,2.352,6.439A15.477,15.477,0,0,1,25.743,37.65l-.133-.138.133.138A15.868,15.868,0,0,1,15.081,42.3m6.753-23.887A15.472,15.472,0,0,0,11.494,22.9,15.112,15.112,0,0,0,6.479,33.245a8.406,8.406,0,0,0,2.252,6.189c3.868,4,11.381,3.074,16.747-2.062a15.091,15.091,0,0,0,4.955-10.307A8.406,8.406,0,0,0,28.19,20.9a8.634,8.634,0,0,0-6.356-2.488" transform="translate(-2.932 -8.679)" fill="#dee4f0"/>
        <path id="Trazado_114982" data-name="Trazado 114982" d="M12.351,39.624a9.024,9.024,0,0,1-6.633-2.6L3.846,35l1.411-.44c-.9-4.214,1.008-9.29,4.907-12.987,4.084-3.873,9.43-5.481,13.7-4.14l.081-1.42,1.8,1.948A8.779,8.779,0,0,1,28.093,24.4a15.465,15.465,0,0,1-5.078,10.573,15.878,15.878,0,0,1-10.664,4.647M4.542,35.19,6,36.759c3.867,4,11.382,3.075,16.752-2.059a15.085,15.085,0,0,0,4.959-10.3,8.4,8.4,0,0,0-2.243-6.165l0,0-1.187-1.285-.059,1.019-.24-.082c-4.107-1.41-9.553.187-13.549,3.976-3.855,3.656-5.722,8.679-4.758,12.8l.04.174Z" transform="translate(-1.851 -7.709)" fill="#dee4f0"/>
        <path id="Trazado_114983" data-name="Trazado 114983" d="M21.109,51.816,22.632,53.6l-2.109,1.173-2.33,1.013-3.588.878L10.529,56.4l-2.66-1.361L6.462,53.5l3.317,1.268,3.2.256,2.5-.4,3.424-1.456Z" transform="translate(-3.11 -24.938)" fill="#dee4f0"/>
        <path id="Trazado_114984" data-name="Trazado 114984" d="M27.111,58.4l3.905,4.51-2.405,1.366-2.979,1.217-4.163.528L17.206,64.5,12.8,60.021l1.284.6,3.861,1.022,3.972-.673,2.339-.865Z" transform="translate(-6.159 -28.106)" fill="#dee4f0"/>
        <path id="Trazado_114985" data-name="Trazado 114985" d="M9,35.889a9.034,9.034,0,0,1-6.638-2.6A8.781,8.781,0,0,1,0,26.82,15.486,15.486,0,0,1,5.145,16.21C10.667,10.984,18.406,10.1,22.4,14.234a8.777,8.777,0,0,1,2.351,6.441,15.461,15.461,0,0,1-5.082,10.57A15.884,15.884,0,0,1,9,35.889M15.752,12.01A15.493,15.493,0,0,0,5.41,16.489,15.1,15.1,0,0,0,.387,26.828a8.4,8.4,0,0,0,2.252,6.191c3.87,4,11.389,3.081,16.762-2.05a15.079,15.079,0,0,0,4.963-10.3A8.4,8.4,0,0,0,22.12,14.5a8.651,8.651,0,0,0-6.368-2.492" transform="translate(0 -5.597)" fill="#dee4f0"/>
        <path id="Trazado_114986" data-name="Trazado 114986" d="M107.939,113.343l-7.994-4.579c-.059-.04-.193-.11-.2-.114-.816-.373-1.975.077-2.985,1.287a5.466,5.466,0,0,0-1.118,2.18c-.322,1.311-.061,2.327.648,2.747l8.156,4.669a.3.3,0,0,0,.4-.112l3.2-5.687a.288.288,0,0,0-.108-.391m-3.382,5.811-.475-.272-.058-2.73-7.824-4.48a5,5,0,0,1,1.972-2.469,1.971,1.971,0,0,1,.965-.3,1.051,1.051,0,0,1,.438.09s.106.054.165.094l7.924,4.539Z" transform="translate(-45.964 -52.23)" fill="#dee4f0"/>
        <path id="Trazado_114987" data-name="Trazado 114987" d="M112.7,124.047a1.417,1.417,0,0,1-.716-.185,1.853,1.853,0,0,1-.794-1.708,5.484,5.484,0,0,1,2.477-4.291,1.639,1.639,0,0,1,2.669,1.542,5.482,5.482,0,0,1-2.477,4.291,2.354,2.354,0,0,1-1.16.352m2.127-6.151a1.978,1.978,0,0,0-.967.3,5.059,5.059,0,0,0-2.285,3.958,1.265,1.265,0,0,0,2.093,1.208,5.057,5.057,0,0,0,2.285-3.958,1.494,1.494,0,0,0-.6-1.375,1.037,1.037,0,0,0-.525-.134" transform="translate(-53.514 -56.557)" fill="#dee4f0"/>
        <path id="Trazado_114988" data-name="Trazado 114988" d="M73.173,117.694a1.65,1.65,0,0,1-.965-.364,2.205,2.205,0,0,1-.692-1.482,4.721,4.721,0,0,0-1.789-3.125,2.816,2.816,0,0,1-1.162-2.25,4.556,4.556,0,0,1,1.144-2.749,1.54,1.54,0,0,1-1.117.071.581.581,0,0,1-.306-.519,2.711,2.711,0,0,1,2.131-2.725,1.6,1.6,0,0,0,1.468-1.832l-.039-.224.227,0c.051-.013,1.79.006,1.9,2.436.277.366,1.846,2.536,1.637,4.451a4.139,4.139,0,0,1-1.272,2.393,3.124,3.124,0,0,0-1,1.768,2.5,2.5,0,0,0,.623,1.841,1.42,1.42,0,0,1,.415,1.169,1.458,1.458,0,0,1-.841,1.08,1.075,1.075,0,0,1-.368.064m-2.395-10.913L71,107.1l-.638.515a4.341,4.341,0,0,0-1.41,2.859,2.446,2.446,0,0,0,1.017,1.948,5.112,5.112,0,0,1,1.926,3.349c.117.562.209,1.006.539,1.246a1.067,1.067,0,0,0,.971.25,1.082,1.082,0,0,0,.6-.809c.063-.255-.085-.477-.353-.848a2.861,2.861,0,0,1-.695-2.106,3.462,3.462,0,0,1,1.094-1.991,3.774,3.774,0,0,0,1.174-2.175c.207-1.9-1.577-4.2-1.6-4.219l-.039-.05,0-.063c-.054-1.625-.886-2.006-1.292-2.1a2.016,2.016,0,0,1-1.811,2.026,2.308,2.308,0,0,0-1.812,2.319c.009.151.072.184.1.2.33.175,1.373-.287,2.006-.67" transform="translate(-32.863 -49.327)" fill="#dee4f0"/>
        <path id="Trazado_114989" data-name="Trazado 114989" d="M78.751,109.566c.217-2-1.635-4.36-1.635-4.36-.079-2.339-1.706-2.311-1.706-2.311a1.734,1.734,0,0,1,0,.513,3.4,3.4,0,0,1,.23,1.185s1.853,2.361,1.636,4.36-2.113,2.507-2.268,4.164,1.244,2.164,1.043,2.982a1.284,1.284,0,0,1-.7.936,1.076,1.076,0,0,0,.3.346,1.088,1.088,0,0,0,1.872-.669c.2-.818-1.2-1.326-1.043-2.982s2.051-2.165,2.268-4.164" transform="translate(-36.096 -49.522)" fill="#dee4f0"/>
        <path id="Trazado_114990" data-name="Trazado 114990" d="M110.591,87.447a1.208,1.208,0,0,1-.3-.037c-.391-.1-1.047-.489-1.047-1.959,0-2.336-1.269-2.992-1.282-3l-.016-.009-2.1-1.3a.992.992,0,0,1-.377-.246L104.734,80l1.3.8a17.268,17.268,0,0,0,1.991.531,20.529,20.529,0,0,1,2.423.652,3.7,3.7,0,0,1,2.041,2.122,2.5,2.5,0,0,1-.093,2.094,2.244,2.244,0,0,1-1.8,1.243m-2.451-5.339c.139.073,1.489.848,1.489,3.343,0,.895.268,1.457.755,1.583a1.713,1.713,0,0,0,1.671-1.017,2.122,2.122,0,0,0,.068-1.772,3.294,3.294,0,0,0-1.813-1.892,20.407,20.407,0,0,0-2.373-.636c-.248-.057-.48-.11-.694-.162Z" transform="translate(-50.407 -38.503)" fill="#dee4f0"/>
        <path id="Trazado_114991" data-name="Trazado 114991" d="M113.37,85.526c-.794,1.441-2.79,1.824-2.79-.659a4.569,4.569,0,0,0-.451-2.115,28.413,28.413,0,0,1-3.062-.8l2.123,1.313s1.39.69,1.39,3.173,2,2.1,2.79.659a2.265,2.265,0,0,0,.115-1.825,1.949,1.949,0,0,1-.115.252" transform="translate(-51.53 -39.444)" fill="#dee4f0"/>
        <path id="Trazado_114992" data-name="Trazado 114992" d="M13.792,41.348a1.587,1.587,0,0,1-.97-.355,2.769,2.769,0,0,1-.991-2.066c-.04-1.206-.059-1.757-2.182-2.6-2.045-.81-2.775-2.663-2-5.085a3.184,3.184,0,0,0-.51-3.143.986.986,0,0,0-1.07-.246,2.013,2.013,0,0,0-.9.774c-.543.709-1.014,1.093-2.552.024-2.5-1.735-1.855-5.357-1.4-6.606.034-.092.073-.2.116-.326A12.2,12.2,0,0,1,3.207,18a9.047,9.047,0,0,1,2.74-2.136,14.78,14.78,0,0,0,2.442-1.66c2.935-2.507,5.091-2.546,7.822-2.6l.306-.006c2.95-.058,6.608,1.391,7.378,2.925a8.692,8.692,0,0,1,.355.808c.2.5.2.5,1.456.994l.348.136A4.778,4.778,0,0,1,28.9,19.517a1.589,1.589,0,0,1-.237,1.454c-.542.613-1.17.181-1.629-.134-.494-.34-.635-.382-.757-.223a.523.523,0,0,0-.1.414c.075.509.751,1.229,2.008,2.14a3,3,0,0,1,1.294,2.055,2.06,2.06,0,0,1-.424,1.585,1.278,1.278,0,0,1-1.24.439,1.977,1.977,0,0,1-1.372-1.493c-.435-1.42-2.172-1.249-3.551-.855-1.606.458-2.963,3-2.792,5.223.182,2.359-1.823,3.757-3.764,4.056a4.754,4.754,0,0,1-2.216-.371c-.95-.321-1.5-.476-1.785.089-.578,1.154.278,1.947,1.968,3.364a2.6,2.6,0,0,1,.988,2.668,1.8,1.8,0,0,1-1.2,1.387,1.36,1.36,0,0,1-.3.033M6.425,27.4a1.408,1.408,0,0,1,.98.421,3.608,3.608,0,0,1,.613,3.543c-.413,1.294-.731,3.613,1.774,4.605,2.26.895,2.382,1.587,2.428,2.946a2.4,2.4,0,0,0,.84,1.771,1.14,1.14,0,0,0,.944.25,1.431,1.431,0,0,0,.9-1.1,2.221,2.221,0,0,0-.86-2.278c-1.63-1.366-2.808-2.353-2.066-3.836.448-.895,1.367-.584,2.257-.283a4.445,4.445,0,0,0,2.032.355c1.769-.273,3.6-1.53,3.435-3.642-.187-2.433,1.278-5.115,3.073-5.628,2.217-.633,3.612-.247,4.029,1.115a1.632,1.632,0,0,0,1.08,1.227.882.882,0,0,0,.865-.311,1.7,1.7,0,0,0,.334-1.286,2.623,2.623,0,0,0-1.136-1.785c-1.384-1-2.072-1.765-2.166-2.4a.911.911,0,0,1,.18-.706c.374-.491.88-.143,1.287.137.546.376.835.518,1.117.2a1.221,1.221,0,0,0,.15-1.106,4.364,4.364,0,0,0-2.606-2.777l-.348-.136c-1.367-.535-1.42-.556-1.677-1.215a8.431,8.431,0,0,0-.34-.774c-.7-1.4-4.247-2.763-7.024-2.71L16.218,12c-2.652.049-4.747.087-7.576,2.5a15.2,15.2,0,0,1-2.5,1.7,8.64,8.64,0,0,0-2.637,2.049,11.87,11.87,0,0,0-1.808,3.6c-.045.126-.084.238-.118.331-.43,1.171-1.044,4.557,1.252,6.152,1.349.936,1.6.607,2.022.059a2.387,2.387,0,0,1,1.078-.9,1.412,1.412,0,0,1,.494-.092" transform="translate(-0.377 -5.585)" fill="#dee4f0"/>
        <path id="Trazado_114993" data-name="Trazado 114993" d="M38.454,14.545c.759,1.513.062,1.167,2.263,2.032s3.332,3.285,2.531,4.192c-.005.006-.01.008-.016.014.535.3,1.18,1,1.72.389.8-.907-.33-3.328-2.531-4.192s-1.5-.519-2.263-2.032c-.6-1.189-2.969-2.28-5.32-2.668,1.7.526,3.166,1.367,3.616,2.265" transform="translate(-16.767 -5.91)" fill="#dee4f0"/>
        <path id="Trazado_114994" data-name="Trazado 114994" d="M6.312,41.741c-.784.29-1,1.014-1.435,1.314,2,1.329,1.806-.187,2.9-.8a1.237,1.237,0,0,0-1.466-.513" transform="translate(-2.347 -20.052)" fill="#dee4f0"/>
        <path id="Trazado_114995" data-name="Trazado 114995" d="M33.594,35.842c-1.69.482-3.112,3.091-2.932,5.425s-1.909,3.587-3.6,3.849a2.468,2.468,0,0,1-.475.021,4.754,4.754,0,0,0,2.179.382c1.691-.261,3.779-1.515,3.6-3.849s1.242-4.943,2.932-5.425a7.138,7.138,0,0,1,1.512-.276,3.791,3.791,0,0,0-3.216-.126" transform="translate(-12.796 -17.113)" fill="#dee4f0"/>
        <path id="Trazado_114996" data-name="Trazado 114996" d="M23.043,57.195c-1.714-1.437-2.665-2.306-2.016-3.6a.79.79,0,0,1,.656-.477c-1.041-.337-1.942-.761-2.361.074-.648,1.295.3,2.163,2.017,3.6a2.242,2.242,0,0,1,.2,3.573,1.439,1.439,0,0,0,1.379.545c1.006-.225,1.84-2.279.126-3.716" transform="translate(-9.201 -25.367)" fill="#dee4f0"/>
        <path id="Trazado_114997" data-name="Trazado 114997" d="M49.941,31.056c-1.364-.988-2.382-1.977-2.021-2.7-.613-.228-1.236-1.042-1.627-.529-.559.734.5,1.783,1.944,2.83a2.375,2.375,0,0,1,.837,3.355,1.187,1.187,0,0,1-.2.174,1.168,1.168,0,0,0,1.9.229,2.376,2.376,0,0,0-.837-3.356" transform="translate(-22.207 -13.311)" fill="#dee4f0"/>
        <path id="Trazado_114998" data-name="Trazado 114998" d="M62.366,59.283l-4.992-4.889.391-1.49h0a.71.71,0,0,1,1.388.062,4.338,4.338,0,0,0,.84,2.213,3.227,3.227,0,0,0,2.119.948c.634.1,1.234.19,1.566.757.7,1.2-1.106,2.278-1.184,2.324Zm-4.558-5.009,4.614,4.519c.358-.242,1.341-.994.922-1.712-.239-.408-.7-.479-1.29-.57a3.6,3.6,0,0,1-2.347-1.069,4.687,4.687,0,0,1-.937-2.414.3.3,0,0,0-.3-.266.317.317,0,0,0-.329.24h0Z" transform="translate(-27.613 -25.206)" fill="#dee4f0"/>
        <path id="Trazado_114999" data-name="Trazado 114999" d="M67.231,60.736a1.438,1.438,0,0,0-1.116-.613,1.045,1.045,0,0,1,.087.12c.444.758-.34,1.5-.806,1.846l.719.7s1.727-1.012,1.115-2.057" transform="translate(-31.475 -28.936)" fill="#dee4f0"/>
        <path id="Trazado_115000" data-name="Trazado 115000" d="M59.125,55.046a2.858,2.858,0,0,0,1.426.849,2.871,2.871,0,0,1-.4-.356,4.612,4.612,0,0,1-.889-2.313.511.511,0,0,0-.965-.138,4.16,4.16,0,0,0,.825,1.959" transform="translate(-28.059 -25.411)" fill="#dee4f0"/>
        <path id="Trazado_115001" data-name="Trazado 115001" d="M100.153,123.032l-2.639-1.682c-.587-.374-.7-1.444-.28-2.6l1.4-3.841,4.1-5.574L98.1,106.6a2.912,2.912,0,0,0-.521-.309l-.191-.081a4.14,4.14,0,0,0-3.054.179,11.606,11.606,0,0,0-5.311,5.229l-2.449,4.492a3.594,3.594,0,0,1-2.442,2.018l-3.49.206c-1.53.09-3.333,1.685-4.287,3.792l-2.575,5.684c-.744,1.642-.645,3.236.241,3.876.552.4,1.136.784,1.78,1.173l0,.006,4.774,2.832.932-.245a30.511,30.511,0,0,0,9.367,1.413,36.734,36.734,0,0,0,3.813-.2c1.2-.126,2.542-1.342,3.275-2.96l2.574-5.683c.966-2.133.807-4.231-.379-4.987m.029,4.829-2.575,5.683a4.478,4.478,0,0,1-2.97,2.736,31.566,31.566,0,0,1-13.07-1.212l-.053-.018-.885.233L78.294,133.9l-.148-1.53-4.464-2.737a5.02,5.02,0,0,1,.447-1.665l2.575-5.683c.9-1.984,2.563-3.484,3.96-3.567l3.49-.206a3.919,3.919,0,0,0,2.756-2.218l2.449-4.492a11.211,11.211,0,0,1,5.118-5.057,3.671,3.671,0,0,1,2.921-.114l.032.015a2.717,2.717,0,0,1,.455.273l4.288,2.53L98.308,114.7l-1.435,3.915c-.491,1.349-.316,2.577.436,3.057l2.638,1.682c1.023.652,1.122,2.546.235,4.5" transform="translate(-35.269 -51.014)" fill="#dee4f0"/>
        <path id="Trazado_115002" data-name="Trazado 115002" d="M99.882,142.194A28.421,28.421,0,0,1,83,137.017c-.886-.64-.986-2.234-.241-3.876l2.575-5.683c.954-2.107,2.757-3.7,4.287-3.792l3.49-.206a3.593,3.593,0,0,0,2.442-2.018L98,116.949a11.612,11.612,0,0,1,5.311-5.229c1.953-.793,3.67-.371,4.6,1.126.946,1.526.948,3.979.006,6.563l-1.7,4.671c-.421,1.158-.306,2.227.281,2.6l2.638,1.682c1.186.756,1.345,2.854.379,4.987l-2.575,5.683c-.732,1.618-2.079,2.835-3.274,2.96a36.288,36.288,0,0,1-3.783.2m5.293-30.488a4.575,4.575,0,0,0-1.715.37,11.214,11.214,0,0,0-5.118,5.057l-2.449,4.492a3.918,3.918,0,0,1-2.756,2.217l-3.49.206c-1.4.082-3.061,1.583-3.96,3.567L83.112,133.3c-.657,1.451-.609,2.884.116,3.407,5.572,4.022,12.623,5.72,20.392,4.906a4.478,4.478,0,0,0,2.97-2.737l2.575-5.683c.887-1.958.788-3.852-.235-4.5l-2.638-1.682c-.752-.479-.926-1.708-.436-3.057l1.7-4.671c.9-2.475.913-4.8.03-6.229a2.717,2.717,0,0,0-2.412-1.343" transform="translate(-39.592 -53.58)" fill="#dee4f0"/>
        <path id="Trazado_115003" data-name="Trazado 115003" d="M116.753,127.055a1.851,1.851,0,0,1-.438-.05,1.725,1.725,0,0,1-1.163-.967,4.7,4.7,0,0,1,.3-3.821c1.015-2.241,3.032-3.777,4.5-3.424a1.728,1.728,0,0,1,1.163.967,4.7,4.7,0,0,1-.3,3.82c-.918,2.025-2.655,3.474-4.064,3.474m2.743-7.931c-1.254,0-2.836,1.361-3.692,3.251a4.391,4.391,0,0,0-.307,3.494,1.335,1.335,0,0,0,.907.762c1.3.311,3.119-1.128,4.061-3.208a4.394,4.394,0,0,0,.307-3.494,1.336,1.336,0,0,0-.908-.763,1.577,1.577,0,0,0-.369-.043" transform="translate(-55.285 -57.149)" fill="#dee4f0"/>
        <path id="Trazado_115004" data-name="Trazado 115004" d="M118.373,126.946a1.263,1.263,0,0,1-.3-.034,1.141,1.141,0,0,1-.769-.639,2.985,2.985,0,0,1,.186-2.43c.654-1.444,1.918-2.392,2.873-2.161a1.141,1.141,0,0,1,.769.638,2.985,2.985,0,0,1-.186,2.43h0a3.371,3.371,0,0,1-2.576,2.2m1.7-4.914c-.742,0-1.714.841-2.225,1.97a2.65,2.65,0,0,0-.191,2.1.759.759,0,0,0,.514.434c.758.183,1.872-.709,2.433-1.947a2.65,2.65,0,0,0,.191-2.1.759.759,0,0,0-.514-.433.875.875,0,0,0-.206-.023" transform="translate(-56.371 -58.547)" fill="#dee4f0"/>
        <path id="Trazado_115005" data-name="Trazado 115005" d="M88.7,151.7a.85.85,0,0,0-.574-.475c-.689-.167-1.6.508-2.067,1.536a2.135,2.135,0,0,0-.129,1.741.851.851,0,0,0,.574.475.924.924,0,0,0,.218.026,2.4,2.4,0,0,0,1.849-1.562h0a2.135,2.135,0,0,0,.129-1.74m-2.1,2.9a.47.47,0,0,1-.319-.271,1.786,1.786,0,0,1,.134-1.413,3,3,0,0,1,.455-.711l.652,2.034a1.132,1.132,0,0,1-.922.361m1.626-1.322a2.982,2.982,0,0,1-.4.644l-.647-2.018a1.232,1.232,0,0,1,.728-.325.571.571,0,0,1,.134.015.472.472,0,0,1,.319.27,1.788,1.788,0,0,1-.134,1.413" transform="translate(-41.293 -72.772)" fill="#dee4f0"/>
        <path id="Trazado_115006" data-name="Trazado 115006" d="M124.666,160.294a.848.848,0,0,0-.573-.475c-.694-.168-1.6.508-2.067,1.537a2.133,2.133,0,0,0-.129,1.741.848.848,0,0,0,.574.474.925.925,0,0,0,.218.026,2.4,2.4,0,0,0,1.848-1.563,2.132,2.132,0,0,0,.128-1.74m-2.1,2.9a.47.47,0,0,1-.318-.27,1.787,1.787,0,0,1,.134-1.413,2.983,2.983,0,0,1,.455-.712l.651,2.032a1.141,1.141,0,0,1-.922.363m1.626-1.322h0a2.963,2.963,0,0,1-.4.643l-.647-2.017a1.236,1.236,0,0,1,.729-.325.571.571,0,0,1,.134.015.471.471,0,0,1,.318.27,1.788,1.788,0,0,1-.134,1.413" transform="translate(-58.604 -76.906)" fill="#dee4f0"/>
        <path id="Trazado_115007" data-name="Trazado 115007" d="M134.2,130.751l-12.481-7.2c-.04-.027-.131-.075-.139-.079-.578-.263-1.4.078-2.083.976a3.439,3.439,0,0,0-.567,1.121c-.266.926-.1,1.651.405,1.948l12.648,7.3a.342.342,0,0,0,.468-.129l1.9-3.378a.409.409,0,0,0-.152-.554m-2.062,3.705-.4-.23.161-1.467-12.538-7.236a3.086,3.086,0,0,1,1.234-1.575,1.178,1.178,0,0,1,.574-.179.583.583,0,0,1,.243.049,1.06,1.06,0,0,1,.1.058l12.516,7.221Z" transform="translate(-57.179 -59.384)" fill="#dee4f0"/>
        <path id="Trazado_115008" data-name="Trazado 115008" d="M144.329,141.789a.961.961,0,0,1-.487-.127,1.236,1.236,0,0,1-.536-1.139,3.481,3.481,0,0,1,1.6-2.767,1.1,1.1,0,0,1,1.79,1.033,3.482,3.482,0,0,1-1.6,2.767,1.558,1.558,0,0,1-.767.232m1.341-3.879a1.179,1.179,0,0,0-.574.18,3.11,3.11,0,0,0-1.406,2.434.73.73,0,0,0,1.214.7,3.11,3.11,0,0,0,1.405-2.434.877.877,0,0,0-.344-.806.58.58,0,0,0-.3-.075" transform="translate(-68.971 -66.189)" fill="#dee4f0"/>
        <path id="Trazado_115009" data-name="Trazado 115009" d="M206.862,179.064l-8.415-4.817a1.863,1.863,0,0,1-.784-1.7,5.485,5.485,0,0,1,2.477-4.291,1.932,1.932,0,0,1,1.764-.22c.008,0,.142.074.2.114l8.242,4.721ZM201.3,168.29a1.971,1.971,0,0,0-.965.3,5.057,5.057,0,0,0-2.285,3.957,1.5,1.5,0,0,0,.593,1.369l8.076,4.623,3.108-5.525-7.925-4.54c-.059-.039-.164-.093-.165-.094a1.038,1.038,0,0,0-.437-.09" transform="translate(-95.133 -80.811)" fill="#dee4f0"/>
        <path id="Trazado_115010" data-name="Trazado 115010" d="M214.858,183.433a1.416,1.416,0,0,1-.716-.185,1.853,1.853,0,0,1-.794-1.709,5.485,5.485,0,0,1,2.477-4.291,1.638,1.638,0,0,1,2.669,1.542,5.483,5.483,0,0,1-2.477,4.291,2.356,2.356,0,0,1-1.16.352m2.126-6.151a1.971,1.971,0,0,0-.966.3,5.058,5.058,0,0,0-2.285,3.957,1.265,1.265,0,0,0,2.093,1.209,5.056,5.056,0,0,0,2.285-3.958,1.5,1.5,0,0,0-.6-1.375,1.036,1.036,0,0,0-.525-.133" transform="translate(-102.682 -85.138)" fill="#dee4f0"/>
        <path id="Trazado_115011" data-name="Trazado 115011" d="M129.831,99.991a.39.39,0,0,1-.1-.011l-.977-.235-.151-2.255a1.283,1.283,0,0,0-.629-1.15c-1.974,1.391-3.951,1.943-5.582,1.55a3.907,3.907,0,0,1-1.339-.609l-1.418,1.677a.367.367,0,0,1-.469.077l-4.41-2.66a.388.388,0,0,1-.226-.2.753.753,0,0,1,.036-.63l2.189-4.831-.173-.042a.5.5,0,0,1-.339-.278,1.107,1.107,0,0,1,.06-.909l4.147-9.152c.244-.538.714-.873,1.091-.782l.245.059,1.415-3.123c.752-1.659,2.2-2.754,3.3-2.489.013,0,2.635.377,5.176-5.1l15.839-33.96,5.663,1.372,5.029,3.034-5.687.739-.681-.328L138.517,69.975c-.069.178-.148.372-.243.586-1.34,3.034-1.2,4.616-.838,5.409a1.507,1.507,0,0,0,.816.853v0l.23.051a1.292,1.292,0,0,1,.87.724,3.426,3.426,0,0,1-.216,2.79l-1.385,3.057.174.042a.507.507,0,0,1,.338.278,1.106,1.106,0,0,1-.06.908l-4.147,9.152c-.243.538-.716.874-1.092.783l-.244-.059-2.22,4.9a.833.833,0,0,1-.67.541m-.708-.553.7.169c.051.009.221-.086.325-.315L132.5,94.1l.553.134c.163.039.482-.193.652-.567l4.147-9.152a.739.739,0,0,0,.064-.58.12.12,0,0,0-.083-.074l-.625-.15,1.576-3.48a3.1,3.1,0,0,0,.221-2.463.907.907,0,0,0-.615-.519l-.241-.058a1.786,1.786,0,0,1-.886-.738c-.547-.84-.878-2.572.659-6.05.091-.208.169-.4.24-.578L151.65,39.239l.936.451,4.482-.583-4.062-2.45-5.274-1.269L132.025,69.062c-2.68,5.77-5.485,5.33-5.6,5.309-.9-.218-2.21.824-2.866,2.271l-1.546,3.413-.554-.133c-.168-.039-.482.193-.65.567l-4.147,9.152a.739.739,0,0,0-.065.581.118.118,0,0,0,.083.074l.626.15L114.921,95.7c-.077.171-.057.292-.035.312l.052.021,4.418,2.665L121,96.756l.146.112a3.565,3.565,0,0,0,1.343.649c1.541.371,3.444-.179,5.354-1.551l.081-.058.094.033a1.6,1.6,0,0,1,.975,1.524Z" transform="translate(-55.098 -16.816)" fill="#dee4f0"/>
        <path id="Trazado_115012" data-name="Trazado 115012" d="M122.885,134.534a.309.309,0,0,1-.435.124l-4.323-2.622a.512.512,0,0,1-.307-.269,1.108,1.108,0,0,1,.06-.909l4.147-9.151c.244-.537.714-.874,1.091-.783l.453.118,4.711,2.842Zm.1-13.241c-.174,0-.454.226-.611.572l-4.147,9.152a.74.74,0,0,0-.065.581.118.118,0,0,0,.083.073l.054.023,4.276,2.593,5.2-10.258-4.38-2.642-.37-.089a.165.165,0,0,0-.04,0" transform="translate(-56.67 -58.192)" fill="#dee4f0"/>
        <path id="Trazado_115013" data-name="Trazado 115013" d="M146.4,154.967l-6.92,2.067,6.1,3.323,1.107-1.489Z" transform="translate(-67.132 -74.584)" fill="#dee4f0"/>
        <path id="Trazado_115014" data-name="Trazado 115014" d="M129.561,151.177l-2.756,2.251,5.239,2.85.268-4.674Z" transform="translate(-61.03 -72.759)" fill="#dee4f0"/>
        <path id="Trazado_115015" data-name="Trazado 115015" d="M138.618,105.292a.389.389,0,0,1-.095-.011l-.976-.235-.151-2.255c-.045-.662-.337-1.1-.8-1.217l-8.4-2.021a2.057,2.057,0,0,0-1.711.648l-1.947,1.713-.953-.229a.386.386,0,0,1-.259-.212.755.755,0,0,1,.036-.63l2.189-4.831-.173-.042a.5.5,0,0,1-.339-.279,1.108,1.108,0,0,1,.06-.908l4.146-9.152c.244-.537.714-.874,1.092-.782l.245.059,1.415-3.123c.752-1.66,2.2-2.754,3.295-2.489.013,0,2.635.377,5.176-5.1L156.3,40.24l5.832,1.4-.093.211L147.305,75.276c-.069.178-.149.372-.244.586-1.34,3.034-1.2,4.617-.838,5.41a1.507,1.507,0,0,0,.815.852v0l.23.051a1.292,1.292,0,0,1,.871.724,3.428,3.428,0,0,1-.216,2.79l-1.385,3.056.174.042a.507.507,0,0,1,.338.279,1.107,1.107,0,0,1-.059.908l-4.147,9.152c-.243.537-.715.874-1.092.783l-.245-.059-2.219,4.9a.834.834,0,0,1-.671.541m-.707-.553.7.169c.052.009.221-.086.325-.315l2.35-5.188.554.134c.17.041.482-.194.652-.568l4.147-9.152a.74.74,0,0,0,.064-.581.121.121,0,0,0-.082-.074l-.625-.15,1.576-3.48a3.1,3.1,0,0,0,.221-2.463.91.91,0,0,0-.616-.519l-.24-.058a1.7,1.7,0,0,1-.886-.738c-.548-.84-.878-2.572.659-6.05.091-.208.17-.4.24-.578L161.6,41.91l-5.08-1.223L140.813,74.363c-2.68,5.77-5.486,5.329-5.6,5.309-.9-.22-2.21.824-2.865,2.271L130.8,85.356l-.554-.133c-.167-.04-.482.193-.651.567l-4.146,9.152a.738.738,0,0,0-.065.58.119.119,0,0,0,.083.074l.626.15L123.709,101c-.077.171-.057.292-.035.312l.758.181,1.8-1.581a2.413,2.413,0,0,1,2.055-.734l8.4,2.021a1.57,1.57,0,0,1,1.1,1.565Z" transform="translate(-59.328 -19.367)" fill="#dee4f0"/>
        <path id="Trazado_115016" data-name="Trazado 115016" d="M136.368,142.582a4.573,4.573,0,0,1-1.071-.124,4.138,4.138,0,0,1-2.785-2.322c-1.155-2.362-.863-5.935.779-9.559,2.551-5.63,7.58-9.5,11.218-8.624a4.139,4.139,0,0,1,2.786,2.322c1.154,2.362.864,5.935-.779,9.559-2.308,5.1-6.649,8.749-10.148,8.749m7.048-20.371c-3.344,0-7.529,3.564-9.775,8.524-1.572,3.469-1.872,7.006-.784,9.232a3.77,3.77,0,0,0,2.53,2.118c3.467.832,8.3-2.94,10.778-8.409,1.571-3.469,1.872-7.006.783-9.232a3.767,3.767,0,0,0-2.53-2.117,4.269,4.269,0,0,0-1-.115" transform="translate(-63.44 -58.634)" fill="#dee4f0"/>
        <path id="Trazado_115017" data-name="Trazado 115017" d="M138.936,142.407a3.509,3.509,0,0,1-.825-.1,3.2,3.2,0,0,1-2.157-1.8c-.887-1.815-.665-4.557.594-7.336,1.956-4.317,5.821-7.283,8.616-6.609a3.2,3.2,0,0,1,2.157,1.8c.887,1.815.665,4.558-.594,7.336-1.77,3.906-5.1,6.7-7.791,6.7m5.381-15.552c-2.534,0-5.71,2.71-7.418,6.481-1.195,2.636-1.424,5.321-.6,7.009a2.832,2.832,0,0,0,1.9,1.592c2.628.633,6.292-2.237,8.175-6.395h0c1.194-2.636,1.423-5.321.6-7.009a2.832,2.832,0,0,0-1.9-1.592,3.232,3.232,0,0,0-.757-.087" transform="translate(-65.174 -60.87)" fill="#dee4f0"/>
        <path id="Trazado_115018" data-name="Trazado 115018" d="M159.933,82.46l-.032-.008c-.457-.11-.565-.778-.241-1.492l13.631-30.041c.323-.714.955-1.2,1.412-1.093l.033.008c.456.11.564.778.241,1.492L161.346,81.367c-.324.714-.956,1.2-1.412,1.093" transform="translate(-76.752 -23.973)" fill="#dee4f0"/>
        <path id="Trazado_115019" data-name="Trazado 115019" d="M159.884,82.489a.733.733,0,0,1-.175-.021l-.034-.008a.7.7,0,0,1-.467-.387,1.673,1.673,0,0,1,.1-1.37l13.631-30.042c.365-.806,1.082-1.333,1.633-1.2a.714.714,0,0,1,.5.4,1.673,1.673,0,0,1-.1,1.37L161.342,81.268a1.883,1.883,0,0,1-1.458,1.222m14.527-32.659a1.523,1.523,0,0,0-1.124.99L159.656,80.862a1.321,1.321,0,0,0-.1,1.043.314.314,0,0,0,.214.183l.032.008c.315.071.885-.31,1.192-.986l13.631-30.041a1.324,1.324,0,0,0,.1-1.043.313.313,0,0,0-.214-.183.424.424,0,0,0-.1-.011" transform="translate(-76.573 -23.795)" fill="#dee4f0"/>
        <path id="Trazado_115020" data-name="Trazado 115020" d="M155.439,140.849l-7.994-4.579c-.06-.04-.193-.11-.2-.114-.817-.373-1.976.077-2.986,1.287a5.466,5.466,0,0,0-1.118,2.18c-.322,1.311-.061,2.327.648,2.747l8.156,4.669a.3.3,0,0,0,.405-.112l3.2-5.686a.288.288,0,0,0-.108-.391m-3.382,5.811-.475-.272-.058-2.73-7.824-4.48a5,5,0,0,1,1.972-2.469,1.971,1.971,0,0,1,.965-.3,1.042,1.042,0,0,1,.438.09s.106.054.165.094l7.924,4.539Z" transform="translate(-68.825 -65.469)" fill="#dee4f0"/>
        <path id="Trazado_115021" data-name="Trazado 115021" d="M160.2,151.553a1.418,1.418,0,0,1-.716-.185,1.855,1.855,0,0,1-.794-1.708,5.485,5.485,0,0,1,2.477-4.291,1.639,1.639,0,0,1,2.669,1.542,5.483,5.483,0,0,1-2.477,4.291,2.356,2.356,0,0,1-1.16.352m2.127-6.151a1.975,1.975,0,0,0-.966.3,5.058,5.058,0,0,0-2.285,3.958,1.265,1.265,0,0,0,2.093,1.208,5.057,5.057,0,0,0,2.285-3.958,1.494,1.494,0,0,0-.6-1.375,1.037,1.037,0,0,0-.525-.134" transform="translate(-76.375 -69.795)" fill="#dee4f0"/>
        <path id="Trazado_115022" data-name="Trazado 115022" d="M166.3,52.534a1.448,1.448,0,0,1-.616-.137,1.372,1.372,0,0,1-.8-.992,3.953,3.953,0,0,1,1.213-3.04,3.73,3.73,0,0,0,.913-2.978,11.746,11.746,0,0,1,.034-1.211,4.932,4.932,0,0,1,1.36-3.018,3.582,3.582,0,0,0,1.048-2.139l.046-.479.3.377a9.9,9.9,0,0,0,1.229,1.3c.406.3,3.58,3.863,3.232,4.932a7.266,7.266,0,0,0-.186,1.039c-.173,1.263-.389,2.835-1.448,2.981a2.325,2.325,0,0,1-1.864-.914c-.309-.3-.6-.581-.833-.555-.78.09-1.238.809-1.226,1.923a3.316,3.316,0,0,1-1.433,2.6,1.791,1.791,0,0,1-.968.309m3.471-13.039a4.265,4.265,0,0,1-1.069,1.913,4.544,4.544,0,0,0-1.271,2.8,11.5,11.5,0,0,0-.032,1.172,4.139,4.139,0,0,1-1.011,3.24,3.632,3.632,0,0,0-1.123,2.7.983.983,0,0,0,.583.718,1.237,1.237,0,0,0,1.209-.146,2.941,2.941,0,0,0,1.255-2.268c-.017-1.57.8-2.224,1.571-2.313.417-.046.771.3,1.148.661.454.439.923.9,1.54.809.767-.105.968-1.575,1.116-2.649a7.213,7.213,0,0,1,.2-1.106c.239-.736-2.546-4.1-3.092-4.5a7.5,7.5,0,0,1-1.027-1.04" transform="translate(-79.341 -18.549)" fill="#dee4f0"/>
        <path id="Trazado_115023" data-name="Trazado 115023" d="M171.238,42.084a3.2,3.2,0,0,1-.31-.27c.99,1.076,2.89,3.473,2.65,4.209-.3.911-.223,3.715-1.476,3.888s-1.945-1.556-2.693-1.47-1.413.735-1.4,2.118c.015,1.323-1.318,3.036-2.57,2.653a1.168,1.168,0,0,0,.65.715c1.3.606,2.756-1.21,2.74-2.593s.65-2.031,1.4-2.118,1.439,1.643,2.693,1.47S174.1,47.709,174.4,46.8s-2.686-4.369-3.162-4.715" transform="translate(-79.625 -20.125)" fill="#dee4f0"/>
        <path id="Trazado_115024" data-name="Trazado 115024" d="M174.6,40.316a1.814,1.814,0,0,1,.156.138c-.324-.355-.6-.7-.6-.7,0,.049-.014.091-.021.138a3.918,3.918,0,0,0,.466.426" transform="translate(-83.808 -19.132)" fill="#dee4f0"/>
        <path id="Trazado_115025" data-name="Trazado 115025" d="M183.87,35.548c-2.61,0-6.612-1.028-10.983-2.94-5.592-2.446-10.094-5.695-10.948-7.9a1.65,1.65,0,0,1-.038-1.294l4.892-11.022L192.1,23.143l-5.3,11.348c-.379.714-1.422,1.057-2.93,1.057M166.99,12.895l-4.739,10.677a1.289,1.289,0,0,0,.046,1c.82,2.117,5.238,5.277,10.744,7.686,7.272,3.182,12.624,3.548,13.415,2.064l5.129-10.979Z" transform="translate(-77.865 -5.965)" fill="#dee4f0"/>
        <path id="Trazado_115026" data-name="Trazado 115026" d="M193.384,23.69c-2.7,0-6.819-1.029-11.079-2.846-5.651-2.409-10.209-5.645-11.081-7.867a1.677,1.677,0,0,1-.042-1.32c.9-2.029,7.06-1.312,14.014,1.63,7.014,2.968,11.976,6.967,11.3,9.1a1.569,1.569,0,0,1-.912.934,5.422,5.422,0,0,1-2.2.364M174.206,10.881c-1.424,0-2.391.3-2.672.933a1.309,1.309,0,0,0,.048,1.022c.839,2.135,5.31,5.282,10.875,7.655,5.61,2.392,10.941,3.415,12.965,2.486a1.2,1.2,0,0,0,.7-.7c.6-1.886-4.475-5.839-11.08-8.634a31.238,31.238,0,0,0-10.84-2.761" transform="translate(-82.332 -5.056)" fill="#dee4f0"/>
        <path id="Trazado_115027" data-name="Trazado 115027" d="M195.618,17.217c-2.705,0-6.828-1.02-11.086-2.825-5.666-2.4-10.237-5.633-11.113-7.859a1.677,1.677,0,0,1-.043-1.326,1.329,1.329,0,0,1,.154-.255l.977-2.338,3.854,1.55a36.805,36.805,0,0,1,9.074,2.64,38.494,38.494,0,0,1,8.221,4.592l4.314,1.9L198.762,15.9a1.562,1.562,0,0,1-.914.943,5.494,5.494,0,0,1-2.229.369m-20.9-14.1-.853,2.029a1.438,1.438,0,0,0-.134.222,1.315,1.315,0,0,0,.049,1.028c.842,2.138,5.327,5.282,10.906,7.646,5.625,2.383,10.973,3.395,13.005,2.46a1.217,1.217,0,0,0,.711-.708l.015-.048,1.043-2.251-4-1.767a38.406,38.406,0,0,0-8.175-4.566,36.339,36.339,0,0,0-9-2.617l-.047-.012Z" transform="translate(-83.387 -1.259)" fill="#dee4f0"/>
        <path id="Trazado_115028" data-name="Trazado 115028" d="M197.7,13.843c-2.713,0-6.837-1.013-11.093-2.806-5.68-2.393-10.262-5.621-11.143-7.852a1.682,1.682,0,0,1-.043-1.332c.912-2.044,7.1-1.354,14.1,1.569,7.056,2.949,12.047,6.946,11.362,9.1a1.59,1.59,0,0,1-.921.946,5.572,5.572,0,0,1-2.26.375m-10.944-3.16c5.639,2.376,11,3.377,13.043,2.436a1.229,1.229,0,0,0,.716-.713c.6-1.9-4.5-5.851-11.144-8.628-6.573-2.748-12.8-3.557-13.6-1.767a1.32,1.32,0,0,0,.049,1.034c.846,2.142,5.343,5.283,10.935,7.639" transform="translate(-84.369 -0.328)" fill="#dee4f0"/>
        <path id="Trazado_115029" data-name="Trazado 115029" d="M183.965,35.641c-2.61,0-6.612-1.028-10.983-2.94-5.592-2.446-10.094-5.695-10.948-7.9a1.649,1.649,0,0,1-.038-1.293l4.892-11.022L192.2,23.236l-5.3,11.348c-.38.714-1.422,1.057-2.93,1.057m-16.88-22.653-4.739,10.676a1.29,1.29,0,0,0,.046,1c.82,2.117,5.238,5.277,10.744,7.686,7.272,3.182,12.624,3.548,13.415,2.064l5.129-10.979Z" transform="translate(-77.911 -6.009)" fill="#dee4f0"/>
        <path id="Trazado_115030" data-name="Trazado 115030" d="M182.653,20.927c-6.979-2.976-11.892-6.982-11.023-8.932.854-1.916,7-1.135,13.763,1.729,6.8,2.879,11.832,6.842,11.189,8.869-.655,2.063-6.912,1.326-13.929-1.666" transform="translate(-82.556 -5.268)" fill="#dee4f0"/>
        <path id="Trazado_115031" data-name="Trazado 115031" d="M193.479,23.782c-2.7,0-6.819-1.029-11.079-2.846-5.651-2.409-10.209-5.645-11.081-7.867a1.675,1.675,0,0,1-.041-1.32c.9-2.029,7.06-1.312,14.014,1.63,7.013,2.968,11.975,6.967,11.3,9.1a1.567,1.567,0,0,1-.912.934,5.422,5.422,0,0,1-2.2.364M174.3,10.973c-1.424,0-2.391.3-2.672.933a1.307,1.307,0,0,0,.048,1.022c.838,2.134,5.31,5.282,10.874,7.655,5.61,2.392,10.941,3.415,12.965,2.486a1.2,1.2,0,0,0,.7-.7c.6-1.886-4.475-5.839-11.08-8.634a31.238,31.238,0,0,0-10.84-2.761" transform="translate(-82.377 -5.1)" fill="#dee4f0"/>
        <path id="Trazado_115032" data-name="Trazado 115032" d="M195.713,17.31c-2.705,0-6.828-1.02-11.086-2.825-5.666-2.4-10.236-5.633-11.113-7.859a1.677,1.677,0,0,1-.043-1.326,1.313,1.313,0,0,1,.154-.255l.977-2.338,3.854,1.55A36.8,36.8,0,0,1,187.53,6.9a38.516,38.516,0,0,1,8.221,4.592l4.314,1.9L198.857,16a1.561,1.561,0,0,1-.914.943,5.486,5.486,0,0,1-2.229.37m-20.9-14.1-.853,2.029a1.464,1.464,0,0,0-.134.223,1.315,1.315,0,0,0,.049,1.028c.842,2.138,5.327,5.282,10.906,7.646,5.625,2.383,10.973,3.395,13.005,2.46a1.214,1.214,0,0,0,.711-.708l.015-.047,1.043-2.251-4-1.766a38.407,38.407,0,0,0-8.175-4.566,36.345,36.345,0,0,0-9-2.617l-.047-.012Z" transform="translate(-83.433 -1.303)" fill="#dee4f0"/>
        <path id="Trazado_115033" data-name="Trazado 115033" d="M197.792,13.936c-2.713,0-6.837-1.013-11.093-2.806-5.68-2.393-10.262-5.621-11.144-7.852a1.687,1.687,0,0,1-.043-1.332c.912-2.044,7.1-1.353,14.1,1.569,7.056,2.949,12.047,6.946,11.362,9.1a1.591,1.591,0,0,1-.921.946,5.572,5.572,0,0,1-2.26.375m-10.944-3.16c5.639,2.376,11,3.377,13.043,2.436a1.228,1.228,0,0,0,.716-.713c.6-1.9-4.5-5.852-11.144-8.629-6.573-2.748-12.8-3.557-13.6-1.767a1.318,1.318,0,0,0,.05,1.034c.846,2.142,5.342,5.283,10.934,7.639" transform="translate(-84.415 -0.372)" fill="#dee4f0"/>
        <path id="Trazado_115034" data-name="Trazado 115034" d="M195.084,20.1a2.053,2.053,0,0,1-.284-.02,2.755,2.755,0,0,1-1.977-3.229,2.3,2.3,0,0,1,1.008-1.826,1.915,1.915,0,0,0,.565-.6,1.216,1.216,0,0,0,.186-1.011.847.847,0,0,0-.6-.437c-1.325-.367-2.081-.16-2.308.635a1.956,1.956,0,0,0,.27,1.406,1.968,1.968,0,0,1,.176,1.83,1.607,1.607,0,0,1-1.61.838,2.036,2.036,0,0,1-1.8-1.288,1.859,1.859,0,0,1,.35-1.771,1.713,1.713,0,0,0,.39-1.226c-.119-.8-.688-.846-1.684-.866-.215,0-.437-.009-.659-.025-1.924-.144-4.254-.578-8.24-2.757a19.011,19.011,0,0,1-3.652-2.784,6.432,6.432,0,0,0-2.456-1.724c-1.485-.258-2.237-.3-3.137,1.488a3.306,3.306,0,0,0-.228.969c-.091.66-.195,1.409-.906,1.561a.8.8,0,0,1-.854-.455A3.546,3.546,0,0,1,168.356,5a8.661,8.661,0,0,0,1.184-1.986c.6-1.247,1.162-2.425,2.825-2.425a13.953,13.953,0,0,1,4.8.975,3.619,3.619,0,0,0,1.069.3c-.009-.161-.72-.4-1.145-.537-.691-.23-1.344-.446-1.411-.886A.342.342,0,0,1,175.792.1c.324-.266,1.233,0,3.146.7l.048.018a10.371,10.371,0,0,0,1.233.365,39.3,39.3,0,0,1,7.756,2.748,32.606,32.606,0,0,1,6.51,3.969l.473.35c1.922,1.418,3.192,2.355,3.085,3.8a7,7,0,0,1-.463,1.753,7.667,7.667,0,0,0-.606,3.3,3.1,3.1,0,0,1-.718,2.543,1.664,1.664,0,0,1-1.172.457m-2.212-7.685a4.6,4.6,0,0,1,1.21.19,1.209,1.209,0,0,1,.859.661,1.552,1.552,0,0,1-.2,1.349,2.261,2.261,0,0,1-.668.716,1.924,1.924,0,0,0-.862,1.564,2.374,2.374,0,0,0,1.643,2.8,1.328,1.328,0,0,0,1.137-.335,2.741,2.741,0,0,0,.6-2.23,7.991,7.991,0,0,1,.627-3.457,6.728,6.728,0,0,0,.442-1.651c.09-1.234-1.046-2.072-2.928-3.461l-.474-.35a32.3,32.3,0,0,0-6.447-3.93,38.892,38.892,0,0,0-7.675-2.721,10.74,10.74,0,0,1-1.28-.379l-.048-.017A9.342,9.342,0,0,0,176.036.4c.054.172.727.4,1.172.543.737.244,1.432.475,1.381.975a.338.338,0,0,1-.156.264c-.239.151-.627.013-1.4-.26a13.621,13.621,0,0,0-4.666-.952c-1.418,0-1.884.973-2.474,2.2a9.14,9.14,0,0,1-1.239,2.071,3.192,3.192,0,0,0-.691,3.365c.088.148.232.316.438.273.414-.089.5-.525.6-1.234a3.565,3.565,0,0,1,.266-1.091c1.016-2.026,2.012-1.964,3.551-1.7a6.457,6.457,0,0,1,2.651,1.821,18.468,18.468,0,0,0,3.577,2.731c3.921,2.143,6.2,2.569,8.083,2.71.215.016.429.021.637.024.928.019,1.889.039,2.062,1.2a2.074,2.074,0,0,1-.446,1.492,1.483,1.483,0,0,0-.311,1.435,1.643,1.643,0,0,0,1.46,1.028,1.227,1.227,0,0,0,1.237-.623,1.6,1.6,0,0,0-.181-1.493,2.318,2.318,0,0,1-.291-1.676,1.459,1.459,0,0,1,1.577-1.093" transform="translate(-80.541 0)" fill="#dee4f0"/>
        <path id="Trazado_115035" data-name="Trazado 115035" d="M183.767.582s0,.009.005.013c.878.309,1.4.508,1.427.2a.285.285,0,0,0-.067-.2c-.792-.24-1.415-.344-1.365-.016" transform="translate(-88.443 -0.18)" fill="#dee4f0"/>
        <path id="Trazado_115036" data-name="Trazado 115036" d="M188.714,15.472c-.183-1.224-1.35-.968-2.521-1.057-1.729-.13-4.032-.477-8.161-2.734-2.951-1.613-4.676-4.271-6.167-4.53-1.069-.186-1.823-.279-2.523.395a6.2,6.2,0,0,1-.659.953c-.036.042-.065.086-.1.129s-.041.075-.062.116a3.616,3.616,0,0,0-.8,2.338c.028.865.414,1.475.9,1.372.908-.195.6-1.636,1-2.428.973-1.938,1.852-1.851,3.344-1.592s3.217,2.917,6.167,4.53c4.129,2.256,6.433,2.6,8.161,2.734.506.038,1.01.012,1.435.068a1.464,1.464,0,0,0-.011-.295" transform="translate(-80.72 -3.377)" fill="#dee4f0"/>
        <path id="Trazado_115037" data-name="Trazado 115037" d="M220.538,18.738a1.945,1.945,0,0,1,.209,1.036c-.1,1.383-1.24,2.874-1.068,5.079.144,1.85-.686,2.946-1.955,2.773a1.717,1.717,0,0,1-.518-.16,2.107,2.107,0,0,0,1.615,1.443c1.269.173,2.1-.923,1.955-2.773-.172-2.2.966-3.7,1.068-5.079a2.814,2.814,0,0,0-1.306-2.319" transform="translate(-104.538 -9.018)" fill="#dee4f0"/>
        <path id="Trazado_115038" data-name="Trazado 115038" d="M211.839,26.106c0-.035.01-.064.015-.1-.24-.608-.662-1.2-.451-1.932.3-1.064,1.366-1.038,2.2-.855a.911.911,0,0,0-.751-1.2c-.856-.238-2.2-.449-2.548.77s1.041,2.031.459,3.2a1.57,1.57,0,0,1-2.026.6,1.773,1.773,0,0,0,.067.259c.454,1.306,2.473,1.6,3.055.427.013-.026.02-.052.032-.078a3.386,3.386,0,0,1-.053-1.1" transform="translate(-100.463 -10.512)" fill="#dee4f0"/>
        <path id="Trazado_115039" data-name="Trazado 115039" d="M193.478,43.966a1.639,1.639,0,0,1-.4-.049,1.373,1.373,0,0,1-.959-.9,3.481,3.481,0,0,1,.456-2.947l.187-.273a8.634,8.634,0,0,0,1.7-4.8,6.613,6.613,0,0,0-1.29-4.719l-.775-.889,1.019.593a14.04,14.04,0,0,0,4.148,1.411,11.946,11.946,0,0,0,3.166.1,10.247,10.247,0,0,1,2.933.1,2.014,2.014,0,0,1,1.506.962,1.984,1.984,0,0,1,0,1.58l-.1.217-.193-.139a2.716,2.716,0,0,0-1.319-.483.594.594,0,0,0-.408.293,3.509,3.509,0,0,0-.314,2.882,3.061,3.061,0,0,1-.576,3.039,1.438,1.438,0,0,1-1.61.221,1.576,1.576,0,0,1-.934-.977,3.742,3.742,0,0,1,.563-2.641,2.875,2.875,0,0,0,.158-1.926,1.4,1.4,0,0,0-.666-.914c-1.087-.576-2.1-.247-2.994.98-.876,1.2-1.2,4.462-1.091,6.358a3.011,3.011,0,0,1-1.018,2.46,1.882,1.882,0,0,1-1.2.464m.443-13.3a7.139,7.139,0,0,1,.935,4.369,8.963,8.963,0,0,1-1.77,4.981l-.185.271a3.11,3.11,0,0,0-.414,2.59.987.987,0,0,0,.69.66,1.422,1.422,0,0,0,1.255-.338,2.616,2.616,0,0,0,.877-2.139c-.1-1.88.193-5.282,1.165-6.61,1.283-1.752,2.605-1.562,3.49-1.094a1.792,1.792,0,0,1,.858,1.154,3.219,3.219,0,0,1-.2,2.23,3.449,3.449,0,0,0-.526,2.321,1.186,1.186,0,0,0,.717.739,1.04,1.04,0,0,0,1.195-.151,2.694,2.694,0,0,0,.467-2.632,3.875,3.875,0,0,1,.371-3.231.932.932,0,0,1,.723-.453,2.817,2.817,0,0,1,1.327.417,1.462,1.462,0,0,0-.065-1.027,1.656,1.656,0,0,0-1.236-.756,9.984,9.984,0,0,0-2.83-.092,12.28,12.28,0,0,1-3.261-.1,15.2,15.2,0,0,1-3.582-1.109" transform="translate(-92.391 -14.145)" fill="#dee4f0"/>
        <path id="Trazado_115040" data-name="Trazado 115040" d="M211.315,34.093a1.78,1.78,0,0,1,.032,1.466,2.892,2.892,0,0,0-1.433-.52c-.713,0-1.426,1.815-.908,3.43.469,1.459-.178,3.3-1.486,3.137a1.419,1.419,0,0,0,.73.645c1.6.685,2.443-1.407,1.924-3.022s.195-3.429.908-3.429a2.892,2.892,0,0,1,1.433.52,1.555,1.555,0,0,0-1.2-2.227" transform="translate(-99.877 -16.409)" fill="#dee4f0"/>
        <path id="Trazado_115041" data-name="Trazado 115041" d="M199.094,35.641c-1.1-.584-2.231-.344-3.242,1.037-.951,1.3-1.226,4.736-1.128,6.484a2.44,2.44,0,0,1-2.006,2.714,1.167,1.167,0,0,0,.8.723c1.232.307,2.462-1.08,2.373-2.676-.1-1.748.177-5.185,1.128-6.484a2.481,2.481,0,0,1,2.62-1.267,1.409,1.409,0,0,0-.546-.532" transform="translate(-92.753 -17.01)" fill="#dee4f0"/>
        <path id="Trazado_115042" data-name="Trazado 115042" d="M168.276,120.4c-.413,0-.994-.271-1.6-1.417a6.51,6.51,0,0,1-.626-1.861,8.474,8.474,0,0,1,.291-4.051l.537-1.715.132.813c0,.027.463,2.8,1.385,3.61a3.532,3.532,0,0,1,1.063,3.466,1.424,1.424,0,0,1-1.066,1.147.84.84,0,0,1-.116.008m-1.5-7.417-.064.2a8.082,8.082,0,0,0-.279,3.864,6.107,6.107,0,0,0,.588,1.751c.437.828.912,1.261,1.323,1.2.376-.047.645-.475.737-.853a3.153,3.153,0,0,0-.941-3.082,6.645,6.645,0,0,1-1.362-3.088" transform="translate(-79.857 -53.593)" fill="#dee4f0"/>
        <path id="Trazado_115043" data-name="Trazado 115043" d="M167.783,118.532a6.339,6.339,0,0,1-.607-1.806,7.991,7.991,0,0,1,.058-3.075c-.108-.467-.162-.8-.162-.8l-.292.93a8.253,8.253,0,0,0-.285,3.958,6.34,6.34,0,0,0,.607,1.806c1.114,2.111,2.189,1.264,2.421.307.007-.028.009-.059.015-.087-.464.221-1.1,0-1.754-1.234" transform="translate(-80.072 -54.315)" fill="#dee4f0"/>
        <path id="Trazado_115044" data-name="Trazado 115044" d="M154.272,166.622l-4.753-2.7a1.513,1.513,0,0,1-.337-.267l-2.56-2.732c-.993-1.059-.871-3.252.3-5.334l2.647-4.718a3.327,3.327,0,0,0,.373-3.051L148.25,145.1c-.946-1.524-.949-3.976-.008-6.56a13.786,13.786,0,0,1,4.44-6.163c1.769-1.314,3.553-1.721,4.921-1.125l.009-.007.118.056,3.6,2.042a2.953,2.953,0,0,0,1.574-.982l3.5-3.816c1.352-1.473,2.97-2.022,4.03-1.363l4.582,2.6-1.155,1.622a5.063,5.063,0,0,1-.659,2.884,133.669,133.669,0,0,1-14.941,22.251h1.233Zm1.989-35.25a5.825,5.825,0,0,0-3.347,1.316,13.4,13.4,0,0,0-4.311,5.987c-.9,2.474-.91,4.8-.027,6.226l1.689,2.721a3.648,3.648,0,0,1-.364,3.442l-2.647,4.718c-1.07,1.906-1.217,3.959-.352,4.883l2.56,2.731a1.086,1.086,0,0,0,.241.193l4.41,2.5,4.744-9.158h-1.424l.264-.315a133.18,133.18,0,0,0,15.156-22.493,4.618,4.618,0,0,0,.611-2.732l-.011-.077,1-1.4-4.218-2.4c-.9-.561-2.327-.039-3.551,1.293l-3.5,3.815a3.215,3.215,0,0,1-1.872,1.113l-.063.007-3.7-2.094a2.928,2.928,0,0,0-1.282-.28" transform="translate(-70.245 -61.081)" fill="#dee4f0"/>
        <path id="Trazado_115045" data-name="Trazado 115045" d="M159.061,169.093h-.01a1.475,1.475,0,0,1-1.1-.465l-2.56-2.731c-.977-1.043-.852-3.285.3-5.334l2.647-4.718a3.328,3.328,0,0,0,.373-3.052l-1.689-2.721c-.945-1.523-.948-3.976-.008-6.56a13.788,13.788,0,0,1,4.44-6.162c2.011-1.495,4.041-1.814,5.433-.855l2.438,1.681c.568.392,1.532.045,2.346-.842l3.5-3.815a4.424,4.424,0,0,1,3-1.643,1.883,1.883,0,0,1,1.4.581l2.56,2.73c.757.809.69,2.485-.163,4.078a132.158,132.158,0,0,1-20.62,28.627,3.4,3.4,0,0,1-2.286,1.2m5.99-32.759a5.863,5.863,0,0,0-3.367,1.323,13.39,13.39,0,0,0-4.309,5.986c-.9,2.474-.911,4.8-.027,6.226l1.689,2.721a3.651,3.651,0,0,1-.364,3.443l-2.648,4.718c-1.069,1.906-1.217,3.959-.351,4.882l2.56,2.731a1.083,1.083,0,0,0,.82.344h.008a3.026,3.026,0,0,0,2.008-1.082,131.742,131.742,0,0,0,20.555-28.534c.768-1.434.862-2.962.226-3.641l-2.56-2.731a1.455,1.455,0,0,0-1.106-.461h-.011a4.055,4.055,0,0,0-2.72,1.519l-3.5,3.815c-.962,1.048-2.108,1.408-2.848.9l-2.438-1.681a2.8,2.8,0,0,0-1.617-.478" transform="translate(-74.472 -63.47)" fill="#dee4f0"/>
        <path id="Trazado_115046" data-name="Trazado 115046" d="M165.294,155.272a1.7,1.7,0,0,1-1.278-.537c-1.033-1.1-.7-3.622.732-5.616a4.677,4.677,0,0,1,3.158-2.158,1.726,1.726,0,0,1,1.416.532c1.033,1.1.7,3.621-.732,5.616a4.68,4.68,0,0,1-3.158,2.158c-.047,0-.094,0-.14,0m2.755-7.931c-.038,0-.078,0-.117,0a4.37,4.37,0,0,0-2.871,2c-1.335,1.853-1.678,4.154-.765,5.129a1.341,1.341,0,0,0,1.112.412,4.374,4.374,0,0,0,2.871-2c1.335-1.853,1.678-4.154.764-5.128a1.306,1.306,0,0,0-.994-.416" transform="translate(-78.649 -70.728)" fill="#dee4f0"/>
        <path id="Trazado_115047" data-name="Trazado 115047" d="M166.892,155.163a1.124,1.124,0,0,1-.844-.356c-.673-.719-.477-2.288.448-3.572a2.972,2.972,0,0,1,2.012-1.367,1.141,1.141,0,0,1,.935.353c.674.719.478,2.289-.448,3.572a2.969,2.969,0,0,1-2.012,1.367c-.031,0-.061,0-.091,0m1.707-4.914-.067,0a2.637,2.637,0,0,0-1.724,1.208c-.794,1.1-1.014,2.516-.479,3.085a.762.762,0,0,0,.63.232,2.637,2.637,0,0,0,1.724-1.208c.795-1.1,1.014-2.515.48-3.085a.742.742,0,0,0-.563-.234" transform="translate(-79.724 -72.128)" fill="#dee4f0"/>
        <path id="Trazado_115048" data-name="Trazado 115048" d="M166.007,191.583h0a.861.861,0,0,0-.7-.264,2.126,2.126,0,0,0-1.445.976,2.2,2.2,0,0,0-.307,2.56.839.839,0,0,0,.63.266l.067,0a2.125,2.125,0,0,0,1.444-.976,2.2,2.2,0,0,0,.307-2.56m-1.829.936a1.778,1.778,0,0,1,1.156-.817h.043a.459.459,0,0,1,.35.145.823.823,0,0,1,.183.521l-2.2,1.169a2.9,2.9,0,0,1,.467-1.017m1.21,1.4a1.782,1.782,0,0,1-1.156.817.487.487,0,0,1-.393-.143.865.865,0,0,1-.187-.59l2.222-1.182a2.884,2.884,0,0,1-.486,1.1" transform="translate(-78.578 -92.078)" fill="#dee4f0"/>
        <path id="Trazado_115049" data-name="Trazado 115049" d="M201.8,141.887a.853.853,0,0,0-.7-.264,2.123,2.123,0,0,0-1.444.976,2.2,2.2,0,0,0-.307,2.56.839.839,0,0,0,.63.266l.067,0a2.125,2.125,0,0,0,1.444-.976,2.2,2.2,0,0,0,.307-2.56m-1.829.936a1.776,1.776,0,0,1,1.156-.816l.043,0a.458.458,0,0,1,.35.145.82.82,0,0,1,.183.521l-2.2,1.169a2.908,2.908,0,0,1,.468-1.017m1.21,1.4a1.782,1.782,0,0,1-1.156.817.483.483,0,0,1-.393-.143.868.868,0,0,1-.187-.59l2.222-1.182a2.888,2.888,0,0,1-.486,1.1" transform="translate(-95.806 -68.161)" fill="#dee4f0"/>
        <path id="Trazado_115050" data-name="Trazado 115050" d="M146.435,190.319l4.581,2.563.521,1.012,2.105,2.352-3.8-1.974-2.844-2.958Z" transform="translate(-70.477 -91.598)" fill="#dee4f0"/>
        <path id="Trazado_115051" data-name="Trazado 115051" d="M149.337,156.166l4.613,2.755.192,1.538.9,2.146,1.234,1.777.175.722-4.485-2.563-.1-.576-1.986-2.98Z" transform="translate(-71.874 -75.161)" fill="#dee4f0"/>
        <path id="Trazado_115052" data-name="Trazado 115052" d="M182.68,158.927l-12.481-7.2c-.04-.027-.131-.075-.139-.079-.578-.264-1.4.078-2.083.976a3.438,3.438,0,0,0-.567,1.121c-.266.926-.1,1.651.405,1.948l12.648,7.3a.341.341,0,0,0,.468-.129l1.9-3.378a.408.408,0,0,0-.152-.554m-2.062,3.705-.4-.23.161-1.467L167.841,153.7a3.086,3.086,0,0,1,1.234-1.575,1.178,1.178,0,0,1,.574-.179.583.583,0,0,1,.243.049,1.064,1.064,0,0,1,.1.058l12.516,7.221Z" transform="translate(-80.512 -72.944)" fill="#dee4f0"/>
        <path id="Trazado_115053" data-name="Trazado 115053" d="M192.81,169.965a.96.96,0,0,1-.487-.127,1.236,1.236,0,0,1-.536-1.139,3.482,3.482,0,0,1,1.6-2.767,1.1,1.1,0,0,1,1.79,1.033,3.482,3.482,0,0,1-1.6,2.767,1.558,1.558,0,0,1-.767.232m1.341-3.879a1.179,1.179,0,0,0-.574.18,3.11,3.11,0,0,0-1.406,2.434.73.73,0,0,0,1.214.7,3.11,3.11,0,0,0,1.405-2.434.877.877,0,0,0-.344-.806.58.58,0,0,0-.3-.075" transform="translate(-92.305 -79.75)" fill="#dee4f0"/>
        <path id="Trazado_115054" data-name="Trazado 115054" d="M195.182,192.979c-1.221-.129-3.189-.35-3.53-.422l-.044-.017c-.074-.028-.117-.044-.223.129l-.029-.01-.03.09.007.011c-.158.294-.437.929-1.02,2.257l-.067.154,3.476,2.123.886-2.027.817-2.262Z" transform="translate(-91.563 -92.658)" fill="#dee4f0"/>
        <path id="Trazado_115055" data-name="Trazado 115055" d="M215.492,156.742l-2.087-3.324,2.442-1.1,2.552,1.672a.262.262,0,0,1,.02.424Zm-1.527-3.155,1.624,2.586,2.457-1.955-2.233-1.464Z" transform="translate(-102.709 -73.309)" fill="#dee4f0"/>
        <path id="Trazado_115056" data-name="Trazado 115056" d="M174.637,169.477a.785.785,0,0,1-.4-.1l-2.088-1.206a1,1,0,0,1-.436-.918,2.558,2.558,0,0,1,.365-1.24l1.282-2.22a6.2,6.2,0,0,1-.548-1.124l-1.667.963a.894.894,0,0,1-1.448-.836v-3.411a2.741,2.741,0,0,1,1.256-2.176l1.695-.978a19.108,19.108,0,0,1,.591-2.083l-1.09-.629c-.553-.32-.584-1.267-.071-2.157l2.088-3.617a2.555,2.555,0,0,1,.891-.936,1,1,0,0,1,1.013-.081l1.031.6a19.109,19.109,0,0,1,1.568-1.668v-1.809a2.74,2.74,0,0,1,1.256-2.176l2.954-1.705a.895.895,0,0,1,1.449.836v1.643a6.291,6.291,0,0,1,1.428-.12l1.1-1.9a2.542,2.542,0,0,1,.891-.936,1,1,0,0,1,1.013-.081l2.088,1.206c.542.313.583,1.227.1,2.1l.336,2.764.565-.326a.894.894,0,0,1,1.448.836v3.41a2.739,2.739,0,0,1-1.256,2.176l-1.759,1.016a19.217,19.217,0,0,1-.612,2l1.176.679c.553.32.584,1.267.071,2.157l-2.088,3.617a2.554,2.554,0,0,1-.891.936,1,1,0,0,1-1.013.081l-1.235-.712a18.953,18.953,0,0,1-1.364,1.42v2.173a2.74,2.74,0,0,1-1.257,2.177l-2.953,1.7a.895.895,0,0,1-1.448-.837v-.545a.391.391,0,0,1-.047.057.345.345,0,0,1-.217.1l-2.3.831a1.945,1.945,0,0,1-1.471,1.06m-1.61-7.375.075.222a5.889,5.889,0,0,0,.647,1.357l.065.1-1.4,2.423a2.165,2.165,0,0,0-.314,1.048.667.667,0,0,0,.244.584l2.088,1.206c.316.185.945-.127,1.377-.877l.036-.061,2.493-.9h.035a2.352,2.352,0,0,0,.034-.576c0-.476,0-1.015.414-1.109l.234-.052v2.508a.521.521,0,0,0,.871.5l2.954-1.705a2.389,2.389,0,0,0,1.064-1.843v-2.34l.062-.057a18.487,18.487,0,0,0,1.5-1.567l.1-.121,1.512.872a.669.669,0,0,0,.628-.081,2.16,2.16,0,0,0,.75-.8l2.088-3.617c.434-.75.386-1.449.071-1.632l-1.458-.841.057-.153a18.928,18.928,0,0,0,.675-2.184l.019-.08,1.9-1.1a2.393,2.393,0,0,0,1.064-1.843v-3.41a.522.522,0,0,0-.872-.5l-.785.453a.442.442,0,0,1-.19.11l-.97.56-.067-.237a.428.428,0,0,1,.04-.364.882.882,0,0,1,.646-.28c.061-.009.141-.022.2-.036l.012-.007-.009-.036-.367-3.014.032-.056c.434-.75.386-1.45.071-1.632l-2.088-1.206a.669.669,0,0,0-.628.081,2.16,2.16,0,0,0-.75.8l-1.218,2.109-.118-.007a6,6,0,0,0-1.674.155l-.236.054V140.8a.522.522,0,0,0-.872-.5L180.12,142a2.391,2.391,0,0,0-1.064,1.843v1.976l-.061.057a18.82,18.82,0,0,0-1.7,1.813l-.1.126-1.313-.758a.664.664,0,0,0-.628.081,2.164,2.164,0,0,0-.75.8l-2.088,3.617c-.434.75-.386,1.45-.071,1.632l1.366.788-.053.151a18.566,18.566,0,0,0-.649,2.27l-.018.083-1.842,1.064a2.393,2.393,0,0,0-1.064,1.842V162.8a.521.521,0,0,0,.872.5Z" transform="translate(-81.674 -67.042)" fill="#dee4f0"/>
        <path id="Trazado_115057" data-name="Trazado 115057" d="M178.837,193.426a.445.445,0,0,1-.223-.057l-4.655-2.723a1,1,0,0,1-.435-.917,2.56,2.56,0,0,1,.365-1.24L175.327,186l6.49,3.827-.744,1.619c-.335.579-1.517,1.979-2.235,1.979m-3.372-6.9-1.243,2.153a2.162,2.162,0,0,0-.314,1.047.666.666,0,0,0,.244.584l4.655,2.723c.238.131,1.408-.88,1.928-1.775l.587-1.279Z" transform="translate(-83.515 -89.52)" fill="#dee4f0"/>
        <path id="Trazado_115058" data-name="Trazado 115058" d="M205.888,145.841,200.4,142.59l1.253-2.171c.514-.89,1.349-1.338,1.9-1.018l4.981,2.942c.442.409-.044,1.221-.515,2.006-.068.114-.134.225-.195.329l-.025.045Zm-4.963-3.388,4.965,2.942,1.634-.953c.054-.093.113-.19.172-.29.259-.432.8-1.331.616-1.5l-4.946-2.916c-.314-.182-.944.128-1.377.878Z" transform="translate(-96.451 -67.042)" fill="#dee4f0"/>
        <path id="Trazado_115059" data-name="Trazado 115059" d="M191.707,149.07,187,146.3v-2a2.788,2.788,0,0,1,1.256-2.176l2.954-1.706a1,1,0,0,1,1.012-.081l0,0,4.538,2.682a.309.309,0,0,1,.115.414L193.849,149Zm-4.327-2.995,4.426,2.607,1.809-.061,2.885-5.314-4.475-2.644a.642.642,0,0,0-.628.081l-2.952,1.7a2.392,2.392,0,0,0-1.064,1.844Z" transform="translate(-89.999 -67.489)" fill="#dee4f0"/>
        <path id="Trazado_115060" data-name="Trazado 115060" d="M175.105,181.749a.311.311,0,0,1-.451.166l-4.518-2.649a1,1,0,0,1-.437-.918v-3.411a2.787,2.787,0,0,1,1.256-2.175l1.7-.982.045-.168.221.113,4.7,2.788Zm-2.27-9.628-1.687.975a2.392,2.392,0,0,0-1.064,1.842v3.411a.638.638,0,0,0,.243.584l4.445,2.606,2.383-6.854Z" transform="translate(-81.674 -82.595)" fill="#dee4f0"/>
        <path id="Trazado_115061" data-name="Trazado 115061" d="M178.732,163.09l-4.713-2.776c-.551-.318-.583-1.266-.069-2.156l2.088-3.617.167.1-.167-.1a2.558,2.558,0,0,1,.891-.936.994.994,0,0,1,1.013-.081l1.172.676,4.543,2.679Zm-1.188-9.286a.9.9,0,0,0-.421.133,2.161,2.161,0,0,0-.75.8l-2.088,3.617c-.434.75-.386,1.449-.071,1.632l4.425,2.607,4.443-5.6-5.332-3.13a.409.409,0,0,0-.206-.052" transform="translate(-83.544 -73.839)" fill="#dee4f0"/>
        <path id="Trazado_115062" data-name="Trazado 115062" d="M183.443,174.665a.786.786,0,0,1-.4-.1l-2.088-1.206c-.553-.32-.584-1.268-.071-2.157l1.282-2.22a6.144,6.144,0,0,1-.548-1.124l-1.668.963a.895.895,0,0,1-1.448-.836v-3.411a2.741,2.741,0,0,1,1.256-2.176l1.695-.978a19.1,19.1,0,0,1,.591-2.083l-1.09-.629c-.553-.32-.584-1.267-.071-2.157l2.088-3.617c.514-.89,1.349-1.338,1.9-1.018l1.032.6a19.216,19.216,0,0,1,1.567-1.668v-1.809a2.741,2.741,0,0,1,1.256-2.176l2.954-1.705a.895.895,0,0,1,1.448.836v1.643a6.253,6.253,0,0,1,1.429-.12l1.1-1.9a2.557,2.557,0,0,1,.891-.937.994.994,0,0,1,1.013-.081l2.088,1.205a1,1,0,0,1,.436.918,2.56,2.56,0,0,1-.365,1.239l-1.148,1.988a6.481,6.481,0,0,1,.558,1.272l1.523-.879a.894.894,0,0,1,1.448.836v3.41a2.738,2.738,0,0,1-1.256,2.176l-1.76,1.016a19.18,19.18,0,0,1-.612,2l1.176.679a1,1,0,0,1,.436.918,2.562,2.562,0,0,1-.365,1.24l-2.088,3.617c-.515.89-1.35,1.335-1.9,1.018l-1.235-.713a18.885,18.885,0,0,1-1.364,1.421v2.173a2.742,2.742,0,0,1-1.256,2.177L188.926,174a.9.9,0,0,1-1.449-.837v-2.033a8.2,8.2,0,0,1-1.2.114l-1.329,2.3a1.981,1.981,0,0,1-1.506,1.12m-1.61-7.375.075.223a5.892,5.892,0,0,0,.647,1.356l.065.1-1.4,2.423c-.434.751-.386,1.45-.071,1.632l2.088,1.205c.316.185.945-.127,1.377-.877l1.443-2.5.114,0a5.951,5.951,0,0,0,1.455-.151l.234-.052v2.508a.522.522,0,0,0,.872.5l2.954-1.705a2.39,2.39,0,0,0,1.064-1.843v-2.34l.061-.057a18.584,18.584,0,0,0,1.5-1.567l.1-.121,1.512.872c.315.184.945-.126,1.378-.877l2.088-3.617a2.161,2.161,0,0,0,.314-1.047.667.667,0,0,0-.244-.585l-1.458-.842.058-.152a18.969,18.969,0,0,0,.675-2.184l.019-.08,1.9-1.1a2.392,2.392,0,0,0,1.063-1.844v-3.41a.522.522,0,0,0-.871-.5l-1.946,1.124-.067-.237a6.219,6.219,0,0,0-.647-1.512l-.059-.1,1.26-2.183a2.161,2.161,0,0,0,.314-1.047.668.668,0,0,0-.244-.585l-2.088-1.206a.672.672,0,0,0-.628.081,2.16,2.16,0,0,0-.75.8l-1.218,2.109-.118-.006a6.048,6.048,0,0,0-1.675.155l-.235.054v-2.122a.522.522,0,0,0-.871-.5l-2.954,1.705a2.392,2.392,0,0,0-1.064,1.843v1.976l-.061.057a18.845,18.845,0,0,0-1.7,1.813L186,153l-1.313-.758c-.314-.181-.945.126-1.378.877l-2.088,3.617c-.434.75-.386,1.449-.071,1.632l1.366.788-.053.151a18.566,18.566,0,0,0-.649,2.27l-.018.083-1.842,1.064a2.393,2.393,0,0,0-1.064,1.842v3.411a.521.521,0,0,0,.872.5Z" transform="translate(-85.913 -69.538)" fill="#dee4f0"/>
        <path id="Trazado_115063" data-name="Trazado 115063" d="M191.462,173.863a3.8,3.8,0,0,1-1.925-.5c-1.389-.8-2.153-2.475-2.153-4.713a15.756,15.756,0,0,1,7.118-12.329c1.938-1.118,3.77-1.293,5.158-.492s2.153,2.475,2.153,4.713a15.757,15.757,0,0,1-7.119,12.329,6.571,6.571,0,0,1-3.232.988m6.272-18.14a6.192,6.192,0,0,0-3.04.936,15.334,15.334,0,0,0-6.925,12c0,2.095.7,3.65,1.961,4.38s2.959.555,4.773-.492a15.328,15.328,0,0,0,6.926-12c0-2.094-.7-3.65-1.961-4.38a3.421,3.421,0,0,0-1.734-.444" transform="translate(-90.185 -74.762)" fill="#dee4f0"/>
        <path id="Trazado_115064" data-name="Trazado 115064" d="M193.572,173.719a3.007,3.007,0,0,1-1.525-.393,4.034,4.034,0,0,1-1.7-3.718,12.356,12.356,0,0,1,5.582-9.669,3.531,3.531,0,0,1,5.775,3.334,12.358,12.358,0,0,1-5.583,9.669,5.171,5.171,0,0,1-2.546.777m4.9-14.173a4.8,4.8,0,0,0-2.354.726,11.93,11.93,0,0,0-5.39,9.336,3.157,3.157,0,0,0,5.2,3,11.931,11.931,0,0,0,5.39-9.336,3.676,3.676,0,0,0-1.51-3.385,2.632,2.632,0,0,0-1.334-.341" transform="translate(-91.61 -76.602)" fill="#dee4f0"/>
        <path id="Trazado_115065" data-name="Trazado 115065" d="M210.183,172.733l-7.994-4.579c-.06-.04-.193-.11-.2-.114-.817-.373-1.976.077-2.986,1.287a5.466,5.466,0,0,0-1.118,2.18c-.322,1.311-.061,2.327.648,2.747l8.156,4.669a.3.3,0,0,0,.405-.112l3.2-5.687a.288.288,0,0,0-.108-.391m-3.382,5.811-.475-.272-.058-2.73-7.824-4.48a5,5,0,0,1,1.972-2.469,1.971,1.971,0,0,1,.965-.3,1.05,1.05,0,0,1,.438.09s.106.054.165.094l7.924,4.539Z" transform="translate(-95.173 -80.814)" fill="#dee4f0"/>
        <path id="Trazado_115066" data-name="Trazado 115066" d="M214.942,183.438a1.417,1.417,0,0,1-.716-.185,1.854,1.854,0,0,1-.794-1.708,5.485,5.485,0,0,1,2.477-4.291,1.639,1.639,0,0,1,2.669,1.542,5.483,5.483,0,0,1-2.477,4.291,2.356,2.356,0,0,1-1.16.352m2.127-6.151a1.975,1.975,0,0,0-.966.3,5.058,5.058,0,0,0-2.285,3.958,1.265,1.265,0,0,0,2.093,1.208A5.057,5.057,0,0,0,218.2,178.8a1.494,1.494,0,0,0-.6-1.375,1.037,1.037,0,0,0-.525-.134" transform="translate(-102.722 -85.141)" fill="#dee4f0"/>
        <path id="Trazado_115067" data-name="Trazado 115067" d="M176.371,167.759l-.655,2.294,4.568,2.691.655-2.294Z" transform="translate(-84.57 -80.74)" fill="#dee4f0"/>
        <path id="Trazado_115068" data-name="Trazado 115068" d="M182.956,189.519l1.468.835L183.868,189Z" transform="translate(-88.054 -90.962)" fill="#dee4f0"/>
        <path id="Trazado_115069" data-name="Trazado 115069" d="M187.481,146.678l4.585,2.714-.2,2.54-4.5-2.642Z" transform="translate(-90.177 -70.594)" fill="#dee4f0"/>
        <path id="Trazado_115070" data-name="Trazado 115070" d="M170.07,177.644l4.568,2.646-.116,4.122-4.341-2.649Z" transform="translate(-81.852 -85.498)" fill="#dee4f0"/>
        <path id="Trazado_115071" data-name="Trazado 115071" d="M193.159,202.22a1.69,1.69,0,0,1-1-.315,1.428,1.428,0,0,1-.583-1.069,1.88,1.88,0,0,1,.259-1.056,1.733,1.733,0,0,0,.225-1.174,1.389,1.389,0,0,0-.834-1.14.516.516,0,0,1-.354.163c-.269.011-.564-.231-.85-.727a1.706,1.706,0,0,1-.044-1.62,2.54,2.54,0,0,1,1.883-1.355,4.06,4.06,0,0,1,2.922.858c.11.072.212.137.3.192a2.583,2.583,0,0,0,.9.245,2.175,2.175,0,0,1,1.374.55,1.359,1.359,0,0,1,.276,1.343,1.342,1.342,0,0,1-1.1.868,1.643,1.643,0,0,1-1.217-.236,1.006,1.006,0,0,0-.878-.145.584.584,0,0,0-.416.411,1.443,1.443,0,0,0,.4,1.315,1.755,1.755,0,0,1,.286,1.7,1.638,1.638,0,0,1-1.092,1.136,2,2,0,0,1-.456.054m-2.109-5.206.148.034a1.747,1.747,0,0,1,1.245,1.5,2.118,2.118,0,0,1-.26,1.4,1.52,1.52,0,0,0-.22.856,1.032,1.032,0,0,0,.425.783,1.392,1.392,0,0,0,1.138.2,1.268,1.268,0,0,0,.812-.877,1.372,1.372,0,0,0-.212-1.328,1.822,1.822,0,0,1-.474-1.684.976.976,0,0,1,.689-.671,1.389,1.389,0,0,1,1.163.181,1.3,1.3,0,0,0,.966.192.953.953,0,0,0,.8-.612.966.966,0,0,0-.2-.954,1.874,1.874,0,0,0-1.145-.427,2.887,2.887,0,0,1-1.04-.3c-.1-.058-.2-.126-.316-.2a3.672,3.672,0,0,0-2.647-.8,2.148,2.148,0,0,0-1.6,1.138,1.327,1.327,0,0,0,.03,1.26c.294.509.455.538.5.531.067,0,.119-.09.12-.091Z" transform="translate(-91.345 -93.315)" fill="#dee4f0"/>
        <path id="Trazado_115072" data-name="Trazado 115072" d="M199.356,197.522a1.856,1.856,0,0,0-1.145-.471s.009.006.012.01a1.126,1.126,0,0,1-.715,1.888c-1.085.18-1.134-.631-2.112-.377-.693.181-.857,1.171-.116,2.041a1.644,1.644,0,0,1-.7,2.521,1.782,1.782,0,0,1-.359.045,1.513,1.513,0,0,0,1.492.416,1.645,1.645,0,0,0,.7-2.521c-.742-.869-.578-1.86.116-2.041.978-.255,1.027.557,2.112.377a1.126,1.126,0,0,0,.715-1.888" transform="translate(-93.474 -94.838)" fill="#dee4f0"/>
        <path id="Trazado_115073" data-name="Trazado 115073" d="M217.484,165.5a3.6,3.6,0,0,0-.4-.227c-1.384-.664-3.167-.441-5.021.629a16.091,16.091,0,0,0-7.269,12.591,5.531,5.531,0,0,0,1.817,4.554,3.489,3.489,0,0,0,.765.444l3.357,1.942,1.635-2.7a16.132,16.132,0,0,0,7.123-11.769l1.077-1.779.384-1.713Zm2.737,3.512-1.084,1.791-.027.087a15.929,15.929,0,0,1-6.98,11.535l-1.532,2.486-1.216-.7-.786-2.366-.192-2.519.756-3.023-3.223-1.907c.142-.407.3-.813.475-1.214l3.22,1.918.957-1.874-3.244-1.853a14.384,14.384,0,0,1,4.91-5.134,6.319,6.319,0,0,1,3.1-.952,3.588,3.588,0,0,1,1.568.341,3.262,3.262,0,0,1,.358.2l3.23,1.836Z" transform="translate(-98.564 -79.363)" fill="#dee4f0"/>
        <path id="Trazado_115074" data-name="Trazado 115074" d="M215.543,187.561a3.881,3.881,0,0,1-1.964-.505c-1.417-.818-2.2-2.527-2.2-4.811a16.091,16.091,0,0,1,7.269-12.59c1.977-1.142,3.847-1.321,5.264-.5s2.2,2.526,2.2,4.81a16.091,16.091,0,0,1-7.269,12.591,6.712,6.712,0,0,1-3.3,1.008m6.407-18.529a6.328,6.328,0,0,0-3.107.956,15.663,15.663,0,0,0-7.077,12.257c0,2.141.712,3.731,2,4.478s3.026.568,4.88-.5a15.662,15.662,0,0,0,7.077-12.257c0-2.14-.712-3.731-2-4.477a3.5,3.5,0,0,0-1.773-.454" transform="translate(-101.735 -81.167)" fill="#dee4f0"/>
        <path id="Trazado_115075" data-name="Trazado 115075" d="M218.043,187.392a2.939,2.939,0,0,1-1.49-.384,3.943,3.943,0,0,1-1.665-3.633,12.063,12.063,0,0,1,5.45-9.44,3.45,3.45,0,0,1,5.642,3.258,12.066,12.066,0,0,1-5.45,9.441,5.054,5.054,0,0,1-2.487.759m4.782-13.831a4.673,4.673,0,0,0-2.295.708,11.637,11.637,0,0,0-5.258,9.107,3.077,3.077,0,0,0,5.066,2.925,11.639,11.639,0,0,0,5.258-9.107,3.582,3.582,0,0,0-1.472-3.3,2.558,2.558,0,0,0-1.3-.333" transform="translate(-103.423 -83.347)" fill="#dee4f0"/>
        <path id="Trazado_115076" data-name="Trazado 115076" d="M219.709,187.279a2.322,2.322,0,0,1-1.175-.3,3.091,3.091,0,0,1-1.309-2.848,9.381,9.381,0,0,1,4.238-7.34,2.711,2.711,0,0,1,4.43,2.558,9.381,9.381,0,0,1-4.237,7.34,3.953,3.953,0,0,1-1.946.593m3.7-10.7a3.571,3.571,0,0,0-1.753.542,8.954,8.954,0,0,0-4.045,7.007,2.338,2.338,0,0,0,3.853,2.225,8.956,8.956,0,0,0,4.045-7.007,2.732,2.732,0,0,0-1.117-2.516,1.943,1.943,0,0,0-.983-.251" transform="translate(-104.547 -84.801)" fill="#dee4f0"/>
        <path id="Trazado_115077" data-name="Trazado 115077" d="M221.652,185.428a.593.593,0,0,1-.3-.079.736.736,0,0,1-.327-.677,1.93,1.93,0,0,1,.885-1.533.669.669,0,0,1,1.078.622,1.93,1.93,0,0,1-.885,1.534.907.907,0,0,1-.449.134m.705-2.039a.529.529,0,0,0-.256.082,1.557,1.557,0,0,0-.694,1.2.3.3,0,0,0,.5.289,1.555,1.555,0,0,0,.694-1.2.384.384,0,0,0-.135-.344.212.212,0,0,0-.109-.026" transform="translate(-106.375 -88.078)" fill="#dee4f0"/>
        <path id="Trazado_115078" data-name="Trazado 115078" d="M221.652,191.582a.6.6,0,0,1-.3-.079.735.735,0,0,1-.327-.677,1.93,1.93,0,0,1,.885-1.533.669.669,0,0,1,1.078.622,1.932,1.932,0,0,1-.885,1.534.907.907,0,0,1-.449.134m.705-2.039a.529.529,0,0,0-.256.082,1.556,1.556,0,0,0-.694,1.2.3.3,0,0,0,.5.289,1.556,1.556,0,0,0,.694-1.2.384.384,0,0,0-.135-.344.212.212,0,0,0-.109-.026" transform="translate(-106.375 -91.039)" fill="#dee4f0"/>
        <path id="Trazado_115079" data-name="Trazado 115079" d="M226.981,182.352a.6.6,0,0,1-.3-.079.736.736,0,0,1-.327-.677,1.93,1.93,0,0,1,.885-1.534.669.669,0,0,1,1.078.622,1.932,1.932,0,0,1-.885,1.534.907.907,0,0,1-.449.134m.705-2.039a.53.53,0,0,0-.256.082,1.556,1.556,0,0,0-.694,1.2.3.3,0,0,0,.5.289,1.556,1.556,0,0,0,.693-1.2.384.384,0,0,0-.135-.344.211.211,0,0,0-.109-.026" transform="translate(-108.94 -86.597)" fill="#dee4f0"/>
        <path id="Trazado_115080" data-name="Trazado 115080" d="M235.529,190.253l-8.61-5a1.019,1.019,0,0,0-.092-.052.816.816,0,0,0-.755.086,2.1,2.1,0,0,0-.965,1.671.8.8,0,0,0,.347.727l8.7,5.05a.249.249,0,0,0,.341-.093l1.133-2.015a.278.278,0,0,0-.1-.377m-1.3,2.083-.3-.172.078-.735-8.452-4.868a1.744,1.744,0,0,1,.7-.938.6.6,0,0,1,.289-.092.271.271,0,0,1,.114.023l.047.027,8.533,4.952Z" transform="translate(-108.341 -89.108)" fill="#dee4f0"/>
        <path id="Trazado_115081" data-name="Trazado 115081" d="M242.579,197.527a.633.633,0,0,1-.322-.085.792.792,0,0,1-.351-.729,2.1,2.1,0,0,1,.965-1.671.717.717,0,0,1,1.157.668,2.105,2.105,0,0,1-.965,1.671.978.978,0,0,1-.484.145m.777-2.244a.607.607,0,0,0-.292.092,1.739,1.739,0,0,0-.773,1.339.345.345,0,0,0,.581.335,1.738,1.738,0,0,0,.773-1.338.439.439,0,0,0-.159-.4.258.258,0,0,0-.13-.032" transform="translate(-116.426 -93.801)" fill="#dee4f0"/>
        <path id="Trazado_115082" data-name="Trazado 115082" d="M241.526,188.828l-1.971-1.189-.176-.1a2.306,2.306,0,0,0-2.155.261,6.688,6.688,0,0,0-3.022,5.234,2.366,2.366,0,0,0,.786,1.948,1.439,1.439,0,0,0,.321.187l1.9,1.161a.352.352,0,0,0,.486-.118l.529-.874a6.718,6.718,0,0,0,2.935-4.848l.425-.7.122-.532a.4.4,0,0,0-.181-.428m-.287.788-.433.714-.027.087a6.374,6.374,0,0,1-2.792,4.616l-.6.954-.7-.425-.161-1.24.192-1.447-1.941-1.115a6.326,6.326,0,0,1,2.64-3.627,2.485,2.485,0,0,1,1.214-.375,1.317,1.317,0,0,1,.576.124l2.131,1.281Z" transform="translate(-112.718 -90.181)" fill="#dee4f0"/>
        <path id="Trazado_115083" data-name="Trazado 115083" d="M240.119,197.8a1.693,1.693,0,0,1-.858-.222,2.235,2.235,0,0,1-.953-2.06,6.691,6.691,0,0,1,3.022-5.235,1.971,1.971,0,0,1,3.214,1.856,6.689,6.689,0,0,1-3.022,5.234,2.848,2.848,0,0,1-1.4.427m2.613-7.559a2.473,2.473,0,0,0-1.21.375,6.264,6.264,0,0,0-2.83,4.9,1.6,1.6,0,0,0,2.637,1.523,6.264,6.264,0,0,0,2.83-4.9,1.877,1.877,0,0,0-.761-1.728,1.314,1.314,0,0,0-.667-.17" transform="translate(-114.694 -91.374)" fill="#dee4f0"/>
        <path id="Trazado_115084" data-name="Trazado 115084" d="M241.359,197.713a1.228,1.228,0,0,1-.622-.161,1.6,1.6,0,0,1-.689-1.478,4.7,4.7,0,0,1,2.12-3.673,1.421,1.421,0,0,1,2.313,1.335,4.7,4.7,0,0,1-2.121,3.674,2.029,2.029,0,0,1-1,.3m1.808-5.231a1.653,1.653,0,0,0-.808.252,4.27,4.27,0,0,0-1.928,3.34,1.048,1.048,0,0,0,1.736,1,4.268,4.268,0,0,0,1.929-3.341,1.246,1.246,0,0,0-.5-1.144.852.852,0,0,0-.432-.109" transform="translate(-115.531 -92.454)" fill="#dee4f0"/>
      </g>
    </g>
  </g>
</svg>
