<svg xmlns="http://www.w3.org/2000/svg" width="148" height="148" viewBox="0 0 148 148">
  <g id="Grupo_109233" data-name="Grupo 109233" transform="translate(-375 -4856)">
    <circle id="Elipse_4868" data-name="Elipse 4868" cx="74" cy="74" r="74" transform="translate(375 4856)" fill="#0ca4ca"/>
    <ellipse id="Elipse_4871" data-name="Elipse 4871" cx="42.5" cy="42" rx="42.5" ry="42" transform="translate(406 4888)" fill="#fff"/>
    <g id="malla" transform="translate(411 4843.025)">
      <path id="Trazado_114330" data-name="Trazado 114330" d="M77,67.629A12.087,12.087,0,0,0,64.919,55.548H12.081A12.087,12.087,0,0,0,0,67.629v38.692A12.087,12.087,0,0,0,12.081,118.4H64.905a12.087,12.087,0,0,0,12.081-12.081V67.629Zm-5.243,0V74.4c-.9,2.137-3.7,7.55-9.744,9.388a15.621,15.621,0,0,1-5.884.556,47.318,47.318,0,0,0-1.439-12.764,36.855,36.855,0,0,0-4.7-10.784H64.905A6.852,6.852,0,0,1,71.757,67.629ZM22.523,95.693c-5.912-.37-11.9,1.681-17.295,5.812V74.837a11.224,11.224,0,0,1,5.5-2.507c3.277-.584,8.434-.271,15.842,3.391a91.757,91.757,0,0,1-3.533,20.016C22.879,95.722,22.694,95.708,22.523,95.693ZM26.74,101.8c4.972,1.624,9.9,5.428,14.7,11.354H22.95Q25.109,107.2,26.74,101.8Zm18.377,7.579q-8.1-9.787-16.924-12.608a104.331,104.331,0,0,0,3.476-18.192c1.168.727,2.379,1.51,3.633,2.393a50.908,50.908,0,0,0,15.343,7.679A74.5,74.5,0,0,1,45.117,109.384Zm-6.81-32.709Q35,74.367,31.869,72.6q-.214-7.308-2.835-11.81h14.4a29.186,29.186,0,0,1,6.3,12.494,41.876,41.876,0,0,1,1.2,9.986A48.25,48.25,0,0,1,38.308,76.675ZM12.081,60.791H21.7a5.566,5.566,0,0,1,2.949,2.892A17.064,17.064,0,0,1,26.4,69.865c-6.254-2.707-11.9-3.59-16.853-2.621a17.834,17.834,0,0,0-4.317,1.425V67.657a6.867,6.867,0,0,1,6.852-6.867ZM5.5,108.2c3.262-3.191,8.961-7.465,16.041-7.308-1.14,3.732-2.521,7.807-4.174,12.266H12.081A6.859,6.859,0,0,1,5.5,108.2Zm59.42,4.958H49.206a80.691,80.691,0,0,0,6.6-23.592c.613.043,1.239.086,1.838.086a20.157,20.157,0,0,0,5.9-.855,19.341,19.341,0,0,0,8.22-5.057v22.58a6.849,6.849,0,0,1-6.838,6.838Z" transform="translate(0 0)"/>
    </g>
  </g>
</svg>
