<svg xmlns="http://www.w3.org/2000/svg" width="148" height="148" viewBox="0 0 148 148">
  <g id="Grupo_109234" data-name="Grupo 109234" transform="translate(-726 -4856)">
    <circle id="Elipse_4869" data-name="Elipse 4869" cx="74" cy="74" r="74" transform="translate(726 4856)" fill="#0ca4ca"/>
    <ellipse id="Elipse_4872" data-name="Elipse 4872" cx="42.5" cy="42" rx="42.5" ry="42" transform="translate(758 4888)" fill="#fff"/>
    <g id="camino" transform="translate(765 4888)">
      <path id="Trazado_114324" data-name="Trazado 114324" d="M53.45,46.879a6.571,6.571,0,1,0-6.571,6.57A6.578,6.578,0,0,0,53.45,46.879Zm-9.941,0a3.37,3.37,0,1,1,3.37,3.37A3.374,3.374,0,0,1,43.509,46.879Zm0,0" transform="translate(-33.859 -33.859)" fill-rule="evenodd"/>
      <path id="Trazado_114325" data-name="Trazado 114325" d="M265.847,262c-4.123,0-7.628,1.028-9.746,2.66l-5.738-1.278a1.6,1.6,0,1,0-.7,3.123l4.4.979a3.953,3.953,0,0,0-.126.984c0,2.174,1.779,4.031,4.63,5.191l-2.562,2.636a1.6,1.6,0,0,0,2.3,2.231l3.785-3.895a22.609,22.609,0,0,0,3.759.306c6.788,0,11.907-2.781,11.907-6.469S272.635,262,265.847,262Zm0,9.738c-5.234,0-8.707-1.968-8.707-3.269a1.361,1.361,0,0,1,.442-.88,1.388,1.388,0,0,0,.139-.139c1.194-1.116,4.151-2.25,8.125-2.25,5.234,0,8.707,1.968,8.707,3.269S271.081,271.742,265.847,271.742Zm0,0" transform="translate(-208.666 -220.082)" fill-rule="evenodd"/>
      <path id="Trazado_114326" data-name="Trazado 114326" d="M137.738,411.036,140.3,408.4a1.6,1.6,0,0,0-2.3-2.23l-3.785,3.894a22.612,22.612,0,0,0-3.759-.306c-6.788,0-11.907,2.781-11.907,6.469s5.119,6.469,11.907,6.469,11.907-2.781,11.907-6.469C142.368,414.053,140.589,412.195,137.738,411.036Zm-7.277,8.46c-5.234,0-8.707-1.968-8.707-3.269s3.473-3.269,8.707-3.269,8.707,1.968,8.707,3.269S135.7,419.5,130.461,419.5Zm0,0" transform="translate(-99.584 -340.772)" fill-rule="evenodd"/>
      <path id="Trazado_114327" data-name="Trazado 114327" d="M28.5,43.645a1.6,1.6,0,1,0,.7-3.123l-4.4-.98a3.92,3.92,0,0,0,.126-.984c0-3-3.335-5.023-7.155-5.934l7.14-14.3c.011-.023.023-.047.033-.071A13.021,13.021,0,1,0,0,13.02a12.926,12.926,0,0,0,1.1,5.234c.01.024.021.048.033.071L8.276,32.639c-3.83.933-7.163,2.958-7.163,5.92,0,3.688,5.119,6.468,11.907,6.468,4.123,0,7.628-1.028,9.747-2.659ZM3.2,13.02a9.82,9.82,0,1,1,18.83,3.911L13.02,34.977,4.011,16.931A9.74,9.74,0,0,1,3.2,13.02ZM4.314,38.559c0-.841,2.084-2.3,5.436-2.97l1.839,3.684a1.6,1.6,0,0,0,2.863,0L16.3,35.579c3.39.643,5.431,2.1,5.431,2.979a1.367,1.367,0,0,1-.444.883,1.585,1.585,0,0,0-.138.137c-1.194,1.115-4.151,2.249-8.124,2.249C7.786,41.827,4.314,39.86,4.314,38.559Zm0,0" transform="translate(0 0)" fill-rule="evenodd"/>
      <path id="Trazado_114328" data-name="Trazado 114328" d="M266.764,377a1.6,1.6,0,1,0,1.6,1.6A1.6,1.6,0,0,0,266.764,377Zm0,0" transform="translate(-222.735 -316.681)" fill-rule="evenodd"/>
      <path id="Trazado_114329" data-name="Trazado 114329" d="M210.967,264.907a1.6,1.6,0,1,0-1.6-1.6A1.6,1.6,0,0,0,210.967,264.907Zm0,0" transform="translate(-175.866 -219.832)" fill-rule="evenodd"/>
    </g>
  </g>
</svg>
