<svg xmlns="http://www.w3.org/2000/svg" width="148" height="148" viewBox="0 0 148 148">
  <g id="Grupo_109235" data-name="Grupo 109235" transform="translate(-1077 -4856)">
    <circle id="Elipse_4870" data-name="Elipse 4870" cx="74" cy="74" r="74" transform="translate(1077 4856)" fill="#0ca4ca"/>
    <ellipse id="Elipse_4873" data-name="Elipse 4873" cx="42.5" cy="42" rx="42.5" ry="42" transform="translate(1109 4888)" fill="#fff"/>
    <g id="patron-de-bloqueo" transform="translate(1106 4885.882)">
      <path id="Trazado_114331" data-name="Trazado 114331" d="M15.739,25.478a9.666,9.666,0,0,0,5.015-1.406L36.417,39.735a9.729,9.729,0,1,0,17.828,7.147h10.02A9.735,9.735,0,1,0,75.377,35.156V25.327a9.734,9.734,0,1,0-3.229,0v9.829a9.75,9.75,0,0,0-8.06,8.5H54.42a9.73,9.73,0,0,0-15.9-6.381l-15.3-15.3a9.733,9.733,0,1,0-7.478,3.51ZM73.751,38.241l.011,0,.01,0a6.48,6.48,0,1,1-.021,0ZM15.739,9.229a6.51,6.51,0,1,1-6.51,6.509A6.517,6.517,0,0,1,15.739,9.229Z" transform="translate(0 0.542)"/>
      <path id="Trazado_114332" data-name="Trazado 114332" d="M62.718,41.936a9.747,9.747,0,0,0-9.595,8.128H43.3a9.739,9.739,0,1,0,0,3.229h9.825a9.734,9.734,0,1,0,9.594-11.357ZM33.707,58.186a6.51,6.51,0,1,1,6.508-6.524c0,.006,0,.011,0,.017s0,.009,0,.015a6.516,6.516,0,0,1-6.508,6.493Zm29.011,0a6.517,6.517,0,0,1-6.509-6.493c0-.005,0-.009,0-.015s0-.011,0-.017a6.509,6.509,0,1,1,6.509,6.524Z" transform="translate(11.043 22.627)"/>
      <circle id="Elipse_4962" data-name="Elipse 4962" cx="9.736" cy="9.736" r="9.736" transform="matrix(0.987, -0.16, 0.16, 0.987, 33.574, 8.234)"/>
      <path id="Trazado_114333" data-name="Trazado 114333" d="M6,62.721A9.736,9.736,0,1,0,17.349,53.13V43.3a9.738,9.738,0,1,0-3.229,0v9.832A9.743,9.743,0,0,0,6,62.721ZM9.229,33.707a6.51,6.51,0,1,1,6.512,6.509h-.01a6.516,6.516,0,0,1-6.5-6.508Z" transform="translate(0 11.585)"/>
    </g>
  </g>
</svg>
