<svg xmlns="http://www.w3.org/2000/svg" width="177" height="177" viewBox="0 0 177 177">
  <g id="Grupo_109238" data-name="Grupo 109238" transform="translate(-402 -6155)">
    <circle id="Elipse_4966" data-name="Elipse 4966" cx="83.5" cy="83.5" r="83.5" transform="translate(407 6160)" fill="#fff"/>
    <g id="Elipse_4965" data-name="Elipse 4965" transform="translate(414 6167)" fill="none" stroke="#ff9500" stroke-linejoin="round" stroke-width="12">
      <circle cx="76.5" cy="76.5" r="76.5" stroke="none"/>
      <circle cx="76.5" cy="76.5" r="82.5" fill="none"/>
    </g>
    <g id="Page-1" transform="translate(447.999 6201)">
      <g id="_016---Transparent-Tablet" data-name="016---Transparent-Tablet" transform="translate(0.001 0)">
        <path id="Shape" d="M72.167,5.25V43.5L67.662,25.99a2.867,2.867,0,0,0-3.386-2.139,2.825,2.825,0,0,0-2.139,3.372l-.623-2.763a2.833,2.833,0,0,0-4.576-1.53,3.128,3.128,0,0,0-.893,3.032l.553,2.493a2.821,2.821,0,0,0-4.6-1.488A3.173,3.173,0,0,0,51.144,30l.553,2.465a2.923,2.923,0,0,0-3.386-2.153A2.833,2.833,0,0,0,46.157,33.7l5.412,21.137H27.6L33.01,33.7a2.833,2.833,0,0,0-2.153-3.386,2.923,2.923,0,0,0-3.386,2.153L28.024,30a3.173,3.173,0,0,0-.85-3.032,2.821,2.821,0,0,0-4.6,1.488l.553-2.493a3.128,3.128,0,0,0-.893-3.032,2.833,2.833,0,0,0-4.576,1.53l-.623,2.763a2.825,2.825,0,0,0-2.139-3.372,2.867,2.867,0,0,0-3.386,2.139L7,43.5V5.25A4.25,4.25,0,0,1,11.25,1H67.917a4.25,4.25,0,0,1,4.25,4.25Z" transform="translate(2.916 0.417)" fill="#61dfff"/>
        <path id="Shape-2" data-name="Shape" d="M36.535,22.632a2.891,2.891,0,0,0-2.721-.927,2.833,2.833,0,0,0-2.153,3.386l5.412,21.137h4.25L35.91,25.092A2.833,2.833,0,0,1,36.535,22.632Z" transform="translate(13.163 9.022)" fill="#0ca4ca"/>
        <path id="Shape-3" data-name="Shape" d="M51.25,1H47a4.25,4.25,0,0,1,4.25,4.25V26.982L55.5,43.5V5.25A4.25,4.25,0,0,0,51.25,1Z" transform="translate(19.583 0.417)" fill="#0ca4ca"/>
        <path id="Shape-4" data-name="Shape" d="M60.67,37.244v7.083a4.25,4.25,0,0,1-4.25,4.25H40.072L34.66,27.441a2.833,2.833,0,0,1,2.153-3.386A2.923,2.923,0,0,1,40.2,26.208l-.553-2.465a3.173,3.173,0,0,1,.85-3.032A2.821,2.821,0,0,1,45.1,22.2l-.553-2.493a3.128,3.128,0,0,1,.893-3.032,2.833,2.833,0,0,1,4.576,1.53l.623,2.763a2.825,2.825,0,0,1,2.139-3.372,2.867,2.867,0,0,1,3.386,2.139Z" transform="translate(14.413 6.673)" fill="#dfc49c"/>
        <path id="Shape-5" data-name="Shape" d="M64.725,74h-13.4a2.833,2.833,0,0,1-2.777-2.253L46.11,60.19a6.959,6.959,0,0,0-2.933-4.321l-.028-.028a7.851,7.851,0,0,1-3.258-4.59L38.46,45.669H54.809a4.25,4.25,0,0,0,4.25-4.25V31.5a15.736,15.736,0,0,1,1.374-6.233A3.265,3.265,0,0,1,66.779,26.7c-.2,1.714-1.728,4.378-1.728,8.727,0,7.636,1.091,4.8,1.091,10.243a28.363,28.363,0,0,1-1.332,8.925,3.967,3.967,0,0,0,.043,2.621,79.9,79.9,0,0,1,2.692,13.643A2.833,2.833,0,0,1,64.725,74Z" transform="translate(16.025 9.582)" fill="#ffe0b2"/>
        <path id="Shape-6" data-name="Shape" d="M61.1,70.855a79.9,79.9,0,0,0-2.692-13.643,3.967,3.967,0,0,1-.043-2.621A28.363,28.363,0,0,0,59.7,45.667c0-5.44-1.091-2.607-1.091-10.243,0-4.349,1.53-7.013,1.728-8.727a3.258,3.258,0,0,0-5.362-2.9,3.247,3.247,0,0,1,1.112,2.9c-.2,1.714-1.728,4.378-1.728,8.727,0,7.636,1.091,4.8,1.091,10.243a28.363,28.363,0,0,1-1.332,8.925,3.967,3.967,0,0,0,.042,2.621,79.9,79.9,0,0,1,2.692,13.643A2.833,2.833,0,0,1,54.034,74h4.25A2.833,2.833,0,0,0,61.1,70.855Z" transform="translate(22.465 9.584)" fill="#dfc49c"/>
        <path id="Shape-7" data-name="Shape" d="M33.01,27.441,27.6,48.578H11.25A4.25,4.25,0,0,1,7,44.328V37.244l4.505-17.51a2.867,2.867,0,0,1,3.386-2.139,2.825,2.825,0,0,1,2.139,3.372l.623-2.763a2.833,2.833,0,0,1,4.576-1.53,3.128,3.128,0,0,1,.893,3.032L22.569,22.2a2.821,2.821,0,0,1,4.6-1.488,3.173,3.173,0,0,1,.85,3.032l-.553,2.465a2.923,2.923,0,0,1,3.386-2.153,2.833,2.833,0,0,1,2.153,3.386Z" transform="translate(2.916 6.673)" fill="#dfc49c"/>
        <path id="Shape-8" data-name="Shape" d="M30.1,45.669,28.669,51.25a7.851,7.851,0,0,1-3.258,4.59l-.028.028a6.959,6.959,0,0,0-2.933,4.321L20.013,71.75A2.833,2.833,0,0,1,17.236,74H3.834a2.833,2.833,0,0,1-2.819-3.145A79.9,79.9,0,0,1,3.707,57.215a3.967,3.967,0,0,0,.043-2.621,28.363,28.363,0,0,1-1.332-8.925c0-5.44,1.091-2.607,1.091-10.243,0-4.349-1.53-7.013-1.728-8.727a3.265,3.265,0,0,1,6.347-1.431A15.737,15.737,0,0,1,9.5,31.5v9.917a4.25,4.25,0,0,0,4.25,4.25Z" transform="translate(0.415 9.582)" fill="#ffe0b2"/>
        <path id="Shape-9" data-name="Shape" d="M11.417,9.672a1.417,1.417,0,0,1-1-2.418L13.248,4.42a1.417,1.417,0,1,1,2,2L12.418,9.257a1.417,1.417,0,0,1-1,.415Z" transform="translate(4.166 1.662)" fill="#f5f5f5"/>
        <path id="Shape-10" data-name="Shape" d="M11.417,16.755a1.417,1.417,0,0,1-1-2.418L20.332,4.42a1.417,1.417,0,1,1,2,2L12.418,16.34a1.417,1.417,0,0,1-1,.415Z" transform="translate(4.166 1.662)" fill="#f5f5f5"/>
        <path id="Shape-11" data-name="Shape" d="M4.25,85h13.4a4.268,4.268,0,0,0,4.164-3.37l2.447-11.57a5.5,5.5,0,0,1,2.355-3.46,9.271,9.271,0,0,0,3.841-5.417l1.155-4.516H53.387l1.156,4.516a9.3,9.3,0,0,0,3.876,5.439,5.478,5.478,0,0,1,2.323,3.438l2.441,11.569A4.268,4.268,0,0,0,67.346,85h13.4a4.25,4.25,0,0,0,4.225-4.716A81.4,81.4,0,0,0,82.21,66.312a2.6,2.6,0,0,1-.024-1.7,30.092,30.092,0,0,0,1.4-9.361,13,13,0,0,0-.537-4.478,17.363,17.363,0,0,1-.552-5.767,19.36,19.36,0,0,1,1.125-6.24,12.979,12.979,0,0,0,.589-2.3A4.679,4.679,0,0,0,76.5,32.315V5.667A5.667,5.667,0,0,0,70.834,0H14.166A5.667,5.667,0,0,0,8.5,5.667V32.315A4.675,4.675,0,0,0,1.722,33a4.613,4.613,0,0,0-.928,3.44,12.906,12.906,0,0,0,.592,2.323,19.36,19.36,0,0,1,1.125,6.24,17.363,17.363,0,0,1-.553,5.767,13,13,0,0,0-.543,4.478A30.092,30.092,0,0,0,2.81,64.619a2.6,2.6,0,0,1-.024,1.7A81.414,81.414,0,0,0,.027,80.283,4.25,4.25,0,0,0,4.25,85ZM77.513,36.066c.339-.876.694-2.254,2.279-2.053a1.853,1.853,0,0,1,1.6,2.1,11.5,11.5,0,0,1-.48,1.794,22.079,22.079,0,0,0-1.257,7.095,19.593,19.593,0,0,0,.673,6.586,10.414,10.414,0,0,1,.422,3.659A27.276,27.276,0,0,1,79.5,63.737a5.449,5.449,0,0,0,.055,3.542A78.57,78.57,0,0,1,82.163,80.6a1.388,1.388,0,0,1-.347,1.092,1.407,1.407,0,0,1-1.065.48h-13.4a1.417,1.417,0,0,1-1.384-1.123l-2.447-11.57a8.322,8.322,0,0,0-3.556-5.23,6.446,6.446,0,0,1-2.672-3.763l-.976-3.814H70.834A5.667,5.667,0,0,0,76.5,51V40.942A12.677,12.677,0,0,1,77.513,36.066Zm-24.29-2.887C58.4,56.608,55.837,45,56.578,48.358a1.417,1.417,0,1,0,2.768-.611l-3.9-17.642a1.765,1.765,0,0,1,.425-1.677,1.405,1.405,0,0,1,2.267.745c4.375,19.741-.918-4.135,3.587,16.19a1.418,1.418,0,1,0,2.768-.613c-.428-1.91,1.527,6.916-4.14-18.673a1.73,1.73,0,0,1,.439-1.663,1.417,1.417,0,0,1,2.26.775C67.874,46.94,66.8,42.081,66.958,42.806a1.417,1.417,0,0,0,2.767-.612c-.266-1.206-3.491-15.766-3.287-14.865a1.407,1.407,0,0,1,1.068-1.68,1.454,1.454,0,0,1,1.7,1.111l4.461,17.354V51a2.833,2.833,0,0,1-2.833,2.833H55.586L50.459,33.8a1.417,1.417,0,0,1,1.075-1.693,1.509,1.509,0,0,1,1.689,1.067ZM14.166,2.833H70.834a2.833,2.833,0,0,1,2.833,2.833V32.741l-1.7-6.639a4.25,4.25,0,0,0-1.873-2.645,4.2,4.2,0,0,0-3.193-.575,4.147,4.147,0,0,0-1.476.632,4.363,4.363,0,0,0-2.481-2.053,4.1,4.1,0,0,0-4.028.83,4.392,4.392,0,0,0-1.438,3.029,4.091,4.091,0,0,0-3.513,1.014,4.409,4.409,0,0,0-1.391,2.986,4.033,4.033,0,0,0-1.646.024,4.25,4.25,0,0,0-3.217,5.12l4.951,19.369H32.338l4.97-19.409a4.25,4.25,0,0,0-3.23-5.077,4.108,4.108,0,0,0-1.645-.023,4.409,4.409,0,0,0-1.391-2.986,4.087,4.087,0,0,0-3.513-1.014,4.392,4.392,0,0,0-1.439-3.03,4.1,4.1,0,0,0-4.026-.829,4.37,4.37,0,0,0-2.482,2.051,4.073,4.073,0,0,0-1.459-.626,4.283,4.283,0,0,0-5.07,3.168l-1.718,6.677V5.667a2.833,2.833,0,0,1,2.833-2.833ZM11.333,44.114l4.474-17.4a1.455,1.455,0,0,1,1.7-1.058,1.407,1.407,0,0,1,1.054,1.677c-.031.142-3.258,14.722-3.287,14.865a1.417,1.417,0,0,0,2.767.612c.163-.73-.921,4.149,3.911-17.629a1.417,1.417,0,0,1,2.255-.764,1.728,1.728,0,0,1,.441,1.665c-5.759,25.988-3.773,17.024-4.2,18.964a1.417,1.417,0,0,0,2.767.613c.373-1.686,2.738-12.361,3.652-16.482a1.405,1.405,0,0,1,2.267-.745,1.764,1.764,0,0,1,.425,1.676L25.684,47.612a1.417,1.417,0,1,0,2.767.612c2.257-10.211-1.616,7.316,3.326-15.044a1.506,1.506,0,0,1,1.687-1.07,1.417,1.417,0,0,1,1.088,1.652L29.414,53.834H14.166A2.833,2.833,0,0,1,11.333,51ZM5.454,67.292a5.449,5.449,0,0,0,.055-3.542,27.275,27.275,0,0,1-1.259-8.5,10.414,10.414,0,0,1,.425-3.659,19.593,19.593,0,0,0,.673-6.586A22.079,22.079,0,0,0,4.091,37.91a11.311,11.311,0,0,1-.483-1.82,1.816,1.816,0,0,1,.364-1.361A1.849,1.849,0,0,1,7.2,35.3a14.711,14.711,0,0,1,1.3,5.647V51a5.667,5.667,0,0,0,5.667,5.667H28.689l-.976,3.814A6.476,6.476,0,0,1,25,64.269a8.293,8.293,0,0,0-3.518,5.2l-2.447,11.57a1.417,1.417,0,0,1-1.384,1.123H4.25a1.407,1.407,0,0,1-1.061-.473A1.388,1.388,0,0,1,2.842,80.6,78.572,78.572,0,0,1,5.454,67.292Z" transform="translate(-0.001 0)"/>
      </g>
    </g>
  </g>
</svg>
