<svg xmlns="http://www.w3.org/2000/svg" width="136" height="136" viewBox="0 0 136 136">
  <g id="Grupo_109232" data-name="Grupo 109232" transform="translate(6573 7345)">
    <circle id="Elipse_4928" data-name="Elipse 4928" cx="68" cy="68" r="68" transform="translate(-6573 -7345)" fill="#ff9500" opacity="0.95" style="isolation: isolate"/>
    <circle id="Elipse_4929" data-name="Elipse 4929" cx="55" cy="55" r="55" transform="translate(-6560 -7332)" fill="#efefef" opacity="0.95" style="isolation: isolate"/>
    <g id="laser" transform="translate(-6565 -7386)">
      <g id="Grupo_108312" data-name="Grupo 108312" transform="translate(0 64)">
        <path id="Trazado_114323" data-name="Trazado 114323" d="M117.5,106.5H57.569l13.793-5.715a2.5,2.5,0,1,0-1.914-4.619l-13.795,5.716L76.821,80.716a2.5,2.5,0,0,0-3.535-3.535L52.12,98.344l5.711-13.795a2.5,2.5,0,1,0-4.619-1.914L47.5,96.434V66.5a2.5,2.5,0,1,0-5,0V96.434l-5.713-13.8a2.5,2.5,0,1,0-4.619,1.914l5.711,13.795L16.714,77.181a2.5,2.5,0,0,0-3.535,3.535l21.167,21.165L20.552,96.166a2.5,2.5,0,1,0-1.914,4.619L32.43,106.5H2.5a2.5,2.5,0,1,0,0,5H32.43l-13.793,5.715a2.5,2.5,0,1,0,1.914,4.619l13.795-5.716L13.179,137.283a2.5,2.5,0,1,0,3.535,3.535l21.165-21.163L32.168,133.45a2.5,2.5,0,1,0,4.619,1.914l5.713-13.8V151.5a2.5,2.5,0,1,0,5,0V121.566l5.713,13.8a2.5,2.5,0,0,0,4.619-1.914l-5.711-13.795,21.165,21.163a2.5,2.5,0,0,0,3.535-3.535L55.654,116.118l13.795,5.716a2.5,2.5,0,1,0,1.914-4.619L57.57,111.5H117.5a2.5,2.5,0,1,0,0-5ZM45,114a4.932,4.932,0,0,0,4.232-2.5h2.808a7.5,7.5,0,1,1,0-5H49.231A4.932,4.932,0,0,0,45,104a5,5,0,0,0,0,10Z" transform="translate(0 -64)" fill="#255065"/>
      </g>
    </g>
  </g>
</svg>
