<svg xmlns="http://www.w3.org/2000/svg" width="177" height="177" viewBox="0 0 177 177">
  <g id="Grupo_109239" data-name="Grupo 109239" transform="translate(-1022 -6155)">
    <circle id="Elipse_4963" data-name="Elipse 4963" cx="83.5" cy="83.5" r="83.5" transform="translate(1027 6160)" fill="#fff"/>
    <g id="Elipse_4964" data-name="Elipse 4964" transform="translate(1034 6167)" fill="none" stroke="#ff9500" stroke-linejoin="round" stroke-width="12">
      <circle cx="76.5" cy="76.5" r="76.5" stroke="none"/>
      <circle cx="76.5" cy="76.5" r="82.5" fill="none"/>
    </g>
    <g id="idea" transform="translate(1068 6200.999)">
      <path id="Trazado_114334" data-name="Trazado 114334" d="M220.327,468.588h-8.716A3.611,3.611,0,0,1,208,464.977v-3.04h15.938v3.04A3.611,3.611,0,0,1,220.327,468.588Z" transform="translate(-173.469 -385.247)" fill="#b0c0d2"/>
      <path id="Trazado_114335" data-name="Trazado 114335" d="M152.809,35.676a25.675,25.675,0,1,0-44.182,17.795,24.268,24.268,0,0,1,6.711,16.837v.3h23.593v-.3A24.8,24.8,0,0,1,145.8,53.3,25.583,25.583,0,0,0,152.809,35.676Z" transform="translate(-84.616 -8.34)" fill="#ffbb5c"/>
      <path id="Trazado_114336" data-name="Trazado 114336" d="M205.329,389.488H188.376a3.32,3.32,0,0,1-3.32-3.32v-11.1h23.593v11.1A3.32,3.32,0,0,1,205.329,389.488Z" transform="translate(-154.334 -312.798)" fill="#d2e1f1"/>
      <path id="Trazado_114337" data-name="Trazado 114337" d="M118.8,0h-.2a27.334,27.334,0,0,0-19.507,46.28,22.488,22.488,0,0,1,6.247,15.686v11.4a4.988,4.988,0,0,0,3.809,4.84v1.52A5.277,5.277,0,0,0,114.417,85h8.716A5.277,5.277,0,0,0,128.4,79.73V78.218a4.988,4.988,0,0,0,3.847-4.848v-11.4A23.078,23.078,0,0,1,138.67,46.1,27.334,27.334,0,0,0,118.8,0Zm6.288,79.729a1.953,1.953,0,0,1-1.951,1.951h-8.716a1.953,1.953,0,0,1-1.951-1.951V78.35h12.617Zm3.847-6.36a1.662,1.662,0,0,1-1.66,1.66H110.318a1.662,1.662,0,0,1-1.66-1.66V63.928h20.273V73.37ZM112.866,36.288h-1.819a1.494,1.494,0,0,1-1.492-1.492v-.257a1.494,1.494,0,0,1,1.492-1.492h.327a1.494,1.494,0,0,1,1.492,1.492v1.75Zm8.493,24.319h-5.172v-21h5.172Zm14.9-16.786a26.45,26.45,0,0,0-7.289,16.786h-4.288v-21h1.492a4.818,4.818,0,0,0,4.813-4.813v-.257a4.813,4.813,0,1,0-9.625,0v1.75h-5.172v-1.75a4.818,4.818,0,0,0-4.812-4.813h-.327a4.818,4.818,0,0,0-4.812,4.813V34.8a4.818,4.818,0,0,0,4.812,4.813h1.819v21h-4.242a25.732,25.732,0,0,0-7.14-16.628,23.854,23.854,0,0,1-6.7-17.314A24.2,24.2,0,0,1,118.621,3.322a24.014,24.014,0,0,1,17.635,40.5Zm-11.577-7.533v-1.75a1.492,1.492,0,1,1,2.984,0V34.8a1.494,1.494,0,0,1-1.492,1.492Z" transform="translate(-76.275)"/>
      <path id="Trazado_114338" data-name="Trazado 114338" d="M257.624,52.091a19.145,19.145,0,0,0-10.979-3.342,1.66,1.66,0,0,0,.011,3.32h.128a15.843,15.843,0,0,1,14.774,9.976,1.66,1.66,0,1,0,3.08-1.241A19.216,19.216,0,0,0,257.624,52.091Z" transform="translate(-204.323 -40.655)"/>
      <path id="Trazado_114339" data-name="Trazado 114339" d="M352.156,155.137a1.659,1.659,0,1,0,1.174-.486A1.666,1.666,0,0,0,352.156,155.137Z" transform="translate(-293.287 -128.976)"/>
      <path id="Trazado_114340" data-name="Trazado 114340" d="M430.388,53.294a1.655,1.655,0,0,0,1.174-.486l3.093-3.093a1.66,1.66,0,0,0-2.348-2.348l-3.093,3.093a1.66,1.66,0,0,0,1.174,2.834Z" transform="translate(-357.552 -39.097)"/>
      <path id="Trazado_114341" data-name="Trazado 114341" d="M431.561,244.284a1.66,1.66,0,1,0-2.348,2.348l3.093,3.093a1.66,1.66,0,1,0,2.348-2.348Z" transform="translate(-357.552 -203.323)"/>
      <path id="Trazado_114342" data-name="Trazado 114342" d="M471.686,154.655h-4.374a1.66,1.66,0,0,0,0,3.32h4.374a1.66,1.66,0,0,0,0-3.32Z" transform="translate(-388.346 -128.979)"/>
      <path id="Trazado_114343" data-name="Trazado 114343" d="M47.475,47.367a1.66,1.66,0,1,0-2.348,2.348l3.093,3.093a1.66,1.66,0,1,0,2.348-2.348Z" transform="translate(-37.23 -39.097)"/>
      <path id="Trazado_114344" data-name="Trazado 114344" d="M48.221,244.284l-3.093,3.093a1.66,1.66,0,0,0,2.348,2.348l3.093-3.093a1.66,1.66,0,1,0-2.348-2.348Z" transform="translate(-37.23 -203.322)"/>
      <path id="Trazado_114345" data-name="Trazado 114345" d="M6.035,154.655H1.66a1.66,1.66,0,0,0,0,3.32H6.035a1.66,1.66,0,0,0,0-3.32Z" transform="translate(0 -128.979)"/>
    </g>
  </g>
</svg>
