<svg xmlns="http://www.w3.org/2000/svg" width="136" height="136" viewBox="0 0 136 136">
  <g id="Grupo_109242" data-name="Grupo 109242" transform="translate(-1083 -6866)">
    <circle id="Elipse_4934" data-name="Elipse 4934" cx="68" cy="68" r="68" transform="translate(1083 6866)" fill="#ff9500" opacity="0.95" style="isolation: isolate"/>
    <circle id="Elipse_4935" data-name="Elipse 4935" cx="55" cy="55" r="55" transform="translate(1096 6879)" fill="#efefef" opacity="0.95" style="isolation: isolate"/>
    <path id="cerrar" d="M35.044,88.992A20.708,20.708,0,1,0,49.783,82.83a20.844,20.844,0,0,0-14.739,6.162ZM62.6,116.545A18.122,18.122,0,1,1,67.9,103.731,18.122,18.122,0,0,1,62.6,116.545Zm-5.1-18.6-5.785,5.784,5.785,5.785a1.361,1.361,0,0,1-1.925,1.925l-5.785-5.785L44,111.442a1.361,1.361,0,1,1-1.925-1.925l5.785-5.785-5.785-5.784A1.361,1.361,0,1,1,44,96.022l5.785,5.784,5.785-5.784a1.361,1.361,0,0,1,1.925,1.925ZM88.9,54.939H10.666A10.678,10.678,0,0,0,0,65.606v56.865a10.678,10.678,0,0,0,10.666,10.667H88.9a10.678,10.678,0,0,0,10.666-10.667V65.606A10.678,10.678,0,0,0,88.9,54.939Zm0,75.476H10.666a7.954,7.954,0,0,1-7.944-7.944V77.048H96.843v45.423a7.954,7.954,0,0,1-7.944,7.944Zm7.944-56.09H2.723v-8.72a7.954,7.954,0,0,1,7.944-7.944H88.9a7.954,7.954,0,0,1,7.944,7.944ZM14.955,61.8a4.191,4.191,0,1,0,4.191,4.19A4.191,4.191,0,0,0,14.955,61.8Zm0,5.659a1.468,1.468,0,1,1,1.468-1.468,1.468,1.468,0,0,1-1.468,1.468ZM25.67,61.8a4.191,4.191,0,1,0,4.191,4.19A4.191,4.191,0,0,0,25.67,61.8Zm0,5.659a1.468,1.468,0,1,1,1.468-1.468,1.468,1.468,0,0,1-1.468,1.468ZM36.385,61.8a4.191,4.191,0,1,0,4.19,4.19,4.191,4.191,0,0,0-4.19-4.19Zm0,5.659a1.468,1.468,0,1,1,1.468-1.468,1.468,1.468,0,0,1-1.468,1.468Zm51.54-1.468a1.361,1.361,0,0,1-1.361,1.361h-28.9a1.361,1.361,0,1,1,0-2.722h28.9a1.361,1.361,0,0,1,1.36,1.361Z" transform="translate(1101 6840.061)" fill="#255065" stroke="#255065" stroke-width="1"/>
  </g>
</svg>
