<svg xmlns="http://www.w3.org/2000/svg" width="136" height="136" viewBox="0 0 136 136">
  <g id="Grupo_109241" data-name="Grupo 109241" transform="translate(-733 -6866)">
    <circle id="Elipse_4936" data-name="Elipse 4936" cx="68" cy="68" r="68" transform="translate(733 6866)" fill="#ff9500" opacity="0.95" style="isolation: isolate"/>
    <circle id="Elipse_4937" data-name="Elipse 4937" cx="55" cy="55" r="55" transform="translate(746 6879)" fill="#efefef" opacity="0.95" style="isolation: isolate"/>
    <g id="mapa-vial" transform="translate(749 6859.932)">
      <path id="Trazado_114355" data-name="Trazado 114355" d="M184.92,91.385H160.809v-3.44H184.92a15.2,15.2,0,1,0,0-30.405H173.277V54.1H184.92a18.642,18.642,0,0,1,0,37.285Z" transform="translate(-109.286 -15.119)" fill="#255065"/>
      <path id="Trazado_114356" data-name="Trazado 114356" d="M123.237,265.31H166.3v3.44H123.237Z" transform="translate(-83.752 -158.657)" fill="#255065"/>
      <path id="Trazado_114357" data-name="Trazado 114357" d="M34.705,197H29.753a18.633,18.633,0,1,1,0-37.267H46.743v3.44H29.753a15.194,15.194,0,1,0,0,30.388h4.953V197Z" transform="translate(-7.55 -86.906)" fill="#255065"/>
      <path id="Trazado_114358" data-name="Trazado 114358" d="M44.067,54.1H81.609v3.44H44.067Z" transform="translate(-29.948 -15.119)" fill="#255065"/>
      <path id="Trazado_114359" data-name="Trazado 114359" d="M7.954,47.76a7.954,7.954,0,1,1,7.954-7.954A7.963,7.963,0,0,1,7.954,47.76Zm0-12.468a4.514,4.514,0,1,0,4.514,4.514,4.52,4.52,0,0,0-4.514-4.514Z" transform="translate(0 0)" fill="#255065"/>
      <path id="Trazado_114360" data-name="Trazado 114360" d="M163.6,47.77a7.973,7.973,0,0,1-7.859-6.808,6.513,6.513,0,0,1-.087-1.138,7.954,7.954,0,0,1,15.908,0,6.714,6.714,0,0,1-.1,1.2A7.967,7.967,0,0,1,163.6,47.77Zm0-12.451a4.511,4.511,0,0,0-4.506,4.506,3.371,3.371,0,0,0,.042.593,4.512,4.512,0,0,0,8.935.058,3.569,3.569,0,0,0,.051-.651A4.52,4.52,0,0,0,163.6,35.318Z" transform="translate(-105.784 -0.018)" fill="#255065"/>
      <path id="Trazado_114361" data-name="Trazado 114361" d="M124.687,153.364a7.972,7.972,0,0,1-7.859-6.807,6.538,6.538,0,0,1-.087-1.138,7.954,7.954,0,1,1,15.908,0,6.722,6.722,0,0,1-.1,1.195A7.967,7.967,0,0,1,124.687,153.364Zm0-12.468a4.52,4.52,0,0,0-4.506,4.523,3.39,3.39,0,0,0,.042.594,4.512,4.512,0,0,0,8.935.057,3.57,3.57,0,0,0,.051-.651A4.528,4.528,0,0,0,124.687,140.9Z" transform="translate(-79.338 -71.768)" fill="#255065"/>
      <path id="Trazado_114362" data-name="Trazado 114362" d="M87.132,259a7.959,7.959,0,0,1-7.877-6.837,6.355,6.355,0,0,1-.085-1.108,7.954,7.954,0,1,1,15.908,0,6.652,6.652,0,0,1-.1,1.179A7.93,7.93,0,0,1,87.132,259Zm0-12.47a4.529,4.529,0,0,0-4.523,4.524,3.3,3.3,0,0,0,.042.574,4.509,4.509,0,0,0,8.934.07,3.6,3.6,0,0,0,.053-.645A4.521,4.521,0,0,0,87.132,246.528Z" transform="translate(-53.804 -143.556)" fill="#255065"/>
      <path id="Trazado_114363" data-name="Trazado 114363" d="M257.768,264.048a5.5,5.5,0,1,1,5.5-5.5A5.5,5.5,0,0,1,257.768,264.048Zm0-7.558a2.059,2.059,0,1,0,2.059,2.059A2.061,2.061,0,0,0,257.768,256.49Z" transform="translate(-171.442 -150.326)" fill="#255065"/>
      <path id="Trazado_114364" data-name="Trazado 114364" d="M265.782,182.586a1.72,1.72,0,0,1-1.72-1.72v-2.1a1.72,1.72,0,0,1,3.439,0v2.1A1.72,1.72,0,0,1,265.782,182.586Z" transform="translate(-179.456 -98.674)" fill="#255065"/>
      <path id="Trazado_114365" data-name="Trazado 114365" d="M265.782,232.445a1.719,1.719,0,0,1-1.72-1.72V219.39a1.72,1.72,0,0,1,3.439,0v11.336A1.719,1.719,0,0,1,265.782,232.445Z" transform="translate(-179.456 -126.281)" fill="#255065"/>
      <path id="Trazado_114366" data-name="Trazado 114366" d="M281.736,197.957H265.782a1.72,1.72,0,0,1-1.72-1.72V185.322a1.72,1.72,0,0,1,1.72-1.72h15.955a1.72,1.72,0,0,1,1.412,2.7l-3.112,4.475,3.113,4.477a1.72,1.72,0,0,1-1.412,2.7Zm-14.235-3.44h10.945l-1.918-2.758a1.72,1.72,0,0,1,0-1.963l1.916-2.755H267.5v7.476Z" transform="translate(-179.456 -103.128)" fill="#255065"/>
    </g>
  </g>
</svg>
