<svg xmlns="http://www.w3.org/2000/svg" width="136" height="136" viewBox="0 0 136 136">
  <g id="Grupo_109243" data-name="Grupo 109243" transform="translate(6573 4834)">
    <circle id="Elipse_4932" data-name="Elipse 4932" cx="68" cy="68" r="68" transform="translate(-6573 -4834)" fill="#ff9500" opacity="0.95" style="isolation: isolate"/>
    <circle id="Elipse_4933" data-name="Elipse 4933" cx="55" cy="55" r="55" transform="translate(-6560 -4821)" fill="#efefef" opacity="0.95" style="isolation: isolate"/>
    <g id="velocimetro" transform="translate(-6560 -4897.613)">
      <g id="Grupo_108323" data-name="Grupo 108323" transform="translate(0 97.613)">
        <g id="Grupo_108322" data-name="Grupo 108322" transform="translate(0 0)">
          <path id="Trazado_114379" data-name="Trazado 114379" d="M62.084,158.209A2.191,2.191,0,0,0,60.1,154.3a48.3,48.3,0,0,0-25.685,34.824,2.191,2.191,0,1,0,4.321.733A43.9,43.9,0,0,1,62.084,158.209Z" transform="translate(-26.85 -141.694)" fill="#255065"/>
          <path id="Trazado_114380" data-name="Trazado 114380" d="M211.45,131.483a48.48,48.48,0,0,0-9.329.9,2.191,2.191,0,0,0,.42,4.342,2.217,2.217,0,0,0,.425-.041,44.087,44.087,0,0,1,8.484-.822,2.191,2.191,0,1,0,0-4.382Z" transform="translate(-156.45 -124.061)" fill="#255065"/>
          <path id="Trazado_114381" data-name="Trazado 114381" d="M93.891,113.722A55,55,0,0,0,0,152.613,2.191,2.191,0,0,0,2.191,154.8H42.679a12.583,12.583,0,0,0,24.643,0h40.487A2.191,2.191,0,0,0,110,152.613,54.638,54.638,0,0,0,93.891,113.722ZM62.791,154.8a8.157,8.157,0,1,1,.409-2.552A8.212,8.212,0,0,1,62.791,154.8Zm4.656-4.383h0a12.478,12.478,0,0,0-1.139-3.676L92.2,127.936a2.191,2.191,0,0,0-2.576-3.545L63.729,143.2a12.572,12.572,0,0,0-21.176,7.219H4.429a50.618,50.618,0,0,1,101.141,0Z" transform="translate(0 -97.613)" fill="#255065"/>
          <path id="Trazado_114382" data-name="Trazado 114382" d="M243.191,167.613A2.191,2.191,0,0,0,241,169.8v7.669a2.191,2.191,0,0,0,4.382,0V169.8A2.192,2.192,0,0,0,243.191,167.613Z" transform="translate(-188.191 -152.274)" fill="#255065"/>
          <path id="Trazado_114383" data-name="Trazado 114383" d="M192.939,177.414a2.191,2.191,0,0,0-4.168,1.355l1.209,3.719a2.191,2.191,0,0,0,4.168-1.355Z" transform="translate(-147.322 -158.745)" fill="#255065"/>
          <path id="Trazado_114384" data-name="Trazado 114384" d="M145.42,200.859a2.191,2.191,0,1,0-3.545,2.576l4.508,6.2a2.191,2.191,0,0,0,3.545-2.576Z" transform="translate(-110.459 -177.53)" fill="#255065"/>
          <path id="Trazado_114385" data-name="Trazado 114385" d="M110.89,240.329l-3.423-2.487a2.191,2.191,0,1,0-2.576,3.545l3.423,2.487a2.191,2.191,0,0,0,2.576-3.545Z" transform="translate(-81.202 -206.787)" fill="#255065"/>
          <path id="Trazado_114386" data-name="Trazado 114386" d="M90.094,287.109l-7.294-2.37a2.191,2.191,0,1,0-1.355,4.168l7.294,2.37a2.191,2.191,0,0,0,1.355-4.168Z" transform="translate(-62.416 -243.651)" fill="#255065"/>
          <path id="Trazado_114387" data-name="Trazado 114387" d="M377.586,284.739l-7.294,2.37a2.191,2.191,0,1,0,1.355,4.168l7.294-2.37a2.191,2.191,0,1,0-1.355-4.168Z" transform="translate(-287.969 -243.651)" fill="#255065"/>
          <path id="Trazado_114388" data-name="Trazado 114388" d="M327.959,200.376a2.191,2.191,0,0,0-3.061.485l-4.508,6.2a2.191,2.191,0,1,0,3.545,2.576l4.508-6.2A2.191,2.191,0,0,0,327.959,200.376Z" transform="translate(-249.858 -177.531)" fill="#255065"/>
          <path id="Trazado_114389" data-name="Trazado 114389" d="M291.982,176.675a2.192,2.192,0,0,0-2.761,1.407l-1.123,3.456a2.191,2.191,0,1,0,4.168,1.354l1.123-3.456A2.192,2.192,0,0,0,291.982,176.675Z" transform="translate(-224.885 -159.266)" fill="#255065"/>
        </g>
      </g>
    </g>
  </g>
</svg>
