<svg xmlns="http://www.w3.org/2000/svg" width="465" height="303" viewBox="0 0 465 303">
  <g id="Grupo_109249" data-name="Grupo 109249" transform="translate(-285 -706)">
    <rect id="Image_Place_Holder" data-name="Image Place Holder" width="465" height="303" transform="translate(285 706)" fill="#e8e8e8"/>
    <g id="Grupo_108321" data-name="Grupo 108321" transform="translate(-3000.215 13148.918)">
      <g id="Grupo_108319" data-name="Grupo 108319" transform="translate(3312 -12332.984)">
        <g id="_4d4d4dff" data-name="#4d4d4dff" transform="translate(44.267)">
          <path id="Trazado_114250" data-name="Trazado 114250" d="M149.132,190.138c.721-.2,1.577-.749,2.23-.1q9,6.75,17.916,13.607a39.792,39.792,0,0,1,14.407,23.785c1.25,6.706,2.29,13.452,3.512,20.161.155,1.489.522,3.2-.41,4.52a3.426,3.426,0,0,1-4.344,1.195c-8.673-3.871-17.318-7.809-25.987-11.7a12.884,12.884,0,0,1-4.878-3.154,10,10,0,0,1-2.186-6.817c-.084-3.879.131-7.769-.239-11.636-.088-8.068-.076-16.136-.267-24.2-.052-1.884-.422-3.851.247-5.667m12.094,18.732c-.084,3.214.49,6.4.593,9.609.4,4.261.6,8.542,1.039,12.8.3,1.625,2.079,2.158,3.325,2.891,3.468,1.732,6.766,3.831,10.361,5.308a39.772,39.772,0,0,0-.585-5.985c-.769-5.089-1.489-10.365-4.066-14.913-2.126-3.855-5.579-6.766-9.242-9.1A6.714,6.714,0,0,0,161.226,208.87Z" transform="translate(-148.737 -189.733)" fill="#4d4d4d"/>
        </g>
        <path id="Trazado_114251" data-name="Trazado 114251" d="M73.653,190.585c1.1-.952,2.815.171,2.772,1.513-.319,7.972-.215,15.968-.37,23.948A58.245,58.245,0,0,1,75.9,222.4c-.179,3.6.012,7.208-.151,10.8a9.534,9.534,0,0,1-5.288,7.984q-12.2,5.465-24.371,10.983c-1.844.709-3.552,1.967-5.615,1.9a4.424,4.424,0,0,1-2.791-5.125c.35-1.422.358-3.3,1.84-4.066,4.675-2.477,9.346-4.978,14.029-7.443,2.62-1.529,5.463-2.668,7.976-4.38,1.055-.665.92-2.011,1.051-3.086a12.307,12.307,0,0,0,.076-3.082c-.115-.609-.808-.39-1.187-.2-4.775,2.764-9.581,5.475-14.34,8.263-1.047.581-2.063,1.386-3.329,1.322-.291-1.7.342-3.381.474-5.073a5.586,5.586,0,0,1,2.246-4.412c5.149-3.337,10.35-6.6,15.482-9.963a3.725,3.725,0,0,0,1.724-3.576c-.1-1.31.55-2.8-.068-3.986a4.557,4.557,0,0,0-1.868.952c-4.862,3.381-9.768,6.7-14.662,10.035a28.636,28.636,0,0,1-3.377,2.234c-.729.3-1.334-.637-1.306-1.27A18.709,18.709,0,0,1,48.988,209.3Q61.323,199.941,73.653,190.585Z" transform="translate(-37.573 -190.032)" fill="gray"/>
        <path id="Trazado_114265" data-name="Trazado 114265" d="M80.486,330.567a21.915,21.915,0,0,1,17.788.04c7.63,3.118,15.275,6.2,22.905,9.318.629.319,1.712.653,1.4,1.581-1.023.693-2.322.749-3.48,1.119-3.042.872-6.324,1.7-9.446.721-6.67-2.238-13.253-4.747-19.95-6.9a6.356,6.356,0,0,0-5.4.753c.08.135.239.4.323.534,4.834,1.764,9.8,3.194,14.626,4.986,1.692.753,3.787,1.664,4.281,3.644.378,1.692-1.286,2.835-2.728,3.166a64.862,64.862,0,0,1-9.9,2.079,32.539,32.539,0,0,1-9.975-1.477c-7.968-2.019-15.921-4.1-23.9-6.081a6.127,6.127,0,0,1-1.967-.864c.637-1.183,2-1.533,3.166-1.967a12.225,12.225,0,0,1,6.73-.454c6.941,1.876,13.818,3.982,20.775,5.786a7.106,7.106,0,0,0,5.125-.573,6,6,0,0,0-1.557-.816c-5.5-1.673-11.03-3.253-16.526-4.946a3.894,3.894,0,0,1-2.839-2.684c-.271-1.438.972-2.545,2.047-3.253C74.668,332.725,77.655,331.809,80.486,330.567Z" transform="translate(-48.096 -273.361)" fill="#1a1a1a"/>
      </g>
      <g id="Grupo_108320" data-name="Grupo 108320" transform="translate(3415.999 -12332.437)">
        <path id="Trazado_114269" data-name="Trazado 114269" d="M286.047,281.487c2.3-.021,4.6,0,6.9-.011a4.81,4.81,0,0,1,4.7,3.392,9.679,9.679,0,0,1,.2,2.85,3.438,3.438,0,0,1-2.3,3.318,2.921,2.921,0,0,1,1.9,1.646c.587,1.177.352,2.523.4,3.787a4.84,4.84,0,0,1-4.473,4.751c-2.546.029-5.091,0-7.637.013,0-.984,0-1.967,0-2.952,2.259-.007,4.519.007,6.777-.006a2.022,2.022,0,0,0,1.894-2.1,5.643,5.643,0,0,0-.263-2.471,2.483,2.483,0,0,0-2.2-1.326c-1.551-.007-3.1,0-4.653,0,0-.875-.01-1.752.006-2.627,1.548.016,3.1,0,4.646.009a2.471,2.471,0,0,0,2.274-1.505,4.484,4.484,0,0,0,.185-1.832,1.981,1.981,0,0,0-1.875-1.976c-2.161-.013-4.322.006-6.483-.009C286.049,283.453,286.053,282.47,286.047,281.487Z" transform="translate(-285.74 -281.462)" fill="#3a3a3c"/>
        <path id="Trazado_114270" data-name="Trazado 114270" d="M393.69,281.517c2.359-.01,4.719,0,7.08,0a7.007,7.007,0,0,1,5.055,2.069,6.933,6.933,0,0,1,1.63,4.6c.009,2.151,0,4.3,0,6.451a7.086,7.086,0,0,1-1.528,4.46,6.287,6.287,0,0,1-3.576,1.989,15.943,15.943,0,0,1-3.319.179h-5.342q-.009-9.873,0-19.747m3.5,2.923c0,4.676-.02,9.353.01,14.028,1.144-.027,2.287,0,3.431-.014a3.328,3.328,0,0,0,2.429-.946,4.182,4.182,0,0,0,.911-2.713q0-3.3,0-6.606a4.191,4.191,0,0,0-.938-2.838,3.286,3.286,0,0,0-2.412-.911Q398.9,284.437,397.185,284.44Z" transform="translate(-378.2 -281.497)" fill="#3a3a3c"/>
        <path id="Trazado_114271" data-name="Trazado 114271" d="M551.678,282.713a7.069,7.069,0,0,1,4.1-1.284c1.885-.019,3.772.022,5.658-.019.074,1.027,0,2.06.039,3.092-1.9.075-3.8-.007-5.7.04a3.413,3.413,0,0,0-2.4,1,2.114,2.114,0,0,0-.158,2.68,4.583,4.583,0,0,0,2.863,1.359,9.332,9.332,0,0,1,4.82,1.848,4.813,4.813,0,0,1,1.663,3.122,6.094,6.094,0,0,1-1.124,4.53,6.386,6.386,0,0,1-4.949,2.086c-2.112.01-4.224,0-6.337,0,0-1.032,0-2.062,0-3.091,2.022-.009,4.042,0,6.063,0a3.635,3.635,0,0,0,2.584-.931,2.4,2.4,0,0,0,.583-2.472,2.867,2.867,0,0,0-1.543-1.468c-1.167-.567-2.5-.547-3.706-1a6.353,6.353,0,0,1-4.171-3.623A5.426,5.426,0,0,1,551.678,282.713Z" transform="translate(-511.822 -281.409)" fill="#3a3a3c"/>
        <path id="Trazado_114272" data-name="Trazado 114272" d="M648.21,281.49c1.144.01,2.287,0,3.431,0q2.032,3.734,4.045,7.477c.085.111.125.39.326.307q2.1-3.889,4.209-7.78c1.145-.007,2.292,0,3.44-.007-1.807,3.636-3.694,7.233-5.529,10.857a2.887,2.887,0,0,0-.485,1.256c.02,2.548,0,5.1.01,7.644-1.154,0-2.306,0-3.46,0-.017-2.683.043-5.372-.029-8.05C652.206,289.284,650.156,285.412,648.21,281.49Z" transform="translate(-596.198 -281.477)" fill="#3a3a3c"/>
        <path id="Trazado_114273" data-name="Trazado 114273" d="M765.5,282.535a7.53,7.53,0,0,1,3.938-1.025q2.727,0,5.454,0c0,1.035,0,2.069,0,3.1h-5.319a3.873,3.873,0,0,0-2.508.765,2.185,2.185,0,0,0-.558,2.715,3.258,3.258,0,0,0,1.763,1.267c.937.347,1.953.354,2.91.631a6.681,6.681,0,0,1,4.065,2.55,5.919,5.919,0,0,1,.683,4.28,5.066,5.066,0,0,1-1.967,3.221,7.333,7.333,0,0,1-4.384,1.218c-2-.013-4,.022-6.006-.017.01-1.022.014-2.043,0-3.064,2.052-.037,4.105,0,6.157-.017a3.7,3.7,0,0,0,2.411-.829,2.375,2.375,0,0,0,.575-2.805,3.342,3.342,0,0,0-1.795-1.389c-.957-.379-2-.412-2.98-.729a7.364,7.364,0,0,1-3.924-2.56A5.3,5.3,0,0,1,765.5,282.535Z" transform="translate(-694.634 -281.495)" fill="#3a3a3c"/>
        <path id="Trazado_114274" data-name="Trazado 114274" d="M867.22,284.375c.034-.992-.034-1.985.036-2.975,4.232.043,8.465,0,12.7.023-.01.989,0,1.979,0,2.967-1.533,0-3.064.009-4.595,0-.03,5.588-.014,11.177-.007,16.766-1.155.033-2.31.006-3.464.014q0-8.388,0-16.774C870.327,284.38,868.773,284.419,867.22,284.375Z" transform="translate(-783.782 -281.4)" fill="#3a3a3c"/>
        <path id="Trazado_114275" data-name="Trazado 114275" d="M978.188,283.683a2.206,2.206,0,0,1,2.128-2.213c3.036-.009,6.073.01,9.109-.01.039.977-.009,1.956.027,2.933-2.467.095-4.942,0-7.41.047a.481.481,0,0,0-.416.54c-.011,1.587,0,3.174-.006,4.762q3.015.011,6.031,0c.017.874,0,1.748.01,2.622-2.006,0-4.012.023-6.016-.014-.05,1.755-.009,3.511-.023,5.266a.538.538,0,0,0,.537.649c2.538.014,5.078-.006,7.616.009-.009.983,0,1.964,0,2.946q-4.658,0-9.316,0a2.243,2.243,0,0,1-2.137-1.481,3.89,3.89,0,0,1-.132-1.416Q978.19,291,978.188,283.683Z" transform="translate(-878.824 -281.451)" fill="#3a3a3c"/>
        <path id="Trazado_114276" data-name="Trazado 114276" d="M1082.31,301.177c.043-6.575-.013-13.15.027-19.724,1.033.013,2.068.009,3.1,0,1.923,3.955,3.762,7.952,5.712,11.894,1.93-3.955,3.778-7.949,5.717-11.9,1.032.024,2.065,0,3.1.013q-.009,9.875,0,19.75c-1.035,0-2.069,0-3.1,0,0-4.407.011-8.815-.009-13.221-1.571,3.286-3.125,6.58-4.721,9.855-.676-.027-1.353.03-2.026-.036q-2.286-4.886-4.652-9.736c-.033,4.379-.006,8.759-.014,13.137C1084.4,301.193,1083.349,301.255,1082.31,301.177Z" transform="translate(-968.009 -281.444)" fill="#3a3a3c"/>
        <path id="Trazado_114277" data-name="Trazado 114277" d="M1228.858,282.82a7.187,7.187,0,0,1,4.368-1.31c1.816.01,3.633-.013,5.45.013-.019,1.029,0,2.059-.01,3.089-1.809.011-3.62,0-5.43.006a3.607,3.607,0,0,0-2.611.957,2.122,2.122,0,0,0-.152,2.807,4.638,4.638,0,0,0,2.748,1.281,10.4,10.4,0,0,1,4.3,1.418,4.884,4.884,0,0,1,1.97,2.424,7.66,7.66,0,0,1,.2,2.561,4.624,4.624,0,0,1-1.322,3.419,6.628,6.628,0,0,1-4.707,1.775c-2.1.007-4.2,0-6.3,0,0-1.029.009-2.058,0-3.085,2.059-.022,4.12,0,6.18-.012a3.609,3.609,0,0,0,2.457-.914,2.334,2.334,0,0,0,.322-2.975,4.712,4.712,0,0,0-2.935-1.488,11.352,11.352,0,0,1-2.929-.839,5.886,5.886,0,0,1-3.294-3.295A5.415,5.415,0,0,1,1228.858,282.82Z" transform="translate(-1091.855 -281.495)" fill="#3a3a3c"/>
      </g>
      <g id="Grupo_108318" data-name="Grupo 108318" transform="translate(3420.13 -12293.063)">
        <path id="Trazado_114252" data-name="Trazado 114252" d="M971.3,227.835a2.117,2.117,0,0,1,2.35.432,3.3,3.3,0,0,1,.392,2.631c-.252,1.37-2.154,1.725-3.14.941-.8-.7-.644-1.844-.572-2.787a1.58,1.58,0,0,1,.97-1.216m-.445.85a5.241,5.241,0,0,0-.072,2.234c.2.853,1.168.869,1.876.917q.417-.393.843-.784a14.071,14.071,0,0,0,0-2.313c-.2-.193-.384-.384-.572-.575C972.217,228.111,971.274,227.933,970.855,228.685Z" transform="translate(-794.655 -227.307)" fill="gray"/>
        <path id="Trazado_114253" data-name="Trazado 114253" d="M973.68,231.234c.694-.077,1.582-.278,2.061.4.1.432-.225.752-.44,1.078.085.307.257.919.342,1.227-.673-.064-.8-.779-1.118-1.232-.13.456-.026,1.081-.564,1.3a7.652,7.652,0,0,1-.281-2.769m.726.419c0,.178-.008.538-.011.715l.594-.1c0-.13,0-.395,0-.527C974.846,231.722,974.552,231.674,974.406,231.653Z" transform="translate(-797.162 -229.861)" fill="gray"/>
        <path id="Trazado_114256" data-name="Trazado 114256" d="M310.362,229.8a11.742,11.742,0,0,1,9.154-3.492,11.346,11.346,0,0,1,8.518,3.307,8.6,8.6,0,0,1,2.337,4.263c-1.412.474-2.785,1.06-4.215,1.476a6.391,6.391,0,0,0-4.554-4.107,7.451,7.451,0,0,0-6.277,1.375,8.073,8.073,0,0,0-2.027,5.8c-.016,3.611-.008,7.222,0,10.834,0,2.051.487,4.332,2.167,5.678,1.727,1.357,4.08,1.41,6.157,1.076a6.078,6.078,0,0,0,3.855-2.74c-.037-1.931.013-3.863-.026-5.792-1.433-.185-2.875.1-4.3-.109v-3.855c3.148,0,6.293.008,9.437-.005.005,5.71-.008,11.422.008,17.132-1.592,0-3.182,0-4.774,0a23.816,23.816,0,0,0-.061-2.573,10.678,10.678,0,0,1-8.844,2.922,9.659,9.659,0,0,1-7.564-4.213c-1.677-2.509-1.91-5.622-1.908-8.552.034-3.37-.053-6.738.048-10.105A12.69,12.69,0,0,1,310.362,229.8Z" transform="translate(-307.44 -226.297)" fill="#1a1a1a"/>
        <path id="Trazado_114257" data-name="Trazado 114257" d="M883.546,227.751c1.6.011,3.209-.026,4.814.024-.024,1.836-.005,3.672-.011,5.508-1.608-.016-3.214.026-4.819-.029C883.559,231.42,883.538,229.584,883.546,227.751Z" transform="translate(-730.897 -227.363)" fill="#1a1a1a"/>
        <path id="Trazado_114258" data-name="Trazado 114258" d="M810.283,257.07c.84.257,1.637.623,2.456.946a7.438,7.438,0,0,1-1.839,4.062c-.2.286-.646.562-.456.967a10.908,10.908,0,0,1,.633,5.673,6.368,6.368,0,0,1-3.579,5.413,14.085,14.085,0,0,1-8.375.588c-1.258-.5-2.724,1.277-1.852,2.379a2.149,2.149,0,0,0,1.428.67c3.23.278,6.542-.289,9.716.538a5.285,5.285,0,0,1,3.781,3.132,7.145,7.145,0,0,1-2.408,8.142c-2.84,1.945-6.449,2-9.755,1.775-2.151-.223-4.517-.9-5.8-2.779a5.815,5.815,0,0,1,1.015-7.207,4.446,4.446,0,0,1-2.358-4.414,5.229,5.229,0,0,1,2.93-3.757c-2.194-2.305-2.408-5.773-1.826-8.746a6.113,6.113,0,0,1,4.136-4.78,14.518,14.518,0,0,1,9.334.3,6.385,6.385,0,0,0,2.819-2.906m-9.019,5.771a2.745,2.745,0,0,0-2.236,1.417,8.451,8.451,0,0,0-.442,3.916c.064,1.107.368,2.451,1.508,2.925a7.5,7.5,0,0,0,4.165.1c1.306-.342,1.8-1.807,1.786-3.02,0-1.539.252-3.352-.893-4.581a5.131,5.131,0,0,0-3.887-.758m-3.375,23.36c.578,1.3,2.165,1.674,3.46,1.725,1.926.056,4.128.238,5.733-1.036,1.023-.779.906-2.194.758-3.325a2.07,2.07,0,0,0-1.953-1.322c-2.294-.236-4.607-.072-6.907-.13A3.712,3.712,0,0,0,797.889,286.2Z" transform="translate(-664.239 -248.918)" fill="#1a1a1a"/>
        <path id="Trazado_114259" data-name="Trazado 114259" d="M412.159,269.335a7.952,7.952,0,0,1,6.131-4.292,10.391,10.391,0,0,1,7.185,1.192,8.093,8.093,0,0,1,3.643,6.115c.241,1.794.082,3.606.154,5.41-4.252.082-8.5,0-12.757.042.082,1.9-.315,3.961.657,5.7,1.179,2.035,4.067,2.358,6.043,1.41a5.174,5.174,0,0,0,2.276-2.959,33.771,33.771,0,0,1,3.821,1.425,8.7,8.7,0,0,1-3.95,4.981,11.674,11.674,0,0,1-8.523.49,7.76,7.76,0,0,1-4.992-4.721c-.856-2.247-.551-4.69-.609-7.034.056-2.594-.3-5.357.922-7.758m6.035-.066c-1.82,1.1-1.733,3.489-1.674,5.349q4.034-.008,8.073,0c-.019-1.425.191-2.983-.628-4.247C422.781,268.5,420.015,268.28,418.195,269.268Z" transform="translate(-383.73 -254.653)" fill="#1a1a1a"/>
        <path id="Trazado_114260" data-name="Trazado 114260" d="M500.5,264.737a10.93,10.93,0,0,1,8.062,2.027,8.109,8.109,0,0,1,2.779,5.93c.077,1.855.011,3.715.034,5.569a15.689,15.689,0,0,1-.546,5.524,7.786,7.786,0,0,1-4.629,4.647,12.539,12.539,0,0,1-8.7-.005,7.725,7.725,0,0,1-4.406-4.17c-.9-2.051-.723-4.34-.737-6.523.029-1.762-.072-3.526.069-5.283a8.13,8.13,0,0,1,2.583-5.479,9.262,9.262,0,0,1,5.484-2.236m-.45,4.16a4.19,4.19,0,0,0-2.392,4.059c-.04,2.565-.021,5.129-.011,7.694,0,1.595.57,3.434,2.128,4.154,1.881.853,4.57.593,5.736-1.288.835-1.412.7-3.129.726-4.7-.04-2.117.074-4.237-.072-6.348a3.973,3.973,0,0,0-2.212-3.5A5.855,5.855,0,0,0,500.054,268.9Z" transform="translate(-443.366 -254.498)" fill="#1a1a1a"/>
        <path id="Trazado_114261" data-name="Trazado 114261" d="M586.077,267.4a7.256,7.256,0,0,1,9.808-1.847,7.875,7.875,0,0,1,1.818,2.114,13.782,13.782,0,0,1,2.483-2.194,8.385,8.385,0,0,1,7.373-.448,6.837,6.837,0,0,1,3.625,5.209,63.865,63.865,0,0,1,.323,9.146c-.032,3.055.066,6.11-.05,9.162-1.727-.037-3.455-.011-5.18-.019-.011-4.986,0-9.973-.005-14.959a6.309,6.309,0,0,0-.927-3.736,3.555,3.555,0,0,0-4.438-.729A4.43,4.43,0,0,0,599.062,273c-.048,5.193.021,10.386-.034,15.576-1.725-.029-3.452.042-5.174-.042.069-4.38.008-8.759.029-13.139a16.5,16.5,0,0,0-.326-4.409,3.034,3.034,0,0,0-2.279-2.218,4.347,4.347,0,0,0-4.488,2.342,2.213,2.213,0,0,0-.175,1.107c.019,5.214-.005,10.431.013,15.645-.029.17-.085.509-.111.676-1.722.082-3.447.005-5.166.032q.008-11.855,0-23.71c1.542,0,3.081,0,4.623,0A15.837,15.837,0,0,0,586.077,267.4Z" transform="translate(-508.778 -254.281)" fill="#1a1a1a"/>
        <path id="Trazado_114262" data-name="Trazado 114262" d="M715.887,264.859a10.635,10.635,0,0,1,6.536.109,6.366,6.366,0,0,1,3.571,3.254,9.893,9.893,0,0,1,.864,4.289c.019,3.611,0,7.225.005,10.839a2.066,2.066,0,0,0,.808,1.942,8.1,8.1,0,0,0,1.5.223q0,1.466,0,2.936c-2.313.673-5.259.464-6.714-1.714a9.3,9.3,0,0,1-8.237,1.955,5.724,5.724,0,0,1-3.948-3.206,8.059,8.059,0,0,1,.209-6.69,7.17,7.17,0,0,1,4.321-3.336,21.465,21.465,0,0,1,6.751-.691c-.021-1.611.289-3.354-.411-4.862-.694-1.489-2.6-1.773-4.035-1.425-1.624.4-2.689,1.81-3.54,3.15-.988-.583-1.99-1.139-3.018-1.645a8.989,8.989,0,0,1,5.336-5.127m-.045,14.532c-1.11.874-1.123,2.4-.993,3.683a2.4,2.4,0,0,0,1.643,2.2,5.127,5.127,0,0,0,4.5-1c.352-.294.805-.628.721-1.155.011-1.614-.008-3.227,0-4.838C719.744,278.347,717.492,278.1,715.842,279.391Z" transform="translate(-603.083 -254.302)" fill="#1a1a1a"/>
        <path id="Trazado_114263" data-name="Trazado 114263" d="M928.613,264.8a10.239,10.239,0,0,1,5.315.379,8.346,8.346,0,0,1,4.957,5.174c-1.227.429-2.435.911-3.651,1.367a4.47,4.47,0,0,0-2.491-2.7,5.094,5.094,0,0,0-4.247.355,4.319,4.319,0,0,0-1.672,3.81c-.005,2.655-.045,5.31.027,7.962a3.934,3.934,0,0,0,2.543,3.778,8.189,8.189,0,0,0,3.171.016,4.676,4.676,0,0,0,2.7-2.983c1.25.392,2.451.933,3.7,1.333a8.07,8.07,0,0,1-5.008,5.328,10.718,10.718,0,0,1-7.551-.268,7.762,7.762,0,0,1-4.4-5.079c-.594-2.345-.352-4.782-.4-7.172,0-2.416-.14-5,1.049-7.193A7.835,7.835,0,0,1,928.613,264.8Z" transform="translate(-758.883 -254.464)" fill="#1a1a1a"/>
        <path id="Trazado_114264" data-name="Trazado 114264" d="M882.609,266.249c1.759-.05,3.519-.021,5.281-.019.013,7.89-.029,15.78.021,23.67-1.772.05-3.55.074-5.32-.013C882.646,282.008,882.606,274.128,882.609,266.249Z" transform="translate(-730.206 -255.642)" fill="#1a1a1a"/>
      </g>
    </g>
  </g>
</svg>
