<svg xmlns="http://www.w3.org/2000/svg" width="136" height="136" viewBox="0 0 136 136">
  <g id="Grupo_109240" data-name="Grupo 109240" transform="translate(-381 -6864)">
    <circle id="Elipse_4938" data-name="Elipse 4938" cx="68" cy="68" r="68" transform="translate(381 6864)" fill="#ff9500" opacity="0.95" style="isolation: isolate"/>
    <circle id="Elipse_4939" data-name="Elipse 4939" cx="55" cy="55" r="55" transform="translate(394 6877)" fill="#efefef" opacity="0.95" style="isolation: isolate"/>
    <g id="portapapeles_1_" data-name="portapapeles (1)" transform="translate(384.995 6885.736)">
      <path id="Trazado_114371" data-name="Trazado 114371" d="M317.991,233.9l-4.442,4.442-1.744-1.744A1.349,1.349,0,1,0,309.9,238.5l2.7,2.7a1.349,1.349,0,0,0,1.908,0l5.4-5.4a1.349,1.349,0,1,0-1.908-1.908Z" transform="translate(-235.375 -191.498)" fill="#255065"/>
      <path id="Trazado_114372" data-name="Trazado 114372" d="M312.594,181.2a1.349,1.349,0,0,0,1.908,0l5.4-5.4a1.349,1.349,0,1,0-1.908-1.908l-4.443,4.443-1.744-1.744A1.349,1.349,0,1,0,309.9,178.5Z" transform="translate(-235.374 -142.291)" fill="#255065"/>
      <path id="Trazado_114373" data-name="Trazado 114373" d="M312.594,301.2a1.349,1.349,0,0,0,1.908,0l5.4-5.4a1.349,1.349,0,1,0-1.908-1.908l-4.443,4.443-1.744-1.744A1.349,1.349,0,1,0,309.9,298.5Z" transform="translate(-235.374 -240.705)" fill="#255065"/>
      <path id="Trazado_114374" data-name="Trazado 114374" d="M189.849,251.2h16.369a1.349,1.349,0,0,0,0-2.7H189.849a1.349,1.349,0,0,0,0,2.7Z" transform="translate(-136.14 -203.799)" fill="#255065"/>
      <path id="Trazado_114375" data-name="Trazado 114375" d="M189.85,191.2h16.369a1.349,1.349,0,1,0,0-2.7H189.85a1.349,1.349,0,0,0,0,2.7Z" transform="translate(-136.141 -154.593)" fill="#255065"/>
      <path id="Trazado_114376" data-name="Trazado 114376" d="M206.219,308.5H189.85a1.349,1.349,0,0,0,0,2.7h16.369a1.349,1.349,0,1,0,0-2.7Z" transform="translate(-136.141 -253.007)" fill="#255065"/>
      <path id="Trazado_114377" data-name="Trazado 114377" d="M99.759,2.7H76.505A9.429,9.429,0,0,0,63.3,2.7H40.038a6.753,6.753,0,0,0-6.746,6.746V66.466a1.349,1.349,0,0,0,2.7,0V9.444A4.052,4.052,0,0,1,40.038,5.4h21.33a9.367,9.367,0,0,0-.815,2.7H40.038a1.349,1.349,0,0,0-1.349,1.349v61.07H23.849A1.349,1.349,0,0,0,22.5,71.863a9.455,9.455,0,0,0,9.444,9.444h1.349v4.047A6.746,6.746,0,0,0,40.038,92.1H99.759a6.754,6.754,0,0,0,6.746-6.746V9.444A6.754,6.754,0,0,0,99.759,2.7ZM61.8,16.189a1.349,1.349,0,0,0,1.349-1.349v-5.4a6.746,6.746,0,0,1,13.491,0v5.4a1.35,1.35,0,0,0,1.349,1.349h2.7a4.054,4.054,0,0,1,3.816,2.7H55.29a4.054,4.054,0,0,1,3.816-2.7Zm-1.349-5.4v2.7H59.106a6.753,6.753,0,0,0-6.746,6.746,1.349,1.349,0,0,0,1.349,1.349H86.088a1.349,1.349,0,0,0,1.349-1.349,6.754,6.754,0,0,0-6.746-6.746H79.342v-2.7H98.41v61.07a6.746,6.746,0,0,1-13.491,0,1.349,1.349,0,0,0-1.349-1.349H41.388V10.793ZM31.944,78.608a6.757,6.757,0,0,1-6.61-5.4H82.317a9.409,9.409,0,0,0,2.745,5.4Zm71.862,6.745A4.052,4.052,0,0,1,99.759,89.4H40.038a4.047,4.047,0,0,1-4.047-4.047V81.307H91.664a9.444,9.444,0,0,0,9.444-9.444V9.444a1.349,1.349,0,0,0-1.349-1.349H79.246a9.347,9.347,0,0,0-.81-2.7H99.759a4.052,4.052,0,0,1,4.047,4.047Z" transform="translate(0 0)" fill="#255065"/>
      <path id="Trazado_114378" data-name="Trazado 114378" d="M267.548,38.095a4.053,4.053,0,1,0-2.86-1.187A4.052,4.052,0,0,0,267.548,38.095Zm-.954-5a1.35,1.35,0,1,1-.4.954A1.34,1.34,0,0,1,266.593,33.093Z" transform="translate(-197.649 -24.604)" fill="#255065"/>
    </g>
  </g>
</svg>
