<svg xmlns="http://www.w3.org/2000/svg" width="190" height="90.333" viewBox="0 0 190 90.333">
  <g id="Grupo_108329" data-name="Grupo 108329" transform="translate(-180 -1729)">
    <rect id="Rectángulo_34350" data-name="Rectángulo 34350" width="190" height="90" transform="translate(180 1729)" fill="#fff"/>
    <circle id="Elipse_4967" data-name="Elipse 4967" cx="28" cy="28" r="28" transform="translate(180 1763)" fill="#afe1ed" style="mix-blend-mode: multiply;isolation: isolate"/>
    <ellipse id="Elipse_4968" data-name="Elipse 4968" cx="14" cy="13.5" rx="14" ry="13.5" transform="translate(342 1729)" fill="#ff9500" opacity="0.6" style="mix-blend-mode: multiply;isolation: isolate"/>
    <g id="portapapeles" transform="translate(210.5 1729)">
      <path id="Trazado_114453" data-name="Trazado 114453" d="M427.294,22.5H422v85.04h5.293a5.309,5.309,0,0,0,5.293-5.293V27.794a5.309,5.309,0,0,0-5.293-5.293Z" transform="translate(-329.016 -18.531)" fill="#ff9500"/>
      <path id="Trazado_114454" data-name="Trazado 114454" d="M153.869,27.794a5.309,5.309,0,0,0-5.293-5.293H95.294A5.309,5.309,0,0,0,90,27.794v74.454a5.309,5.309,0,0,0,5.293,5.293h53.283a5.309,5.309,0,0,0,5.293-5.293V89.016L124.582,63.7Z" transform="translate(-55.592 -18.531)" fill="#ffb245"/>
      <path id="Trazado_114455" data-name="Trazado 114455" d="M83.284,269.5l-37.4,22.936H30a7.939,7.939,0,0,0,7.939,7.939H91.223Z" transform="translate(-6.178 -221.952)" fill="#e7e6e6"/>
      <path id="Trazado_114456" data-name="Trazado 114456" d="M332,269.5v22.936a7.939,7.939,0,0,0,7.939,7.939h5.293V269.5Z" transform="translate(-254.895 -221.952)" fill="#d0cdcd"/>
      <path id="Trazado_114457" data-name="Trazado 114457" d="M397.294,52.5,392,121.209a7.941,7.941,0,0,0,10.586-7.486V52.5Z" transform="translate(-304.309 -43.238)" fill="#e7e6e6"/>
      <path id="Trazado_114458" data-name="Trazado 114458" d="M154.524,52.5a5.293,5.293,0,1,1-10.586,0H120v61.222h42.7a7.941,7.941,0,0,0,5.293,7.486,7.941,7.941,0,0,0,5.293-7.486V52.5Z" transform="translate(-80.299 -43.238)" fill="#fff"/>
      <path id="Trazado_114459" data-name="Trazado 114459" d="M333.648,82.5H331l2.646,5.293h5.293A5.293,5.293,0,0,0,333.648,82.5Z" transform="translate(-254.072 -67.945)" fill="#9c9897"/>
      <path id="Trazado_114460" data-name="Trazado 114460" d="M219.82,20.733s0-5.293,0-5.293a7.939,7.939,0,0,0-15.879,0v5.293h-2.646A5.293,5.293,0,0,0,196,26.026h26.465C222.466,23.1,221.281,20.734,219.82,20.733Zm-7.94-2.646a2.646,2.646,0,1,1,2.646-2.646A2.647,2.647,0,0,1,211.88,18.087Z" transform="translate(-142.89 -6.178)" fill="#b8b4b3"/>
      <path id="Trazado_114461" data-name="Trazado 114461" d="M317.828,233.888l-4.357,4.357-1.711-1.711a1.323,1.323,0,0,0-1.871,1.871l2.646,2.646a1.323,1.323,0,0,0,1.871,0l5.293-5.293a1.323,1.323,0,1,0-1.872-1.871Z" transform="translate(-236.365 -192.303)"/>
      <path id="Trazado_114462" data-name="Trazado 114462" d="M312.534,181.051a1.323,1.323,0,0,0,1.871,0l5.293-5.293a1.323,1.323,0,1,0-1.871-1.871l-4.357,4.358-1.711-1.711a1.323,1.323,0,1,0-1.871,1.871Z" transform="translate(-236.363 -142.888)"/>
      <path id="Trazado_114463" data-name="Trazado 114463" d="M319.7,293.888a1.323,1.323,0,0,0-1.871,0l-4.357,4.357-1.711-1.711a1.323,1.323,0,0,0-1.871,1.871l2.646,2.646a1.323,1.323,0,0,0,1.871,0l5.293-5.293a1.323,1.323,0,0,0,0-1.871Z" transform="translate(-236.364 -241.717)"/>
      <path id="Trazado_114464" data-name="Trazado 114464" d="M189.823,251.147h16.055a1.323,1.323,0,0,0,0-2.647H189.823a1.323,1.323,0,0,0,0,2.647Z" transform="translate(-136.712 -204.657)"/>
      <path id="Trazado_114465" data-name="Trazado 114465" d="M205.879,188.5H189.823a1.323,1.323,0,0,0,0,2.646h16.055a1.323,1.323,0,0,0,0-2.646Z" transform="translate(-136.712 -155.243)"/>
      <path id="Trazado_114466" data-name="Trazado 114466" d="M205.879,308.5H189.823a1.323,1.323,0,0,0,0,2.647h16.055a1.323,1.323,0,0,0,0-2.647Z" transform="translate(-136.712 -254.071)"/>
      <path id="Trazado_114467" data-name="Trazado 114467" d="M98.278,2.646H75.47a9.248,9.248,0,0,0-12.953,0H39.7a6.624,6.624,0,0,0-6.616,6.616V65.192a1.323,1.323,0,0,0,2.646,0V9.263a3.974,3.974,0,0,1,3.97-3.97H60.623a9.182,9.182,0,0,0-.8,2.646H39.7a1.323,1.323,0,0,0-1.323,1.323v59.9H23.823A1.323,1.323,0,0,0,22.5,70.485a9.274,9.274,0,0,0,9.263,9.263h1.323v3.97A6.617,6.617,0,0,0,39.7,90.333H98.278a6.624,6.624,0,0,0,6.616-6.616V9.263a6.624,6.624,0,0,0-6.616-6.616Zm-29.288,0a6.623,6.623,0,0,1,6.616,6.616v5.293a1.323,1.323,0,0,0,1.323,1.323h2.646a3.976,3.976,0,0,1,3.743,2.646H54.661A3.976,3.976,0,0,1,58.4,15.879h2.646a1.323,1.323,0,0,0,1.323-1.323V9.263A6.624,6.624,0,0,1,68.99,2.646ZM41.025,10.586h18.7v2.646H58.4a6.624,6.624,0,0,0-6.616,6.616,1.323,1.323,0,0,0,1.323,1.323H84.869a1.324,1.324,0,0,0,1.323-1.323,6.624,6.624,0,0,0-6.616-6.616H78.253V10.586h18.7v59.9a6.616,6.616,0,0,1-13.232,0A1.324,1.324,0,0,0,82.4,69.161H41.026ZM25.28,71.808H81.17A9.229,9.229,0,0,0,83.862,77.1h-52.1a6.628,6.628,0,0,1-6.484-5.293Zm76.968,11.909a3.974,3.974,0,0,1-3.97,3.97H39.7a3.969,3.969,0,0,1-3.97-3.97v-3.97H90.338A9.263,9.263,0,0,0,99.6,70.485V9.263a1.323,1.323,0,0,0-1.323-1.323H78.159a9.168,9.168,0,0,0-.794-2.646H98.278a3.974,3.974,0,0,1,3.97,3.97Z"/>
      <path id="Trazado_114468" data-name="Trazado 114468" d="M267.47,37.94a3.975,3.975,0,1,0-2.806-1.164A3.974,3.974,0,0,0,267.47,37.94Zm-.936-4.906a1.323,1.323,0,1,1-.388.936A1.313,1.313,0,0,1,266.534,33.034Z" transform="translate(-198.48 -24.707)"/>
    </g>
  </g>
</svg>
