<svg xmlns="http://www.w3.org/2000/svg" width="136" height="136" viewBox="0 0 136 136">
  <g id="Grupo_109247" data-name="Grupo 109247" transform="translate(2136 11178)">
    <circle id="Elipse_4950" data-name="Elipse 4950" cx="68" cy="68" r="68" transform="translate(-2136 -11178)" fill="#ff9500" opacity="0.95" style="isolation: isolate"/>
    <circle id="Elipse_4951" data-name="Elipse 4951" cx="55" cy="55" r="55" transform="translate(-2123 -11165)" fill="#efefef" opacity="0.95" style="isolation: isolate"/>
    <g id="iluminacion-escenica" transform="translate(-2121 -11159)">
      <path id="Trazado_114416" data-name="Trazado 114416" d="M94.582,12.484V16.1l-.925,1.705-1.327-1.327a1.74,1.74,0,0,0-2.463,0l-6.6,6.6-8.192,1.639a1.742,1.742,0,0,0-.89,2.939L88.124,41.587a1.742,1.742,0,0,0,2.939-.89L92.7,32.5l6.6-6.6a1.74,1.74,0,0,0,0-2.463l-3.071-3.071,1.627-3a1.727,1.727,0,0,0,.213-.829V12.484h1.742a1.742,1.742,0,0,0,0-3.484H5.729a1.742,1.742,0,0,0,0,3.484H7.471v4.059a1.727,1.727,0,0,0,.213.829l1.627,3L6.24,23.446a1.74,1.74,0,0,0,0,2.463l6.6,6.6L14.474,40.7a1.742,1.742,0,0,0,2.939.89L31.349,27.651a1.742,1.742,0,0,0-.89-2.939l-8.192-1.639-6.6-6.6a1.74,1.74,0,0,0-2.463,0L11.88,17.806,10.955,16.1V12.484Zm-6.3,24.339-9.332-9.332,4.6-.92,5.649,5.649Zm-71.957-4.6,5.649-5.649,4.6.92-9.332,9.332ZM91.1,29.182l-4.5-4.5,4.5-4.5,4.5,4.5Zm-81.163-4.5,4.5-4.5,4.5,4.5-4.5,4.5Z" transform="translate(0 0)" fill="#255065"/>
      <path id="Trazado_114417" data-name="Trazado 114417" d="M99.808,75.776a1.742,1.742,0,0,0,0-3.484H96.93L75.922,55.706l8.131-26.452a1.742,1.742,0,0,0-3.331-1.024c-2.122,6.9-6.363,20.712-8.483,27.617a1.956,1.956,0,0,0,.57,1.834c.007.005.01.014.017.021L91.305,72.292H14.232L32.711,57.7c.007-.007.01-.016.017-.021a1.956,1.956,0,0,0,.57-1.834c-2.12-6.905-6.362-20.714-8.483-27.617a1.742,1.742,0,1,0-3.331,1.024l8.131,26.452L8.607,72.292H5.729a1.742,1.742,0,0,0,0,3.484Z" transform="translate(0 13.355)" fill="#255065"/>
      <path id="Trazado_114418" data-name="Trazado 114418" d="M43.471,43.981,66.116,26.109a1.741,1.741,0,1,0-2.157-2.735L42.393,40.395H42.38L20.813,23.374a1.741,1.741,0,0,0-2.157,2.735L41.3,43.981A1.76,1.76,0,0,0,43.471,43.981Z" transform="translate(10.382 10.388)" fill="#255065"/>
      <path id="Trazado_114419" data-name="Trazado 114419" d="M45.306,47.339c-.552-1.047-2.679-1.535-3.12-.108a1.724,1.724,0,0,0,1.141,2.155l.341.1a1.455,1.455,0,0,0,1.637-2.151Z" transform="translate(28.275 27.708)" fill="#255065"/>
      <path id="Trazado_114420" data-name="Trazado 114420" d="M20.13,47.339c.552-1.047,2.679-1.535,3.12-.108a1.724,1.724,0,0,1-1.141,2.155l-.341.1A1.455,1.455,0,0,1,20.13,47.339Z" transform="translate(11.826 27.708)" fill="#255065"/>
      <path id="Trazado_114421" data-name="Trazado 114421" d="M42.209,52.647l.467.143a1.39,1.39,0,0,0,1.738-.921,1.618,1.618,0,0,0-1.07-2.021l-.444-.136a1.4,1.4,0,0,0-1.754.928,1.605,1.605,0,0,0,1.063,2.007Z" transform="translate(27.508 30.16)" fill="#255065"/>
      <path id="Trazado_114422" data-name="Trazado 114422" d="M23.237,52.647l-.467.143a1.39,1.39,0,0,1-1.738-.921,1.618,1.618,0,0,1,1.07-2.021l.444-.136a1.4,1.4,0,0,1,1.754.928,1.606,1.606,0,0,1-1.063,2.007Z" transform="translate(12.583 30.16)" fill="#255065"/>
      <path id="Trazado_114423" data-name="Trazado 114423" d="M37.764,41.193c1.678,1.324,3.853-1.4,2.16-2.735A1.743,1.743,0,0,0,37.764,41.193Z" transform="translate(24.548 21.56)" fill="#255065"/>
      <path id="Trazado_114424" data-name="Trazado 114424" d="M27.7,41.193c-1.678,1.324-3.853-1.4-2.16-2.735A1.743,1.743,0,0,1,27.7,41.193Z" transform="translate(15.526 21.56)" fill="#255065"/>
      <path id="Trazado_114425" data-name="Trazado 114425" d="M42.957,40.858l-.108-.085c-1.3-1.029-2.911.4-2.759,1.658a1.643,1.643,0,0,0,.707,1.158C42.469,44.913,44.65,42.2,42.957,40.858Z" transform="translate(26.769 23.312)" fill="#255065"/>
      <path id="Trazado_114426" data-name="Trazado 114426" d="M22.523,40.858l.108-.085c1.3-1.029,2.911.4,2.759,1.658a1.643,1.643,0,0,1-.707,1.158C23.009,44.913,20.83,42.2,22.523,40.858Z" transform="translate(13.289 23.312)" fill="#255065"/>
      <path id="Trazado_114427" data-name="Trazado 114427" d="M34.747,38.811c1.683,1.329,3.853-1.4,2.162-2.733A1.742,1.742,0,0,0,34.747,38.811Z" transform="translate(22.307 19.792)" fill="#255065"/>
      <path id="Trazado_114428" data-name="Trazado 114428" d="M30.718,38.811c-1.683,1.329-3.853-1.4-2.162-2.733A1.742,1.742,0,0,1,30.718,38.811Z" transform="translate(17.765 19.792)" fill="#255065"/>
    </g>
  </g>
</svg>
