<svg xmlns="http://www.w3.org/2000/svg" width="136" height="136" viewBox="0 0 136 136">
  <g id="Grupo_109244" data-name="Grupo 109244" transform="translate(-382 -522)">
    <circle id="Elipse_4944" data-name="Elipse 4944" cx="68" cy="68" r="68" transform="translate(382 522)" fill="#ff9500" opacity="0.95" style="isolation: isolate"/>
    <circle id="Elipse_4945" data-name="Elipse 4945" cx="55" cy="55" r="55" transform="translate(395 535)" fill="#efefef" opacity="0.95" style="isolation: isolate"/>
    <path id="_3d" data-name="3d" d="M96.846,18.764a2.082,2.082,0,0,0-.157-.634c-.012-.029-.02-.061-.034-.088a2.064,2.064,0,0,0-.41-.565c-.038-.038-.076-.073-.118-.109s-.082-.086-.133-.122a1.784,1.784,0,0,0-.2-.082,2.092,2.092,0,0,0-.31-.189L49.155.127a2.111,2.111,0,0,0-1.44,0L1.386,16.973a2.092,2.092,0,0,0-.31.189,1.816,1.816,0,0,0-.2.082c-.048.036-.086.082-.133.122a1.485,1.485,0,0,0-.118.109,2.1,2.1,0,0,0-.41.565c-.014.03-.022.06-.034.088a2.054,2.054,0,0,0-.158.634c0,.042-.012.08-.014.121,0,.024-.006.044-.006.068V77.917A2.109,2.109,0,0,0,1.386,79.9L47.715,96.744a2.111,2.111,0,0,0,1.44,0L95.484,79.9a2.109,2.109,0,0,0,1.386-1.979V18.953c0-.024-.006-.044-.008-.068a1,1,0,0,0-.015-.121ZM48.435,4.346l39.929,14.52-18.8,6.267L49.219,17a2.16,2.16,0,0,0-.735-.141c-.016,0-.032-.008-.048-.008a.405.405,0,0,0-.048.01,2.111,2.111,0,0,0-.735.141L27.308,25.136l-18.8-6.267Zm0,62.879L33.045,61.07l15.39-6.155,15.39,6.155Zm-2.106-16L29.482,57.96V28.8l16.847-6.738Zm4.212,0V22.063L67.388,28.8V57.958ZM4.212,21.874,25.27,28.9V61.07a2.077,2.077,0,0,0,.149.737c.028.071.064.135.1.2a2.071,2.071,0,0,0,.292.434,1.934,1.934,0,0,0,.152.167,2.1,2.1,0,0,0,.52.352c.031.014.059.04.09.054.008,0,.012.009.021.013l19.736,7.89V91.757L4.212,76.443ZM92.658,76.443,50.541,91.76V70.922l19.736-7.895c.008,0,.012-.009.021-.013.034-.014.06-.038.09-.054a2.042,2.042,0,0,0,.52-.352,1.934,1.934,0,0,0,.152-.167,2.071,2.071,0,0,0,.292-.434c.034-.067.07-.131.1-.2a2.057,2.057,0,0,0,.149-.735V28.9l21.059-7.021Zm0,0" transform="translate(401.667 542)" fill="#255065"/>
  </g>
</svg>
