<svg xmlns="http://www.w3.org/2000/svg" width="465" height="266" viewBox="0 0 465 266">
  <g id="Grupo_109244" data-name="Grupo 109244" transform="translate(-850 -10325)">
    <rect id="Image_Place_Holder" data-name="Image Place Holder" width="465" height="266" transform="translate(850 10325)" fill="#e8e8e8"/>
    <g id="bombilla" transform="translate(1064.794 10383.857)">
      <g id="Grupo_108325" data-name="Grupo 108325" transform="translate(6.963 0)">
        <path id="Trazado_114390" data-name="Trazado 114390" d="M234.687,460.583v3.7a8.874,8.874,0,0,1-.052.967,8.712,8.712,0,0,1-8.656,7.742H212.625a8.712,8.712,0,0,1-8.656-7.742,8.866,8.866,0,0,1-.052-.967v-3.7a9.244,9.244,0,0,0,3.774.8h23.222A9.244,9.244,0,0,0,234.687,460.583Z" transform="translate(-146.745 -326.884)" fill="#dee4f0"/>
        <g id="Grupo_108324" data-name="Grupo 108324" transform="translate(0)">
          <path id="Trazado_114391" data-name="Trazado 114391" d="M250.094,19.032a2.177,2.177,0,0,1-2.177-2.177V2.177a2.177,2.177,0,0,1,4.354,0V16.855A2.177,2.177,0,0,1,250.094,19.032Z" transform="translate(-177.973 0)" fill="#ffe7c9"/>
          <path id="Trazado_114392" data-name="Trazado 114392" d="M90.092,85.307a2.171,2.171,0,0,1-1.54-.637L78.174,74.29a2.177,2.177,0,0,1,3.079-3.079L91.632,81.59a2.177,2.177,0,0,1-1.539,3.716Z" transform="translate(-57.05 -50.088)" fill="#ffe7c9"/>
          <path id="Trazado_114393" data-name="Trazado 114393" d="M23.818,245.307H9.14a2.177,2.177,0,0,1,0-4.354H23.818a2.177,2.177,0,0,1,0,4.354Z" transform="translate(-6.963 -171.009)" fill="#ffe7c9"/>
          <path id="Trazado_114394" data-name="Trazado 114394" d="M79.714,390.313a2.177,2.177,0,0,1-1.54-3.716l10.379-10.379a2.177,2.177,0,0,1,3.079,3.079L81.253,389.675a2.171,2.171,0,0,1-1.539.637Z" transform="translate(-57.05 -266.556)" fill="#ffe7c9"/>
          <path id="Trazado_114395" data-name="Trazado 114395" d="M395.1,390.313a2.172,2.172,0,0,1-1.54-.637L383.179,379.3a2.177,2.177,0,0,1,3.079-3.079L396.637,386.6a2.177,2.177,0,0,1-1.539,3.716Z" transform="translate(-273.518 -266.556)" fill="#ffe7c9"/>
          <path id="Trazado_114396" data-name="Trazado 114396" d="M455.162,245.307H440.484a2.177,2.177,0,1,1,0-4.354h14.677a2.177,2.177,0,1,1,0,4.354Z" transform="translate(-313.096 -171.009)" fill="#ffe7c9"/>
          <path id="Trazado_114397" data-name="Trazado 114397" d="M384.719,85.307a2.177,2.177,0,0,1-1.54-3.716l10.379-10.379a2.177,2.177,0,0,1,3.079,3.079L386.258,84.669A2.17,2.17,0,0,1,384.719,85.307Z" transform="translate(-273.518 -50.088)" fill="#ffe7c9"/>
        </g>
        <path id="Trazado_114398" data-name="Trazado 114398" d="M219.3,453.333s-14.232,2.618-15.385,2.1v3.7a8.867,8.867,0,0,0,.052.967,8.712,8.712,0,0,0,8.656,7.742H216.4a8.714,8.714,0,0,1-8.209-5.794.874.874,0,0,1,.819-1.172h21.9a9.242,9.242,0,0,0,3.721-.775,8.875,8.875,0,0,0,.052-.967v-3.7C233.534,455.951,219.3,453.333,219.3,453.333Z" transform="translate(-146.745 -321.739)" fill="#afafaf"/>
        <path id="Trazado_114399" data-name="Trazado 114399" d="M226.32,390.169a9.281,9.281,0,0,1-9.289,9.289H193.809a9.281,9.281,0,0,1-9.289-9.289s-.136-13.568-.163-13.922v-.012l21.063-2.9,20.822,2.9Z" transform="translate(-132.863 -264.961)" fill="#b0c0d2"/>
        <path id="Trazado_114400" data-name="Trazado 114400" d="M201.066,406.555h-7.257a9.281,9.281,0,0,1-9.289-9.289s-.136-13.568-.163-13.922v-.012h7.257v.012c.026.354.163,13.922.163,13.922a9.281,9.281,0,0,0,9.289,9.289Z" transform="translate(-132.863 -272.059)" fill="#727997"/>
        <path id="Trazado_114401" data-name="Trazado 114401" d="M305.5,420.187h-7.4a2.177,2.177,0,0,1,0-4.354h7.379l.012,2.177Z" transform="translate(-212.039 -295.125)" fill="#2b597f"/>
        <path id="Trazado_114402" data-name="Trazado 114402" d="M211.2,418.01a2.178,2.178,0,0,1-2.177,2.177H184.786l-.049-4.354h24.291A2.178,2.178,0,0,1,211.2,418.01Z" transform="translate(-133.133 -295.125)" fill="#2b597f"/>
        <path id="Trazado_114403" data-name="Trazado 114403" d="M155.61,90.49h0c-22.419-.345-41.272,19.195-40.869,41.45a41.639,41.639,0,0,0,11.783,29.13c4.293,4.415,8.009,8.5,8.421,14.424l41.885.07c.235-6.1,3.7-10.224,8.026-14.738A41.634,41.634,0,0,0,196.4,131.939c0-22.88-18.259-41.429-40.793-41.449Z" transform="translate(-83.451 -64.219)" fill="#ffb854"/>
        <path id="Trazado_114404" data-name="Trazado 114404" d="M176.829,175.553v.012l-41.885-.07c-.412-5.928-4.128-10.009-8.421-14.424a41.639,41.639,0,0,1-11.783-29.13c-.4-22.256,18.45-41.795,40.869-41.449,1.132,0,2.253.049,3.361.139-20.662,1.811-37.353,20.357-36.973,41.31a41.639,41.639,0,0,0,11.783,29.13c4.293,4.415,8.009,8.5,8.421,14.424Z" transform="translate(-83.45 -64.221)" fill="#ff9500"/>
        <path id="Trazado_114405" data-name="Trazado 114405" d="M204.632,225.545a4.788,4.788,0,0,1-3.6,1.849q-.09,0-.179,0a4.79,4.79,0,0,1-3.553-1.578l-13.643-15.094a4.79,4.79,0,0,1,7.107-6.423l9.812,10.855L216.225,195a4.79,4.79,0,1,1,7.566,5.875Z" transform="translate(-131.485 -137.078)" fill="#0ca4ca"/>
      </g>
      <g id="Grupo_108326" data-name="Grupo 108326" transform="translate(6.963 0)">
        <path id="Trazado_114406" data-name="Trazado 114406" d="M250.094,19.032a2.177,2.177,0,0,0,2.177-2.177V2.177a2.177,2.177,0,0,0-4.354,0V16.855A2.177,2.177,0,0,0,250.094,19.032Z" transform="translate(-177.973 0)"/>
        <path id="Trazado_114407" data-name="Trazado 114407" d="M88.553,84.669a2.177,2.177,0,1,0,3.079-3.079L81.253,71.211a2.177,2.177,0,0,0-3.079,3.079Z" transform="translate(-57.05 -50.088)"/>
        <path id="Trazado_114408" data-name="Trazado 114408" d="M23.818,240.953H9.14a2.177,2.177,0,0,0,0,4.354H23.818a2.177,2.177,0,0,0,0-4.354Z" transform="translate(-6.963 -171.009)"/>
        <path id="Trazado_114409" data-name="Trazado 114409" d="M88.553,376.217,78.174,386.6a2.177,2.177,0,0,0,3.079,3.079L91.632,379.3a2.177,2.177,0,1,0-3.079-3.079Z" transform="translate(-57.05 -266.556)"/>
        <path id="Trazado_114410" data-name="Trazado 114410" d="M386.259,376.216a2.177,2.177,0,0,0-3.079,3.079l10.379,10.379a2.177,2.177,0,0,0,3.079-3.079Z" transform="translate(-273.519 -266.555)"/>
        <path id="Trazado_114411" data-name="Trazado 114411" d="M455.162,240.953H440.484a2.177,2.177,0,1,0,0,4.354h14.677a2.177,2.177,0,1,0,0-4.354Z" transform="translate(-313.096 -171.009)"/>
        <path id="Trazado_114412" data-name="Trazado 114412" d="M393.559,71.211,383.18,81.59a2.177,2.177,0,0,0,3.079,3.079L396.638,74.29a2.177,2.177,0,0,0-3.079-3.079Z" transform="translate(-273.519 -50.088)"/>
        <path id="Trazado_114413" data-name="Trazado 114413" d="M193.272,126.627c0-24.056-19.294-43.627-43.009-43.627a42.416,42.416,0,0,0-23.317,6.962,43.534,43.534,0,0,0-15.58,18.027,2.177,2.177,0,1,0,3.946,1.841,38.812,38.812,0,0,1,34.951-22.476c21.314,0,38.654,17.618,38.654,39.273a39.393,39.393,0,0,1-10.944,27.381c-4.068,4.248-7.53,8.308-8.421,14H131.544c-1.123-5.9-5.15-10.047-8.769-13.767a39.36,39.36,0,0,1-11.165-27.61,40.223,40.223,0,0,1,.73-7.638,2.177,2.177,0,1,0-4.275-.829,44.562,44.562,0,0,0-.81,8.467,43.69,43.69,0,0,0,12.4,30.647c4.592,4.719,7.843,8.486,7.843,14.006,0,.019,0,.039,0,.058l.125,12.776a11.471,11.471,0,0,0,5.515,9.8v2.394a10.9,10.9,0,0,0,10.886,10.886h13.353a10.9,10.9,0,0,0,10.886-10.886v-2.394a11.471,11.471,0,0,0,5.515-9.8s-.015-14.231-.044-14.373c.413-5.046,3.471-8.632,7.387-12.722A43.729,43.729,0,0,0,193.272,126.627Zm-29.365,69.679a6.539,6.539,0,0,1-6.531,6.531H144.023a6.539,6.539,0,0,1-6.531-6.531v-.839a11.494,11.494,0,0,0,1.6.114H162.31a11.541,11.541,0,0,0,1.6-.114Zm-1.6-5.08H139.088a7.12,7.12,0,0,1-7.112-7.112v-.145h22.061a2.177,2.177,0,0,0,0-4.354H131.976v-7.257h37.379l.067,7.257H164.2a2.177,2.177,0,0,0,0,4.354h5.225v.145A7.12,7.12,0,0,1,162.31,191.226Z" transform="translate(-78.142 -58.907)"/>
        <path id="Trazado_114414" data-name="Trazado 114414" d="M212.437,199.758a2.177,2.177,0,1,0,3.439,2.67l4.31-5.55a6.967,6.967,0,0,0-11.005-8.545L195.12,206.442l-8.07-8.929a6.967,6.967,0,0,0-10.337,9.344l13.643,15.095a7.011,7.011,0,0,0,10.671-.4l8.617-11.1a2.177,2.177,0,0,0-3.439-2.67l-8.617,11.1a2.629,2.629,0,0,1-4,.15l-13.643-15.095a2.612,2.612,0,1,1,3.876-3.5l9.811,10.855a2.193,2.193,0,0,0,3.335-.125L212.621,191a2.613,2.613,0,1,1,4.127,3.2Z" transform="translate(-126.162 -131.75)"/>
      </g>
    </g>
  </g>
</svg>
