<svg xmlns="http://www.w3.org/2000/svg" width="136" height="136" viewBox="0 0 136 136">
  <g id="Grupo_109245" data-name="Grupo 109245" transform="translate(-733 -522)">
    <circle id="Elipse_4946" data-name="Elipse 4946" cx="68" cy="68" r="68" transform="translate(733 522)" fill="#ff9500" opacity="0.95" style="isolation: isolate"/>
    <circle id="Elipse_4947" data-name="Elipse 4947" cx="55" cy="55" r="55" transform="translate(746 535)" fill="#efefef" opacity="0.95" style="isolation: isolate"/>
    <g id="perspectiva" transform="translate(723.193 546)">
      <path id="Trazado_114429" data-name="Trazado 114429" d="M59.089,81.285,75.9,66.769h32.255a3.065,3.065,0,1,0,0-6.131H83L96.545,48.951l.178-.178h6.764a3.065,3.065,0,0,0,0-6.131H99.65c0-.178.02-.336.02-.514v-19.8A8.986,8.986,0,0,0,93.4,13.749L51.534.44a8.854,8.854,0,0,0-7.871,1.187A9.346,9.346,0,0,0,39.807,9.3V78.022a9.24,9.24,0,0,0,5.023,8.326,9.043,9.043,0,0,0,3.936.929v.139h63.976a3.065,3.065,0,0,0,0-6.131ZM77.382,15.094l14.14,4.489a2.842,2.842,0,0,1,2,2.729v5.419l-16.137,4.45Zm0,23.455,16.137-4.43v8.009A2.886,2.886,0,0,1,92.53,44.3L77.382,57.375ZM45.938,9.023A2.848,2.848,0,0,1,47.1,6.709a2.764,2.764,0,0,1,1.681-.554,2.59,2.59,0,0,1,.87.138l21.556,6.862V33.881L45.937,40.823ZM47.619,80.87a2.838,2.838,0,0,1-1.681-2.61V47.191L71.251,40.23V62.675L50.684,80.435a2.843,2.843,0,0,1-3.065.435Z" transform="translate(0 0)" fill="#255065"/>
    </g>
  </g>
</svg>
