<svg xmlns="http://www.w3.org/2000/svg" width="136" height="136" viewBox="0 0 136 136">
  <g id="Grupo_109248" data-name="Grupo 109248" transform="translate(1787.514 11178)">
    <circle id="Elipse_4952" data-name="Elipse 4952" cx="68" cy="68" r="68" transform="translate(-1787.514 -11178)" fill="#ff9500" opacity="0.95" style="isolation: isolate"/>
    <circle id="Elipse_4953" data-name="Elipse 4953" cx="55" cy="55" r="55" transform="translate(-1775 -11165)" fill="#efefef" opacity="0.95" style="isolation: isolate"/>
    <path id="escalera" d="M2.054,95.823a1.37,1.37,0,0,0-.044.223c0,.027.014.049.015.076a1.44,1.44,0,0,0,.064.313,1.454,1.454,0,0,0,.079.262,1.382,1.382,0,0,0,.16.238,1.482,1.482,0,0,0,.184.227,1.628,1.628,0,0,0,.223.151,1.546,1.546,0,0,0,.284.154c.026.009.043.03.069.037a1.512,1.512,0,0,0,.447.067h6.1a1.514,1.514,0,0,0,.54-.108,1.561,1.561,0,0,0,.159-.082,1.416,1.416,0,0,0,.3-.2,1.192,1.192,0,0,0,.139-.139,2.088,2.088,0,0,0,.285-.468c.011-.029.03-.05.038-.079L17.3,76.227H32.4L26.464,95.6a1.6,1.6,0,0,0-.023.224,1.338,1.338,0,0,0-.044.223c0,.027.014.049.015.076a3.241,3.241,0,0,0,.143.575,1.382,1.382,0,0,0,.16.238,1.482,1.482,0,0,0,.184.227,1.628,1.628,0,0,0,.223.151,1.546,1.546,0,0,0,.284.154c.026.009.043.03.069.037a1.519,1.519,0,0,0,.447.067h6.1a1.514,1.514,0,0,0,.54-.108,1.56,1.56,0,0,0,.159-.082,1.416,1.416,0,0,0,.3-.2,1.193,1.193,0,0,0,.139-.139,2.088,2.088,0,0,0,.285-.468c.011-.029.03-.05.038-.079l6.208-20.266h12.1l6.208,20.266c.009.03.029.05.038.079a1.523,1.523,0,0,0,.09.18,1.472,1.472,0,0,0,.2.288,1.192,1.192,0,0,0,.139.139,1.5,1.5,0,0,0,.3.2,1.561,1.561,0,0,0,.159.082,1.514,1.514,0,0,0,.54.108h6.1a1.519,1.519,0,0,0,.447-.067c.026-.008.043-.029.069-.037a1.505,1.505,0,0,0,.284-.154,1.358,1.358,0,0,0,.223-.151,1.559,1.559,0,0,0,.184-.227,1.511,1.511,0,0,0,.16-.238,1.633,1.633,0,0,0,.079-.262,1.459,1.459,0,0,0,.064-.313c0-.027.015-.049.015-.076a1.338,1.338,0,0,0-.044-.223A1.552,1.552,0,0,0,69,95.6l-1.73-5.645h15.1l2,6.539c.009.03.029.05.038.079a1.523,1.523,0,0,0,.09.18,1.471,1.471,0,0,0,.2.288,1.192,1.192,0,0,0,.139.139,1.5,1.5,0,0,0,.3.2,1.292,1.292,0,0,0,.7.189h6.1a1.52,1.52,0,0,0,.447-.067c.026-.008.043-.029.069-.037a1.505,1.505,0,0,0,.284-.154,1.358,1.358,0,0,0,.223-.151,1.559,1.559,0,0,0,.184-.227,1.511,1.511,0,0,0,.16-.238,1.633,1.633,0,0,0,.079-.262,1.459,1.459,0,0,0,.064-.313c0-.027.015-.049.015-.076a1.338,1.338,0,0,0-.044-.223,1.551,1.551,0,0,0-.023-.223L64.428,1.079c-.008-.026-.029-.043-.037-.069A1.429,1.429,0,0,0,64.238.73,1.4,1.4,0,0,0,64.085.5a1.466,1.466,0,0,0-.213-.172,1.477,1.477,0,0,0-.256-.172A1.547,1.547,0,0,0,63.38.085a1.51,1.51,0,0,0-.341-.07C63.014.014,63,0,62.97,0h-6.1c-.026,0-.044.014-.07.014a1.691,1.691,0,0,0-.233.038c-.047.011-.1,0-.143.015C56.4.075,56.383.1,56.358.1a1.192,1.192,0,0,0-.139.055,1.719,1.719,0,0,0-.18.116,1.4,1.4,0,0,0-.189.133,1.078,1.078,0,0,0-.1.1,1.272,1.272,0,0,0-.1.148,1.54,1.54,0,0,0-.142.215,1.531,1.531,0,0,0-.058.154c-.006.02-.021.032-.027.05L52.946,9.156H42.518L40.044,1.078c-.008-.026-.029-.043-.037-.069a1.486,1.486,0,0,0-.152-.282A1.369,1.369,0,0,0,39.7.5a1.414,1.414,0,0,0-.216-.175,1.474,1.474,0,0,0-.253-.171A1.566,1.566,0,0,0,39,.084a1.5,1.5,0,0,0-.34-.07c-.024,0-.043-.014-.069-.014h-6.1c-.026,0-.046.014-.07.015a1.516,1.516,0,0,0-.238.037c-.046.011-.093,0-.139.015C32.016.075,32,.1,31.975.1a1.32,1.32,0,0,0-.136.053,1.285,1.285,0,0,0-.192.123,1.4,1.4,0,0,0-.18.127c-.035.032-.066.064-.1.1a1.4,1.4,0,0,0-.117.165,1.486,1.486,0,0,0-.131.2,1.282,1.282,0,0,0-.055.145c-.009.023-.026.037-.032.059L2.079,95.6a1.437,1.437,0,0,0-.024.226ZM37.46,3.049l2.455,8.013a1.35,1.35,0,0,0,.084.273l1.314,4.29a1.49,1.49,0,0,0,.087.284L65.483,94.521H62.574L34.55,3.049Zm24.383,0L89.866,94.521H86.957L58.935,3.049ZM59.8,65.561H74.9l5.139,16.773h-15.1Zm.151-48.785,5.139,16.773H54.759L59.9,16.776ZM66.022,36.6l.467,1.521h-15.1L50.926,36.6Zm1.4,4.571,5.138,16.773h-15.1L52.327,41.169ZM58.4,60.991H73.5l.467,1.521h-15.1ZM51.573,33.549H49.993l-.666-2.174,4.476-14.6H56.71Zm-3.84-7.376-2.88-9.4h5.76ZM46.138,51.282l-6.706,21.9h-2.91l8.162-26.646ZM32.49,6.734l1.456,4.752L8.506,94.521H5.6ZM18.233,73.178,35.541,16.689l7.548,24.64L33.332,73.178Zm14.66,21.344H29.984l5.6-18.294H38.5Zm9.725-21.344,5.113-16.691,5.113,16.691ZM66.338,86.9l-.467-1.521h15.1l.467,1.521ZM56.875,6.738l.741,2.418H56.134Zm1.675,5.467.467,1.521H43.92l-.467-1.521Z" transform="translate(-1767.01 -11163)" fill="#255065"/>
  </g>
</svg>
