<svg xmlns="http://www.w3.org/2000/svg" width="196" height="202.5" viewBox="0 0 196 202.5">
  <g id="Grupo_109258" data-name="Grupo 109258" transform="translate(-2661 6007)">
    <g id="Grupo_109158" data-name="Grupo 109158" transform="translate(2677 -5991)" opacity="0.95" style="isolation: isolate">
      <rect id="Rectángulo_34187" data-name="Rectángulo 34187" width="164.357" height="164.357" rx="11.5" fill="#dee4f0"/>
    </g>
    <g id="Grupo_109157" data-name="Grupo 109157" transform="translate(2661 -6007)">
      <ellipse id="Elipse_4857" data-name="Elipse 4857" cx="19.5" cy="20" rx="19.5" ry="20" transform="translate(196 40) rotate(180)" fill="#ff9500" opacity="0.8" style="mix-blend-mode: multiply;isolation: isolate"/>
      <circle id="Elipse_4858" data-name="Elipse 4858" cx="32.412" cy="32.412" r="32.412" transform="translate(64.825 202.5) rotate(180)" fill="#0ca4ca" style="mix-blend-mode: multiply;isolation: isolate"/>
    </g>
    <g id="Grupo_109166" data-name="Grupo 109166" transform="translate(1884.012 -8240.505)">
      <path id="Trazado_114795" data-name="Trazado 114795" d="M95.354,185.06,75.988,224.4l17.4,39.114,39.283,9.56,29.157-41.857-27.21-39.053Z" transform="translate(756 2103.086)" fill="#ff9500"/>
      <path id="Trazado_114843" data-name="Trazado 114843" d="M125.607,188l-8.58,53.842-34.67-26.97Z" transform="translate(765.244 2107.354)" fill="none" stroke="#f60" stroke-linecap="round" stroke-linejoin="round" stroke-width="2"/>
      <path id="Trazado_114844" data-name="Trazado 114844" d="M132.382,252.986l-6.128-27.053L93.16,243.18l-1.576-44.218-15.583,5" transform="translate(756.017 2123.264)" fill="none" stroke="#f60" stroke-linecap="round" stroke-linejoin="round" stroke-width="2"/>
      <line id="Línea_199" data-name="Línea 199" x1="4.028" y2="34.226" transform="translate(847.601 2288)" fill="none" stroke="#f60" stroke-linecap="round" stroke-linejoin="round" stroke-width="2"/>
      <line id="Línea_200" data-name="Línea 200" x1="35.545" y2="14.62" transform="translate(882.271 2334.576)" fill="none" stroke="#f60" stroke-linecap="round" stroke-linejoin="round" stroke-width="2"/>
      <path id="Trazado_114796" data-name="Trazado 114796" d="M95.354,185.06,75.988,224.4l17.4,39.114,39.283,9.56,29.157-41.857-27.21-39.053Z" transform="translate(756 2103.086)" fill="none" stroke="#000" stroke-linecap="round" stroke-linejoin="round" stroke-width="2"/>
    </g>
  </g>
</svg>
